#filter dumbComments emptyLines substitution
# This Source Code Form is subject to the terms of the Mozilla Public
# License, v. 2.0. If a copy of the MPL was not distributed with this
# file, You can obtain one at http://mozilla.org/MPL/2.0/.
<svg xmlns="http://www.w3.org/2000/svg" width="18" height="18" fill="context-fill" fill-opacity="context-fill-opacity" viewBox="0 0 18 18"><path d="M15.47 1.47a.749.749 0 1 1 1.06 1.061l-8.496 8.496-.037.037-3.933 3.933-.04.04-1.495 1.495a.75.75 0 0 1-1.061-1.06l1.177-1.177A3.75 3.75 0 0 1 7.29 9.65L8.5 8.44V1.75a.75.75 0 0 1 1.383-.403v-.001l.001.003.009.013.039.06q.053.08.164.233c.146.203.364.491.645.826A14 14 0 0 0 12.61 4.33ZM4.025 12.915l1.89-1.89a2.25 2.25 0 0 0-1.89 1.89m4.475.335a2.3 2.3 0 0 0-.09-.634.75.75 0 0 1 1.44-.42q.149.505.15 1.054a3.75 3.75 0 0 1-4.804 3.601.751.751 0 0 1 .42-1.441q.302.09.634.09a2.25 2.25 0 0 0 2.25-2.25M10 3.91v3.03l1.545-1.545A15 15 0 0 1 10 3.91"/></svg>
