#filter dumbComments emptyLines substitution
# This Source Code Form is subject to the terms of the Mozilla Public
# License, v. 2.0. If a copy of the MPL was not distributed with this
# file, You can obtain one at http://mozilla.org/MPL/2.0/.
<svg xmlns="http://www.w3.org/2000/svg" width="18" height="18" fill="context-fill" fill-opacity="context-fill-opacity" viewBox="0 0 18 18"><path d="M10.25 4A2.75 2.75 0 0 1 13 6.75v9.5a.75.75 0 0 1-1.195.604L7.5 13.682l-4.305 3.172A.75.75 0 0 1 2 16.25v-9.5A2.75 2.75 0 0 1 4.75 4zm-5.5 1.5c-.69 0-1.25.56-1.25 1.25v8.016l3.555-2.62.103-.064a.75.75 0 0 1 .787.064l3.555 2.62V6.75c0-.69-.56-1.25-1.25-1.25z"/><path d="M13.25 1A2.75 2.75 0 0 1 16 3.75v9.5a.75.75 0 0 1-1.5 0v-9.5c0-.69-.56-1.25-1.25-1.25h-5.5c-.22 0-.426.057-.605.156a.75.75 0 0 1-.727-1.312C6.813 1.125 7.268 1 7.75 1z"/></svg>
