#filter dumbComments emptyLines substitution
# This Source Code Form is subject to the terms of the Mozilla Public
# License, v. 2.0. If a copy of the MPL was not distributed with this
# file, You can obtain one at http://mozilla.org/MPL/2.0/.
<svg xmlns="http://www.w3.org/2000/svg" width="18" height="18" fill="context-fill" fill-opacity="context-fill-opacity" viewBox="0 0 18 18"><path d="M13.5 3.75c0-.69-.56-1.25-1.25-1.25h-6.5c-.69 0-1.25.56-1.25 1.25v11.099l4.084-2.723.098-.055a.75.75 0 0 1 .734.055l4.084 2.723zm1.5 12.5a.75.75 0 0 1-1.166.624L9 13.651l-4.834 3.223A.75.75 0 0 1 3 16.25V3.75A2.75 2.75 0 0 1 5.75 1h6.5A2.75 2.75 0 0 1 15 3.75z"/></svg>
