#filter dumbComments emptyLines substitution
# This Source Code Form is subject to the terms of the Mozilla Public
# License, v. 2.0. If a copy of the MPL was not distributed with this
# file, You can obtain one at http://mozilla.org/MPL/2.0/.
<svg xmlns="http://www.w3.org/2000/svg" width="18" height="18" fill="context-fill" fill-opacity="context-fill-opacity" viewBox="0 0 18 18"><path d="M10.557 1c.73 0 1.383.453 1.638 1.136L12.52 3h1.42l1.53-1.53a.75.75 0 1 1 1.06 1.06l-14 14a.75.75 0 0 1-1.06-1.06l.864-.866A2.75 2.75 0 0 1 1 12.25v-6.5A2.75 2.75 0 0 1 3.75 3h1.73l.325-.864.052-.125A1.75 1.75 0 0 1 7.443 1zM7.443 2.5a.25.25 0 0 0-.196.096l-.038.066-.507 1.352A.75.75 0 0 1 6 4.5H3.75c-.69 0-1.25.56-1.25 1.25v6.5c0 .595.415 1.09.972 1.217l2.58-2.58a3.5 3.5 0 0 1 4.834-4.834L12.44 4.5H12a.75.75 0 0 1-.702-.486l-.507-1.352a.25.25 0 0 0-.234-.162zM9 7a2 2 0 0 0-1.843 2.781L9.78 7.158A2 2 0 0 0 9 7M16.057 4.612a.75.75 0 0 1 .886.582q.057.271.057.556v6.5A2.75 2.75 0 0 1 14.25 15H7.285a.75.75 0 0 1 0-1.5h6.965c.69 0 1.25-.56 1.25-1.25v-6.5q0-.131-.025-.251a.75.75 0 0 1 .582-.887"/></svg>
