#filter dumbComments emptyLines substitution
# This Source Code Form is subject to the terms of the Mozilla Public
# License, v. 2.0. If a copy of the MPL was not distributed with this
# file, You can obtain one at http://mozilla.org/MPL/2.0/.
<svg xmlns="http://www.w3.org/2000/svg" width="18" height="18" fill="context-fill" fill-opacity="context-fill-opacity" viewBox="0 0 18 18"><path d="M10.557 1c.726 0 1.385.456 1.64 1.136L12.52 3h1.73A2.75 2.75 0 0 1 17 5.75v6.5A2.75 2.75 0 0 1 14.25 15H3.751a2.75 2.75 0 0 1-2.75-2.75v-6.5A2.75 2.75 0 0 1 3.751 3h1.73l.324-.864A1.76 1.76 0 0 1 7.443 1zM9 6a3 3 0 1 0 0 6 3 3 0 0 0 0-6"/></svg>
