#filter dumbComments emptyLines substitution
# This Source Code Form is subject to the terms of the Mozilla Public
# License, v. 2.0. If a copy of the MPL was not distributed with this
# file, You can obtain one at http://mozilla.org/MPL/2.0/.
<svg xmlns="http://www.w3.org/2000/svg" width="18" height="18" fill="context-fill" fill-opacity="context-fill-opacity" viewBox="0 0 18 18"><path d="M6.25 6a1.25 1.25 0 1 1 0 2.5 1.25 1.25 0 0 1 0-2.5"/><path d="M13.25 2A2.75 2.75 0 0 1 16 4.75v8.5A2.75 2.75 0 0 1 13.25 16h-8.5a2.73 2.73 0 0 1-1.378-.373q-.019-.01-.037-.023A2.75 2.75 0 0 1 2 13.25v-8.5A2.75 2.75 0 0 1 4.75 2zm-1.116 7.444a1.25 1.25 0 0 0-1.768 0L5.312 14.5h7.938c.69 0 1.25-.56 1.25-1.25v-1.44zM4.75 3.5c-.69 0-1.25.56-1.25 1.25v8.5c0 .266.083.512.225.715l5.58-5.581a2.75 2.75 0 0 1 3.89 0L14.5 9.689V4.75c0-.69-.56-1.25-1.25-1.25z"/></svg>
