#filter dumbComments emptyLines substitution
# This Source Code Form is subject to the terms of the Mozilla Public
# License, v. 2.0. If a copy of the MPL was not distributed with this
# file, You can obtain one at http://mozilla.org/MPL/2.0/.
<svg xmlns="http://www.w3.org/2000/svg" width="18" height="18" fill="context-fill" fill-opacity="context-fill-opacity" viewBox="0 0 18 18"><path d="M6.25 6a1.25 1.25 0 1 1 0 2.5 1.25 1.25 0 0 1 0-2.5"/><path d="M15.47 1.47a.75.75 0 1 1 1.06 1.06l-14 14a.75.75 0 0 1-1.06-1.06l.879-.88a2.74 2.74 0 0 1-.35-1.34v-8.5A2.75 2.75 0 0 1 4.75 2h8.5c.487 0 .944.127 1.34.349zM4.75 3.5c-.69 0-1.25.56-1.25 1.25v8.5q0 .09.013.176l9.913-9.913a1 1 0 0 0-.176-.013zM15.25 6.25A.75.75 0 0 1 16 7v6.25A2.75 2.75 0 0 1 13.25 16H7a.75.75 0 0 1 0-1.5h6.25c.69 0 1.25-.56 1.25-1.25v-1.44l-2.366-2.366a.75.75 0 1 1 1.06-1.06L14.5 9.689V7a.75.75 0 0 1 .75-.75"/></svg>
