#filter dumbComments emptyLines substitution
# This Source Code Form is subject to the terms of the Mozilla Public
# License, v. 2.0. If a copy of the MPL was not distributed with this
# file, You can obtain one at http://mozilla.org/MPL/2.0/.
<?xml version="1.0" encoding="UTF-8" standalone="no"?>
<svg
   height="20px"
   viewBox="0 -960 960 960"
   width="20px"
   version="1.1"
   id="svg1"
   xmlns="http://www.w3.org/2000/svg"
   xmlns:svg="http://www.w3.org/2000/svg">
  <defs
     id="defs1" />
  <g
     stroke-linecap="round"
     stroke-width="1.5"
     fill="context-fill"
     stroke="none"
     stroke-linejoin="round"
     class="nc-icon-wrapper"
     id="g1">
    <path
       id="path1"
       d="m 480,-424 116,116 q 11,11 28,11 17,0 28,-11 11,-11 11,-28 0,-17 -11,-28 L 536,-480 652,-596 q 11,-11 11,-28 0,-17 -11,-28 -11,-11 -28,-11 -17,0 -28,11 L 480,-536 364,-652 q -11,-11 -28,-11 -17,0 -28,11 -11,11 -11,28 0,17 11,28 l 116,116 -116,116 q -11,11 -11,28 0,17 11,28 11,11 28,11 17,0 28,-11 z m 0,344 Q 397,-80 324,-111.5 251,-143 197,-197 143,-251 111.5,-324 80,-397 80,-480 q 0,-83 31.5,-156 31.5,-73 85.5,-127 54,-54 127,-85.5 73,-31.5 156,-31.5 83,0 156,31.5 73,31.5 127,85.5 54,54 85.5,127 31.5,73 31.5,156 0,83 -31.5,156 -31.5,73 -85.5,127 -54,54 -127,85.5 Q 563,-80 480,-80 Z" />
  </g>
</svg>
