#filter dumbComments emptyLines substitution
# This Source Code Form is subject to the terms of the Mozilla Public
# License, v. 2.0. If a copy of the MPL was not distributed with this
# file, You can obtain one at http://mozilla.org/MPL/2.0/.
<svg xmlns="http://www.w3.org/2000/svg" width="18" height="18" fill="context-fill" fill-opacity="context-fill-opacity" viewBox="0 0 18 18"><path d="M12.25 2.5a.75.75 0 1 0 0-1.5.75.75 0 0 0 0 1.5m2.5 2.5a.75.75 0 1 0 0-1.5.75.75 0 0 0 0 1.5m2.12 2.599a.746.746 0 0 0-1.015-.566 3 3 0 0 1-1.105.217 2.994 2.994 0 0 1-2.958-2.624.75.75 0 0 0-.818-.652L10.75 4a2.24 2.24 0 0 1-2.239-2.165.748.748 0 0 0-.877-.711A7.98 7.98 0 0 0 1 9c0 4.41 3.589 8 8 8s8-3.59 8-8c0-.451-.042-.91-.13-1.401M7 5.999a1 1 0 1 1 0 2.002A1 1 0 0 1 7 6m.25 6.5a1.25 1.25 0 1 1 0-2.5 1.25 1.25 0 0 1 0 2.5m4 0a.75.75 0 1 1 0-1.5.75.75 0 0 1 0 1.5"/></svg>
