#filter dumbComments emptyLines substitution
# This Source Code Form is subject to the terms of the Mozilla Public
# License, v. 2.0. If a copy of the MPL was not distributed with this
# file, You can obtain one at http://mozilla.org/MPL/2.0/.
<svg xmlns="http://www.w3.org/2000/svg" width="18" height="18" fill="context-fill" fill-opacity="context-fill-opacity" viewBox="0 0 18 18"><path d="M6.25 10c.966 0 1.75.784 1.75 1.75v2.5A1.75 1.75 0 0 1 6.25 16h-2.5A1.75 1.75 0 0 1 2 14.25v-2.5c0-.966.784-1.75 1.75-1.75zm-2.5 1.5a.25.25 0 0 0-.25.25v2.5c0 .138.112.25.25.25h2.5a.25.25 0 0 0 .25-.25v-2.5a.25.25 0 0 0-.25-.25zM13 9.5a.75.75 0 0 1 .75.75V12h1.75a.75.75 0 0 1 0 1.5h-1.75v1.75a.75.75 0 0 1-1.5 0V13.5H10.5a.75.75 0 0 1 0-1.5h1.75v-1.75A.75.75 0 0 1 13 9.5M6.25 2C7.216 2 8 2.784 8 3.75v2.5A1.75 1.75 0 0 1 6.25 8h-2.5A1.75 1.75 0 0 1 2 6.25v-2.5C2 2.784 2.784 2 3.75 2zm-2.5 1.5a.25.25 0 0 0-.25.25v2.5c0 .138.112.25.25.25h2.5a.25.25 0 0 0 .25-.25v-2.5a.25.25 0 0 0-.25-.25zM14.25 2c.966 0 1.75.784 1.75 1.75v2.5A1.75 1.75 0 0 1 14.25 8h-2.5A1.75 1.75 0 0 1 10 6.25v-2.5c0-.966.784-1.75 1.75-1.75zm-2.5 1.5a.25.25 0 0 0-.25.25v2.5c0 .138.112.25.25.25h2.5a.25.25 0 0 0 .25-.25v-2.5a.25.25 0 0 0-.25-.25z"/></svg>
