#filter dumbComments emptyLines substitution
# This Source Code Form is subject to the terms of the Mozilla Public
# License, v. 2.0. If a copy of the MPL was not distributed with this
# file, You can obtain one at http://mozilla.org/MPL/2.0/.
<svg xmlns="http://www.w3.org/2000/svg" width="18" height="18" fill="context-fill" fill-opacity="context-fill-opacity" viewBox="0 0 18 18"><path d="M10.2 15a.5.5 0 0 1 .49.602C10.517 16.425 9.822 17 9 17c-.82 0-1.516-.576-1.689-1.398a.5.5 0 0 1 .49-.602zM9 1a5.49 5.49 0 0 1 4.539 2.4l1.93-1.93a.75.75 0 1 1 1.061 1.06l-14 14a.75.75 0 0 1-1.06-1.06L2.94 14h-.69a.75.75 0 0 1 0-1.5c.69 0 1.25-.56 1.25-1.25V6.5A5.5 5.5 0 0 1 9 1m0 1.5a4 4 0 0 0-4 4v4.75c0 .284-.045.557-.126.815l7.58-7.58A4 4 0 0 0 9 2.5M13.75 7a.75.75 0 0 1 .75.75v3.5c0 .69.56 1.25 1.25 1.25a.75.75 0 1 1 0 1.5H8a.75.75 0 0 1 0-1.5h5.303A2.74 2.74 0 0 1 13 11.25v-3.5a.75.75 0 0 1 .75-.75"/></svg>
