#filter dumbComments emptyLines substitution
# This Source Code Form is subject to the terms of the Mozilla Public
# License, v. 2.0. If a copy of the MPL was not distributed with this
# file, You can obtain one at http://mozilla.org/MPL/2.0/.
<svg xmlns="http://www.w3.org/2000/svg" width="18" height="18" fill="context-fill" fill-opacity="context-fill-opacity" viewBox="0 0 18 18"><path d="M15.75 12.5c-.689 0-1.25-.561-1.25-1.25V6.5C14.5 3.467 12.033 1 9 1S3.5 3.467 3.5 6.5v4.75c0 .689-.561 1.25-1.25 1.25a.75.75 0 0 0 0 1.5h13.5a.75.75 0 0 0 0-1.5M10.2 15H7.801a.5.5 0 0 0-.489.603C7.485 16.425 8.18 17 9.001 17s1.516-.575 1.689-1.397a.5.5 0 0 0-.489-.603Z"/></svg>
