#filter dumbComments emptyLines substitution
# This Source Code Form is subject to the terms of the Mozilla Public
# License, v. 2.0. If a copy of the MPL was not distributed with this
# file, You can obtain one at http://mozilla.org/MPL/2.0/.
<svg xmlns="http://www.w3.org/2000/svg" width="18" height="18" fill="context-fill" fill-opacity="context-fill-opacity" viewBox="0 0 18 18"><path d="M11.47 11.47a.75.75 0 1 1 1.06 1.06l-1.72 1.72 1.72 1.72a.75.75 0 0 1-1.06 1.06l-2.25-2.25a.75.75 0 0 1 0-1.06zm3 0a.75.75 0 0 1 1.06 0l2.25 2.25a.75.75 0 0 1 0 1.06l-2.25 2.25a.75.75 0 0 1-1.06-1.06l1.72-1.72-1.72-1.72a.75.75 0 0 1 0-1.06"/><path d="M14.25 2C15.77 2 17 3.237 17 4.75v3a.75.75 0 0 1-.75.75H2.5v4.75c0 .687.56 1.25 1.25 1.25h3.172a.75.75 0 0 1 0 1.5H3.75A2.753 2.753 0 0 1 1 13.25v-8.5C1 3.237 2.23 2 3.75 2zM3.75 3.5c-.69 0-1.25.563-1.25 1.25V7h13V4.75c0-.687-.56-1.25-1.25-1.25z"/></svg>
