#filter dumbComments emptyLines substitution
# This Source Code Form is subject to the terms of the Mozilla Public
# License, v. 2.0. If a copy of the MPL was not distributed with this
# file, You can obtain one at http://mozilla.org/MPL/2.0/.
<svg xmlns="http://www.w3.org/2000/svg" width="18" height="18" fill="context-fill" fill-opacity="context-fill-opacity" viewBox="0 0 18 18"><path d="M5 13.5a1 1 0 1 0 0-2 1 1 0 0 0 0 2M9.5 9a1 1 0 1 0 0-2 1 1 0 0 0 0 2m-2.25 2.25a1 1 0 1 0 0-2 1 1 0 0 0 0 2M1 13.75v-7c.033-.705.349-1.488.805-1.945.456-.456 1.239-.773 1.945-.805h7c.706.033 1.488.349 1.945.805.456.456.773 1.239.805 1.945v7c-.033.705-.349 1.488-.805 1.945-.456.456-1.239.773-1.945.805h-7c-.706-.033-1.488-.349-1.945-.805-.456-.456-.773-1.239-.805-1.945m1.866.884c.267.267.485.399.884.366h7c.399.033.617-.099.884-.366s.399-.485.366-.884v-7c.033-.399-.099-.617-.366-.884s-.485-.399-.884-.366h-7c-.399-.033-.617.099-.884.366s-.399.485-.366.884v7c-.033.399.099.617.366.884m12.274-2.737a.75.75 0 0 0 .852-.632l.978-6.581c.071-.703-.127-1.524-.511-2.042-.384-.519-1.112-.946-1.805-1.082L7.73.53C7.191.469 6.557.562 6.11.783s-.897.66-1.167 1.092a.75.75 0 1 0 1.299.749c.129-.258.275-.37.531-.497.258-.127.437-.178.735-.114l6.924 1.03c.399.026.595.188.82.492s.323.538.232.928l-.978 6.581a.75.75 0 0 0 .632.852z"/></svg>
