#filter dumbComments emptyLines substitution
# This Source Code Form is subject to the terms of the Mozilla Public
# License, v. 2.0. If a copy of the MPL was not distributed with this
# file, You can obtain one at http://mozilla.org/MPL/2.0/.
<svg xmlns="http://www.w3.org/2000/svg" width="18" height="18" fill="context-fill" fill-opacity="context-fill-opacity" viewBox="0 0 18 18"><path d="M15.25 11a.75.75 0 0 1 .75.75v1.5A2.75 2.75 0 0 1 13.25 16h-8.5A2.75 2.75 0 0 1 2 13.25v-1.5a.75.75 0 0 1 1.5 0v1.5c0 .69.56 1.25 1.25 1.25h8.5c.69 0 1.25-.56 1.25-1.25v-1.5a.75.75 0 0 1 .75-.75"/><path d="M9 2a.75.75 0 0 1 .75.75v5.69l2.22-2.22a.75.75 0 1 1 1.06 1.06l-3.5 3.5a.8.8 0 0 1-.244.162q-.048.02-.098.03l-.04.012-.016.003a.8.8 0 0 1-.265 0l-.016-.003-.04-.011q-.05-.012-.098-.03-.044-.02-.083-.045a.8.8 0 0 1-.16-.118l-3.5-3.5a.75.75 0 1 1 1.06-1.06l2.22 2.22V2.75A.75.75 0 0 1 9 2"/></svg>
