#filter dumbComments emptyLines substitution
# This Source Code Form is subject to the terms of the Mozilla Public
# License, v. 2.0. If a copy of the MPL was not distributed with this
# file, You can obtain one at http://mozilla.org/MPL/2.0/.
<svg xmlns="http://www.w3.org/2000/svg" width="18" height="18" fill="context-fill" fill-opacity="context-fill-opacity" viewBox="0 0 18 18"><path d="M6.75 13a1.25 1.25 0 1 1 0 2.5 1.25 1.25 0 0 1 0-2.5m4.5 0a1.25 1.25 0 1 1 0 2.5 1.25 1.25 0 0 1 0-2.5m-4.5-5.25a1.25 1.25 0 1 1 0 2.5 1.25 1.25 0 0 1 0-2.5m4.5 0a1.25 1.25 0 1 1 0 2.5 1.25 1.25 0 0 1 0-2.5M6.75 2.5a1.25 1.25 0 1 1 0 2.5 1.25 1.25 0 0 1 0-2.5m4.5 0a1.25 1.25 0 1 1 0 2.5 1.25 1.25 0 0 1 0-2.5"/></svg>
