#filter dumbComments emptyLines substitution
# This Source Code Form is subject to the terms of the Mozilla Public
# License, v. 2.0. If a copy of the MPL was not distributed with this
# file, You can obtain one at http://mozilla.org/MPL/2.0/.
<svg xmlns="http://www.w3.org/2000/svg" width="18" height="18" fill="context-fill" fill-opacity="context-fill-opacity" viewBox="0 0 18 18"><path d="M14.25 4.5A2.75 2.75 0 0 1 17 7.25v7A2.75 2.75 0 0 1 14.25 17h-7a2.75 2.75 0 0 1-2.75-2.75v-7A2.75 2.75 0 0 1 7.25 4.5zm-7 1.5C6.56 6 6 6.56 6 7.25v7c0 .69.56 1.25 1.25 1.25h7c.69 0 1.25-.56 1.25-1.25v-7c0-.69-.56-1.25-1.25-1.25z"/><path d="M10.51 1.006a2.75 2.75 0 0 1 2.714 1.715.75.75 0 0 1-1.392.56 1.25 1.25 0 0 0-1.233-.777l-.108.011-6.924 1.03a1.25 1.25 0 0 0-1.053 1.42l1.03 6.923a.751.751 0 0 1-1.485.22L1.031 5.186A2.75 2.75 0 0 1 3.346 2.06l6.924-1.03z"/></svg>
