#filter dumbComments emptyLines substitution
# This Source Code Form is subject to the terms of the Mozilla Public
# License, v. 2.0. If a copy of the MPL was not distributed with this
# file, You can obtain one at http://mozilla.org/MPL/2.0/.
<svg xmlns="http://www.w3.org/2000/svg" width="18" height="18" fill="context-fill" fill-opacity="context-fill-opacity" viewBox="0 0 18 18"><path d="M1.75 6a.75.75 0 0 1 .75.75v6.5c0 .69.56 1.25 1.25 1.25h8.5a.75.75 0 0 1 0 1.5h-8.5A2.75 2.75 0 0 1 1 13.25v-6.5A.75.75 0 0 1 1.75 6"/><path d="M14.25 2A2.75 2.75 0 0 1 17 4.75v5.5A2.75 2.75 0 0 1 14.25 13h-7.5A2.75 2.75 0 0 1 4 10.25v-5.5A2.75 2.75 0 0 1 6.75 2zm-7.5 1.5c-.69 0-1.25.56-1.25 1.25v5.5c0 .69.56 1.25 1.25 1.25h7.5c.69 0 1.25-.56 1.25-1.25v-5.5c0-.69-.56-1.25-1.25-1.25z"/></svg>
