#filter dumbComments emptyLines substitution
# This Source Code Form is subject to the terms of the Mozilla Public
# License, v. 2.0. If a copy of the MPL was not distributed with this
# file, You can obtain one at http://mozilla.org/MPL/2.0/.
<svg xmlns="http://www.w3.org/2000/svg" width="18" height="18" fill="context-fill" fill-opacity="context-fill-opacity" viewBox="0 0 18 18"><path d="M13.468 2.472a.75.75 0 1 1 1.064 1.056l-6.77 6.823A2.999 2.999 0 1 1 4 13.25c0-.828.335-1.578.878-2.121l2.61-2.63H4a3 3 0 1 1 3-3c0 .548-.15 1.06-.405 1.5h2.38zM7 11.75a1.5 1.5 0 1 0 0 3 1.5 1.5 0 0 0 0-3M4 4a1.5 1.5 0 1 0 0 3 1.5 1.5 0 0 0 0-3"/><path d="M16.25 7a.75.75 0 0 1 0 1.5h-3.5a.75.75 0 0 1 0-1.5z"/></svg>
