#filter dumbComments emptyLines substitution
# This Source Code Form is subject to the terms of the Mozilla Public
# License, v. 2.0. If a copy of the MPL was not distributed with this
# file, You can obtain one at http://mozilla.org/MPL/2.0/.
<svg xmlns="http://www.w3.org/2000/svg" width="18" height="18" fill="context-fill" fill-opacity="context-fill-opacity" viewBox="0 0 18 18"><path d="M10.75.5c.882 0 1.61.652 1.73 1.5h.27a2.75 2.75 0 0 1 2.75 2.75v9.5A2.75 2.75 0 0 1 12.75 17h-7.5a2.75 2.75 0 0 1-2.75-2.75v-9.5A2.75 2.75 0 0 1 5.25 2h.27c.12-.848.848-1.5 1.73-1.5zm-5.5 3C4.56 3.5 4 4.06 4 4.75v9.5c0 .69.56 1.25 1.25 1.25h7.5c.69 0 1.25-.56 1.25-1.25v-9.5c0-.69-.56-1.25-1.25-1.25h-.27A1.75 1.75 0 0 1 10.75 5h-3.5a1.75 1.75 0 0 1-1.73-1.5zm2-1.5a.25.25 0 0 0-.25.25v1c0 .138.112.25.25.25h3.5a.25.25 0 0 0 .25-.25v-1a.25.25 0 0 0-.25-.25z"/></svg>
