#filter dumbComments emptyLines substitution
# This Source Code Form is subject to the terms of the Mozilla Public
# License, v. 2.0. If a copy of the MPL was not distributed with this
# file, You can obtain one at http://mozilla.org/MPL/2.0/.
<svg xmlns="http://www.w3.org/2000/svg" width="18" height="18" fill="context-fill" fill-opacity="context-fill-opacity" viewBox="0 0 18 18"><path d="M10.715 2a.75.75 0 1 1 0 1.5H3.75c-.69 0-1.25.559-1.25 1.25V7h2.75a.75.75 0 0 1 0 1.5H2.5v4.75c0 .69.56 1.25 1.25 1.25h10.5c.69 0 1.25-.56 1.25-1.25V8.284a.75.75 0 0 1 1.5 0v4.966A2.75 2.75 0 0 1 14.25 16H3.75A2.75 2.75 0 0 1 1 13.25v-8.5A2.75 2.75 0 0 1 3.75 2z"/><path d="M14.306 1.634a2.165 2.165 0 0 1 3.209 2.896l-.149.164-4.872 4.868a2.96 2.96 0 0 1-.857 2.012v.001c-.841.862-1.803 1.292-2.864 1.399-1.032.103-2.122-.105-3.239-.441a.75.75 0 0 1-.143-1.376c.42-.23.62-.443.731-.62.116-.185.176-.39.232-.693.112-.599.18-1.554 1.08-2.465l.113-.108a2.93 2.93 0 0 1 1.89-.767zm-3.737 6.801a1.45 1.45 0 0 0-2.068-.002c-.516.523-.538.966-.672 1.685-.066.356-.168.788-.437 1.217l-.06.086c.47.075.899.1 1.292.06.715-.071 1.348-.348 1.94-.954l.005-.006a1.48 1.48 0 0 0 0-2.086m5.737-5.74a.665.665 0 0 0-.94 0l-4.261 4.262q.282.175.528.42.238.241.409.517l4.264-4.26a.665.665 0 0 0 0-.94"/></svg>
