#filter dumbComments emptyLines substitution
# This Source Code Form is subject to the terms of the Mozilla Public
# License, v. 2.0. If a copy of the MPL was not distributed with this
# file, You can obtain one at http://mozilla.org/MPL/2.0/.
<svg xmlns="http://www.w3.org/2000/svg" width="18" height="18" fill="context-fill" fill-opacity="context-fill-opacity" viewBox="0 0 18 18"><path d="M4.488 6.501a.75.75 0 0 1 .788.71l.374 7.104A1.25 1.25 0 0 0 6.898 15.5h4.206a1.25 1.25 0 0 0 1.248-1.185l.374-7.104a.75.75 0 0 1 1.498.078l-.374 7.106A2.75 2.75 0 0 1 11.104 17H6.898a2.75 2.75 0 0 1-2.746-2.605l-.374-7.106a.75.75 0 0 1 .71-.788"/><path d="M7.333 8.001a.75.75 0 0 1 .791.707l.25 4.5a.75.75 0 0 1-1.498.084l-.25-4.5a.75.75 0 0 1 .707-.791m3.334 0a.75.75 0 0 1 .707.791l-.25 4.5a.75.75 0 0 1-1.498-.084l.25-4.5a.75.75 0 0 1 .791-.707M10.25 1c.966 0 1.75.784 1.75 1.75V4h3.25a.75.75 0 0 1 0 1.5H2.75a.75.75 0 0 1 0-1.5H6V2.75C6 1.784 6.784 1 7.75 1zm-2.5 1.5a.25.25 0 0 0-.25.25V4h3V2.75a.25.25 0 0 0-.25-.25z"/></svg>
