#filter dumbComments emptyLines substitution
# This Source Code Form is subject to the terms of the Mozilla Public
# License, v. 2.0. If a copy of the MPL was not distributed with this
# file, You can obtain one at http://mozilla.org/MPL/2.0/.
<svg xmlns="http://www.w3.org/2000/svg" width="18" height="18" fill="context-fill" fill-opacity="context-fill-opacity" viewBox="0 0 18 18"><path d="M8.997 3.584a4.577 4.577 0 0 1 6.503-.383h.001a4.4 4.4 0 0 1 1.34 2.163 4.62 4.62 0 0 1-.648 3.81.751.751 0 0 1-1.237-.848 3.12 3.12 0 0 0 .435-2.58 2.9 2.9 0 0 0-.88-1.418c-1.624-1.423-3.975-.85-4.837.926a.751.751 0 0 1-1.35 0A3.067 3.067 0 1 0 3.34 8.7l5.48 5.694a.25.25 0 0 0 .36 0l.55-.571a.75.75 0 0 1 1.08 1.04l-.55.569.002.001a1.75 1.75 0 0 1-2.523 0L2.259 9.74l-.003-.004A4.567 4.567 0 0 1 8.71 3.282l.167.167q.061.066.119.135"/><path d="M16.75 11a.75.75 0 0 1 0 1.5h-5a.75.75 0 0 1 0-1.5z"/></svg>
