#filter dumbComments emptyLines substitution
# This Source Code Form is subject to the terms of the Mozilla Public
# License, v. 2.0. If a copy of the MPL was not distributed with this
# file, You can obtain one at http://mozilla.org/MPL/2.0/.
<svg xmlns="http://www.w3.org/2000/svg" width="18" height="18" fill="context-fill" fill-opacity="context-fill-opacity" viewBox="0 0 18 18"><path d="M8.996 3.587a4.577 4.577 0 0 1 6.504-.385c.565.496 1 1.142 1.247 1.854l.094.31c.154.585.185 1.162.125 1.711a.75.75 0 0 1-1.491-.162c.041-.38.019-.772-.084-1.168l-.062-.2a2.9 2.9 0 0 0-.818-1.217c-1.625-1.423-3.975-.85-4.837.926a.75.75 0 0 1-1.35 0A3.066 3.066 0 1 0 3.34 8.702l5.48 5.694.04.033a.25.25 0 0 0 .32-.033v-.001l.55-.57a.75.75 0 1 1 1.08 1.04l-.548.57a1.75 1.75 0 0 1-2.523 0l-5.48-5.693-.003-.004A4.567 4.567 0 0 1 8.71 3.284l.166.167q.06.066.12.136"/><path d="M14.25 8.5a.75.75 0 0 1 .75.75V11h1.75a.75.75 0 0 1 0 1.5H15v1.75a.75.75 0 0 1-1.5 0V12.5h-1.75a.75.75 0 0 1 0-1.5h1.75V9.25a.75.75 0 0 1 .75-.75"/></svg>
