#filter dumbComments emptyLines substitution
# This Source Code Form is subject to the terms of the Mozilla Public
# License, v. 2.0. If a copy of the MPL was not distributed with this
# file, You can obtain one at http://mozilla.org/MPL/2.0/.
<svg xmlns="http://www.w3.org/2000/svg" width="18" height="18" fill="context-fill" fill-opacity="context-fill-opacity" viewBox="0 0 18 18"><path d="M8.22 5.97a.75.75 0 1 1 1.06 1.06L8.06 8.25h4.69a.75.75 0 0 1 0 1.5H8.06l1.22 1.22a.75.75 0 0 1-1.06 1.06l-2.5-2.5a.75.75 0 0 1-.165-.812l.004-.01q.018-.04.042-.078a.8.8 0 0 1 .119-.16z"/><path d="M14.25 2A2.75 2.75 0 0 1 17 4.75v8.5A2.75 2.75 0 0 1 14.25 16H3.75A2.75 2.75 0 0 1 1 13.25v-8.5A2.75 2.75 0 0 1 3.75 2zM3.75 3.5c-.69 0-1.25.56-1.25 1.25v8.5c0 .69.56 1.25 1.25 1.25H5.5v-2a.75.75 0 0 1 1.5 0v2h7.25c.69 0 1.25-.56 1.25-1.25v-8.5c0-.69-.56-1.25-1.25-1.25H7v2a.75.75 0 0 1-1.5 0v-2z"/></svg>
