#filter dumbComments emptyLines substitution
# This Source Code Form is subject to the terms of the Mozilla Public
# License, v. 2.0. If a copy of the MPL was not distributed with this
# file, You can obtain one at http://mozilla.org/MPL/2.0/.
<svg xmlns="http://www.w3.org/2000/svg" width="18" height="18" fill="context-fill" fill-opacity="context-fill-opacity" viewBox="0 0 18 18"><path d="M15 13.75v-1.265a2.5 2.5 0 1 1 0-4.972V6.25C15 5.56 14.44 5 13.75 5h-2.317a.75.75 0 0 1-.616-1.179A1 1 0 0 0 11 3.25a1 1 0 1 0-2 0c0 .211.066.405.182.57A.751.751 0 0 1 8.567 5H6.25C5.56 5 5 5.56 5 6.25v2.317a.75.75 0 0 1-1.179.616A.995.995 0 0 0 2.25 10a1 1 0 0 0 1 1c.21 0 .405-.066.57-.182a.751.751 0 0 1 1.18.615v2.317c0 .69.56 1.25 1.25 1.25h1.264a2.5 2.5 0 1 1 4.973 0h1.263c.69 0 1.25-.56 1.25-1.25m-2.5-10.5q0 .127-.014.25h1.264a2.75 2.75 0 0 1 2.75 2.75v2.317a.75.75 0 0 1-1.18.615A1 1 0 0 0 14.75 9a1 1 0 1 0 0 2 1 1 0 0 0 .571-.183.75.75 0 0 1 1.179.616v2.317a2.75 2.75 0 0 1-2.75 2.75h-2.317a.75.75 0 0 1-.615-1.18 1 1 0 0 0 .182-.57 1 1 0 1 0-2 0c0 .21.067.405.183.571a.75.75 0 0 1-.616 1.179H6.25a2.75 2.75 0 0 1-2.75-2.75v-1.265a2.5 2.5 0 1 1 0-4.972V6.25A2.75 2.75 0 0 1 6.25 3.5h1.264a2.5 2.5 0 1 1 4.986-.25"/></svg>
