#filter dumbComments emptyLines substitution
# This Source Code Form is subject to the terms of the Mozilla Public
# License, v. 2.0. If a copy of the MPL was not distributed with this
# file, You can obtain one at http://mozilla.org/MPL/2.0/.
<svg xmlns="http://www.w3.org/2000/svg" width="18" height="18" fill="context-fill" fill-opacity="context-fill-opacity" viewBox="0 0 18 18"><path d="M15.414 8.665a.75.75 0 0 0 1.086-.67V6.251a2.75 2.75 0 0 0-2.75-2.75h-1.775c.01-.083.025-.164.025-.25 0-1.103-.897-2-2-2s-2 .897-2 2c0 .086.015.167.025.25H6.25a2.75 2.75 0 0 0-2.75 2.75v1.775c-.083-.011-.164-.025-.25-.025-1.103 0-2 .897-2 2s.897 2 2 2c.086 0 .167-.015.25-.025v1.775a2.75 2.75 0 0 0 2.75 2.75h1.744c.26 0 .501-.135.638-.355a.75.75 0 0 0 .033-.73 1.5 1.5 0 0 1-.165-.665c0-.827.673-1.5 1.5-1.5s1.5.673 1.5 1.5q0 .333-.166.666a.75.75 0 0 0 .672 1.084h1.744a2.75 2.75 0 0 0 2.75-2.75v-1.744a.75.75 0 0 0-1.086-.67c-1.027.515-2.164-.285-2.164-1.335s1.134-1.85 2.164-1.335Z"/></svg>
