#filter dumbComments emptyLines substitution
# This Source Code Form is subject to the terms of the Mozilla Public
# License, v. 2.0. If a copy of the MPL was not distributed with this
# file, You can obtain one at http://mozilla.org/MPL/2.0/.
<svg xmlns="http://www.w3.org/2000/svg" width="18" height="18" fill="context-fill" fill-opacity="context-fill-opacity" viewBox="0 0 18 18"><path d="M9 1a8 8 0 1 1-6.264 12.975l-.113.823a.75.75 0 0 1-1.486-.206l.408-2.944.015-.077q.013-.05.033-.096.002-.01.006-.019a1 1 0 0 1 .058-.108l.01-.018a.75.75 0 0 1 .308-.26l.012-.007.018-.007a1 1 0 0 1 .1-.033l.012-.002q.04-.01.08-.013a.7.7 0 0 1 .144-.004q.024 0 .05.003l2.944.407a.75.75 0 0 1-.206 1.486l-1.478-.205A6.5 6.5 0 1 0 2.5 9 .75.75 0 0 1 1 9a8 8 0 0 1 8-8"/><path d="M9 4a.75.75 0 0 1 .75.75v3.857l2.927 2.027a.75.75 0 1 1-.854 1.232l-3.25-2.25A.75.75 0 0 1 8.25 9V4.75A.75.75 0 0 1 9 4"/></svg>
