#filter dumbComments emptyLines substitution
# This Source Code Form is subject to the terms of the Mozilla Public
# License, v. 2.0. If a copy of the MPL was not distributed with this
# file, You can obtain one at http://mozilla.org/MPL/2.0/.
<svg xmlns="http://www.w3.org/2000/svg" width="18" height="18" fill="context-fill" fill-opacity="context-fill-opacity" viewBox="0 0 18 18"><path d="M9.47 3.22a.75.75 0 0 1 1.06 0l5.25 5.25a.8.8 0 0 1 .118.16q.025.04.044.083a.75.75 0 0 1-.078.715 1 1 0 0 1-.084.102l-5.25 5.25a.75.75 0 1 1-1.06-1.06l3.97-3.97H2.75a.75.75 0 0 1 0-1.5h10.69L9.47 4.28a.75.75 0 0 1 0-1.06"/></svg>
