#filter dumbComments emptyLines substitution
# This Source Code Form is subject to the terms of the Mozilla Public
# License, v. 2.0. If a copy of the MPL was not distributed with this
# file, You can obtain one at http://mozilla.org/MPL/2.0/.
<svg xmlns="http://www.w3.org/2000/svg" width="18" height="18" fill="context-fill" fill-opacity="context-fill-opacity" viewBox="0 0 18 18"><path d="M6.72 10.22a.75.75 0 1 1 1.06 1.06L4.56 14.5h2.69a.75.75 0 0 1 0 1.5h-4.5a1 1 0 0 1-.133-.013l-.016-.003q-.02-.005-.04-.011-.05-.012-.098-.03-.044-.02-.083-.045a.8.8 0 0 1-.16-.118.75.75 0 0 1-.22-.53v-4.5a.75.75 0 0 1 1.5 0v2.69zM15.25 2q.068 0 .132.012l.016.003q.02.005.04.011.05.012.098.03a.74.74 0 0 1 .362.324q.025.04.044.083A.8.8 0 0 1 16 2.75v4.5a.75.75 0 0 1-1.5 0V4.56l-3.22 3.22a.75.75 0 0 1-1.06-1.06l3.22-3.22h-2.69a.75.75 0 0 1 0-1.5z"/></svg>
