#filter dumbComments emptyLines substitution
# This Source Code Form is subject to the terms of the Mozilla Public
# License, v. 2.0. If a copy of the MPL was not distributed with this
# file, You can obtain one at http://mozilla.org/MPL/2.0/.
<svg xmlns="http://www.w3.org/2000/svg" width="18" height="18" fill="context-fill" fill-opacity="context-fill-opacity" viewBox="0 0 18 18"><path d="M15.25 10a.75.75 0 0 1 0 1.5h-2.69l3.22 3.22a.75.75 0 0 1-1.06 1.06l-3.22-3.22v2.69a.75.75 0 0 1-1.5 0v-4.5a.8.8 0 0 1 .055-.282l.004-.01q.018-.04.042-.078a.7.7 0 0 1 .119-.16.7.7 0 0 1 .16-.12q.037-.023.078-.041l.01-.004q.046-.017.094-.029l.039-.011.016-.003A1 1 0 0 1 10.75 10zm-8-8a.75.75 0 0 1 .75.75v4.5a.75.75 0 0 1-.136.428 1 1 0 0 1-.084.102.8.8 0 0 1-.244.162q-.048.02-.098.03l-.04.012-.016.003A1 1 0 0 1 7.25 8h-4.5a.75.75 0 0 1 0-1.5h2.69L2.22 3.28a.75.75 0 1 1 1.06-1.06L6.5 5.44V2.75A.75.75 0 0 1 7.25 2"/></svg>
