#filter dumbComments emptyLines substitution
# This Source Code Form is subject to the terms of the Mozilla Public
# License, v. 2.0. If a copy of the MPL was not distributed with this
# file, You can obtain one at http://mozilla.org/MPL/2.0/.
<svg xmlns="http://www.w3.org/2000/svg" width="18" height="18" fill="context-fill" fill-opacity="context-fill-opacity" viewBox="0 0 18 18"><path d="M14.698 6.03a.75.75 0 0 1 .809.686q.021.269.022.55c0 .804-.258 1.67-.623 2.503-.369.843-.87 1.71-1.41 2.534-1.082 1.647-2.36 3.178-3.157 4.089a1.78 1.78 0 0 1-2.68 0 45 45 0 0 1-1.2-1.43.75.75 0 0 1 1.168-.94q.327.406.622.754l.539.626a.28.28 0 0 0 .423.001c.778-.887 2.004-2.36 3.03-3.924.513-.781.967-1.571 1.29-2.311.328-.75.498-1.394.498-1.901q0-.22-.017-.43a.75.75 0 0 1 .686-.808M9 1c1.76 0 3.596.716 4.877 2.062L15.47 1.47a.75.75 0 1 1 1.06 1.06l-14 14a.75.75 0 0 1-1.06-1.06l3.089-3.09c-.496-.75-.96-1.532-1.323-2.3-.44-.935-.764-1.915-.764-2.814C2.472 3.26 5.904 1 9 1m0 1.5c-2.487 0-5.028 1.792-5.028 4.766 0 .572.216 1.315.62 2.174.285.604.649 1.232 1.05 1.856l1.824-1.823a2.5 2.5 0 1 1 3.507-3.507l1.844-1.845c-.975-1.04-2.418-1.62-3.816-1.621m0 4a1 1 0 0 0-.453 1.892L9.89 7.048A1 1 0 0 0 9 6.5"/></svg>
