#filter dumbComments emptyLines substitution
# This Source Code Form is subject to the terms of the Mozilla Public
# License, v. 2.0. If a copy of the MPL was not distributed with this
# file, You can obtain one at http://mozilla.org/MPL/2.0/.
<svg xmlns="http://www.w3.org/2000/svg" width="18" height="18" fill="context-fill" fill-opacity="context-fill-opacity" viewBox="0 0 18 18"><path d="M8.791 11.567a1.001 1.001 0 0 1 0 2 1.001 1.001 0 0 1 0-2m.313-7.19c1.227 0 2.569.896 2.569 2.558 0 .587-.154 1.057-.427 1.441-.256.361-.588.602-.835.775-.53.373-.767.53-.846.979a.75.75 0 0 1-1.477-.26c.201-1.148 1.014-1.632 1.46-1.946.243-.17.381-.285.475-.416.076-.108.15-.268.15-.573 0-.678-.505-1.058-1.069-1.058-.635 0-1.216.295-1.475 1A.75.75 0 0 1 6.22 6.36c.517-1.408 1.748-1.983 2.883-1.983"/><path d="M9 1a8 8 0 1 1 0 16A8 8 0 0 1 9 1m0 1.5a6.5 6.5 0 1 0 0 13 6.5 6.5 0 0 0 0-13"/></svg>
