#filter dumbComments emptyLines substitution
# This Source Code Form is subject to the terms of the Mozilla Public
# License, v. 2.0. If a copy of the MPL was not distributed with this
# file, You can obtain one at http://mozilla.org/MPL/2.0/.
<svg xmlns="http://www.w3.org/2000/svg" width="18" height="18" fill="context-fill" fill-opacity="context-fill-opacity" viewBox="0 0 18 18"><path d="M9 1a8 8 0 1 1-8 8 .75.75 0 0 1 1.5 0 6.5 6.5 0 1 0 1.152-3.697L5.13 5.1a.75.75 0 0 1 .206 1.486l-2.944.406-.084.006H2.28q-.041-.001-.082-.007-.046-.004-.094-.015l-.017-.004-.082-.028-.044-.02-.006-.003a1 1 0 0 1-.102-.063l-.06-.048-.047-.044a1 1 0 0 1-.058-.073q-.016-.018-.028-.037a1 1 0 0 1-.047-.087l-.02-.043a.8.8 0 0 1-.048-.173l-.408-2.946a.751.751 0 0 1 1.486-.205l.113.822A7.99 7.99 0 0 1 9 1"/><path d="M9 4a.75.75 0 0 1 .75.75v3.857l2.927 2.027a.75.75 0 1 1-.854 1.232l-3.25-2.25A.75.75 0 0 1 8.25 9V4.75A.75.75 0 0 1 9 4"/></svg>
