#filter dumbComments emptyLines substitution
# This Source Code Form is subject to the terms of the Mozilla Public
# License, v. 2.0. If a copy of the MPL was not distributed with this
# file, You can obtain one at http://mozilla.org/MPL/2.0/.
<svg xmlns="http://www.w3.org/2000/svg" width="18" height="18" fill="context-fill" fill-opacity="context-fill-opacity" viewBox="0 0 18 18"><path d="M7.941 1.362a1.75 1.75 0 0 1 2.118 0l5.25 3.99v.002c.434.33.69.844.691 1.392v7.505a2.75 2.75 0 0 1-2.75 2.75h-2.5a.75.75 0 0 1-.75-.75v-4a.25.25 0 0 0-.25-.25h-1.5a.25.25 0 0 0-.25.25v4a.75.75 0 0 1-.75.75h-2.5A2.75 2.75 0 0 1 2 14.251V6.747c0-.546.255-1.063.691-1.394zm1.21 1.195a.25.25 0 0 0-.301 0h-.001l-5.25 3.99a.25.25 0 0 0-.099.2v7.504c0 .69.56 1.25 1.25 1.25H6.5v-3.25c0-.966.784-1.75 1.75-1.75h1.5c.966 0 1.75.784 1.75 1.75v3.25h1.75c.69 0 1.25-.56 1.25-1.25V6.746a.25.25 0 0 0-.099-.2z"/></svg>
