#filter dumbComments emptyLines substitution
# This Source Code Form is subject to the terms of the Mozilla Public
# License, v. 2.0. If a copy of the MPL was not distributed with this
# file, You can obtain one at http://mozilla.org/MPL/2.0/.
<svg xmlns="http://www.w3.org/2000/svg" width="18" height="18" fill="context-fill" fill-opacity="context-fill-opacity" viewBox="0 0 18 18"><path d="M5 9.5H3.5v4.75c0 .138.112.25.25.25h1a.25.25 0 0 0 .25-.25zm6.872.265 1.425 4.558a.25.25 0 0 0 .313.164l1.432-.446a.25.25 0 0 0 .164-.314l-1.425-4.559zm.8-4.15a.25.25 0 0 0-.314-.165l-1.431.447a.25.25 0 0 0-.164.313l.662 2.122 1.909-.597zM6.5 14.25c0 .138.112.25.25.25h2a.25.25 0 0 0 .25-.25V8H6.5zM9 3.75a.25.25 0 0 0-.25-.25h-2a.25.25 0 0 0-.25.25V6.5H9zM3.5 8H5V5.75a.25.25 0 0 0-.25-.25h-1a.25.25 0 0 0-.25.25zm7-3.542 1.412-.44a1.75 1.75 0 0 1 2.191 1.149l.88 2.814.008.023.006.023 1.64 5.253a1.75 1.75 0 0 1-1.148 2.193l-1.431.447a1.75 1.75 0 0 1-2.193-1.15L10.5 10.4v3.85A1.75 1.75 0 0 1 8.75 16h-2a1.74 1.74 0 0 1-1-.315 1.74 1.74 0 0 1-1 .315h-1A1.75 1.75 0 0 1 2 14.25v-8.5C2 4.784 2.784 4 3.75 4h1q.127.001.25.02v-.27C5 2.784 5.784 2 6.75 2h2c.966 0 1.75.784 1.75 1.75z"/></svg>
