#filter dumbComments emptyLines substitution
# This Source Code Form is subject to the terms of the Mozilla Public
# License, v. 2.0. If a copy of the MPL was not distributed with this
# file, You can obtain one at http://mozilla.org/MPL/2.0/.
<svg xmlns="http://www.w3.org/2000/svg" width="18" height="18" fill="context-fill" fill-opacity="context-fill-opacity" viewBox="0 0 18 18"><path d="M8.176 6.15a.75.75 0 0 1 .647 1.353 2.8 2.8 0 0 0-.765.543l-.01.011a2.786 2.786 0 0 0 0 3.94l2.174 2.174a2.785 2.785 0 0 0 3.94 0l.01-.01a2.785 2.785 0 0 0 0-3.939l-.931-.932a.75.75 0 0 1 1.06-1.06l.93.931a4.285 4.285 0 0 1 0 6.061l-.009.01a4.285 4.285 0 0 1-6.06 0l-2.175-2.175a4.285 4.285 0 0 1 0-6.06l.009-.01.133-.13a4.3 4.3 0 0 1 1.047-.707"/><path d="M2.778 2.768a4.285 4.285 0 0 1 6.06 0l2.175 2.175a4.285 4.285 0 0 1 0 6.06l-.01.01a4.3 4.3 0 0 1-1.18.837.75.75 0 0 1-.646-1.354c.276-.131.535-.312.765-.543l.01-.01a2.785 2.785 0 0 0 0-3.94L7.779 3.828a2.786 2.786 0 0 0-3.94 0l-.01.01a2.785 2.785 0 0 0 0 3.94l.931.93a.75.75 0 0 1-1.06 1.06l-.931-.93a4.285 4.285 0 0 1 0-6.06z"/></svg>
