#filter dumbComments emptyLines substitution
# This Source Code Form is subject to the terms of the Mozilla Public
# License, v. 2.0. If a copy of the MPL was not distributed with this
# file, You can obtain one at http://mozilla.org/MPL/2.0/.
<svg xmlns="http://www.w3.org/2000/svg" width="18" height="18" fill="context-fill" fill-opacity="context-fill-opacity" viewBox="0 0 18 18"><path d="M11.75 2.5a2.75 2.75 0 0 1 2.75 2.75v7.5a2.75 2.75 0 0 1-2.75 2.75h-5.5a2.75 2.75 0 0 1-2.75-2.75v-7.5A2.75 2.75 0 0 1 6.25 2.5zM6.25 4C5.56 4 5 4.56 5 5.25v7.5c0 .69.56 1.25 1.25 1.25h5.5c.69 0 1.25-.56 1.25-1.25v-7.5C13 4.56 12.44 4 11.75 4zM1.25 3a.75.75 0 0 1 .75.75v10.5a.75.75 0 0 1-1.5 0V3.75A.75.75 0 0 1 1.25 3m15.5 0a.75.75 0 0 1 .75.75v10.5a.75.75 0 0 1-1.5 0V3.75a.75.75 0 0 1 .75-.75"/></svg>
