#filter dumbComments emptyLines substitution
# This Source Code Form is subject to the terms of the Mozilla Public
# License, v. 2.0. If a copy of the MPL was not distributed with this
# file, You can obtain one at http://mozilla.org/MPL/2.0/.
<svg xmlns="http://www.w3.org/2000/svg" width="18" height="18" fill="context-fill" fill-opacity="context-fill-opacity" viewBox="0 0 18 18"><path d="M14.5 15.337a1.25 1.25 0 0 1-1.924 1.052L8.221 13.6 14.5 7.545zM12.577 1.61A1.248 1.248 0 0 1 14.5 2.663v.715l1.729-1.667a.75.75 0 1 1 1.041 1.08L3.27 16.29a.75.75 0 0 1-1.04-1.08L4.522 13H3.75c-1.24 0-2.25-1.01-2.25-2.25v-3.5C1.5 6.009 2.51 5 3.75 5h3.531z"/></svg>
