#filter dumbComments emptyLines substitution
# This Source Code Form is subject to the terms of the Mozilla Public
# License, v. 2.0. If a copy of the MPL was not distributed with this
# file, You can obtain one at http://mozilla.org/MPL/2.0/.
<svg xmlns="http://www.w3.org/2000/svg" width="18" height="18" fill="context-fill" fill-opacity="context-fill-opacity" viewBox="0 0 18 18"><path d="M12.667 7.59 4.413 3.021a1.61 1.61 0 0 0-1.618.022A1.6 1.6 0 0 0 2 4.43v9.14c0 .575.297 1.094.795 1.387.258.152.542.23.828.23.271 0 .542-.07.791-.208l8.254-4.57c.514-.285.833-.825.833-1.41s-.319-1.125-.833-1.41zM15.25 2a.75.75 0 0 0-.75.75v12.5a.75.75 0 0 0 1.5 0V2.75a.75.75 0 0 0-.75-.75"/></svg>
