#filter dumbComments emptyLines substitution
# This Source Code Form is subject to the terms of the Mozilla Public
# License, v. 2.0. If a copy of the MPL was not distributed with this
# file, You can obtain one at http://mozilla.org/MPL/2.0/.
<svg xmlns="http://www.w3.org/2000/svg" width="18" height="18" fill="context-fill" fill-opacity="context-fill-opacity" viewBox="0 0 18 18"><path d="M15.25 7.25A.75.75 0 0 1 16 8a7 7 0 0 1-6.25 6.959v1.291a.75.75 0 0 1-1.5 0v-1.291A7 7 0 0 1 2 8a.75.75 0 0 1 1.5 0 5.5 5.5 0 1 0 11 0 .75.75 0 0 1 .75-.75"/><path d="M9 1a4 4 0 0 1 4 4v3a4 4 0 0 1-8 0V5a4 4 0 0 1 4-4m0 1.5A2.5 2.5 0 0 0 6.5 5v3a2.5 2.5 0 0 0 5 0V5A2.5 2.5 0 0 0 9 2.5"/></svg>
