#filter dumbComments emptyLines substitution
# This Source Code Form is subject to the terms of the Mozilla Public
# License, v. 2.0. If a copy of the MPL was not distributed with this
# file, You can obtain one at http://mozilla.org/MPL/2.0/.
<svg xmlns="http://www.w3.org/2000/svg" width="18" height="18" fill="context-fill" fill-opacity="context-fill-opacity" viewBox="0 0 18 18"><path d="M15.25 7.25A.75.75 0 0 1 16 8a7 7 0 0 1-6.25 6.959v1.291a.75.75 0 0 1-1.5 0v-1.293a7 7 0 0 1-.96-.168.75.75 0 0 1 .365-1.454q.646.164 1.345.165A5.5 5.5 0 0 0 14.5 8a.75.75 0 0 1 .75-.75"/><path d="M9 1a4 4 0 0 1 3.886 3.053L15.47 1.47a.75.75 0 1 1 1.06 1.06L13 6.06V8a4 4 0 0 1-5.605 3.664L2.53 16.53a.75.75 0 0 1-1.06-1.06l2.55-2.552A6.98 6.98 0 0 1 2 8a.75.75 0 0 1 1.5 0 5.48 5.48 0 0 0 1.581 3.857l1.06-1.06A4 4 0 0 1 5 8V5a4 4 0 0 1 4-4m-.404 9.464c.131.021.266.036.404.036A2.5 2.5 0 0 0 11.5 8v-.44zM9 2.5A2.5 2.5 0 0 0 6.5 5v3c0 .675.269 1.286.703 1.735L11.5 5.44V5A2.5 2.5 0 0 0 9 2.5"/></svg>
