#filter dumbComments emptyLines substitution
# This Source Code Form is subject to the terms of the Mozilla Public
# License, v. 2.0. If a copy of the MPL was not distributed with this
# file, You can obtain one at http://mozilla.org/MPL/2.0/.
<svg xmlns="http://www.w3.org/2000/svg" width="18" height="18" fill="context-fill" fill-opacity="context-fill-opacity" viewBox="0 0 18 18"><path d="M9 12c2.206 0 4-1.794 4-4V5c0-2.206-1.794-4-4-4S5 2.794 5 5v3c0 2.206 1.794 4 4 4"/><path d="M15.25 7.25a.75.75 0 0 0-.75.75c0 3.033-2.467 5.5-5.5 5.5A5.506 5.506 0 0 1 3.5 8 .75.75 0 0 0 2 8c0 3.606 2.742 6.583 6.25 6.958v1.292a.75.75 0 0 0 1.5 0v-1.292C13.258 14.582 16 11.606 16 8a.75.75 0 0 0-.75-.75"/></svg>
