#filter dumbComments emptyLines substitution
# This Source Code Form is subject to the terms of the Mozilla Public
# License, v. 2.0. If a copy of the MPL was not distributed with this
# file, You can obtain one at http://mozilla.org/MPL/2.0/.
<svg xmlns="http://www.w3.org/2000/svg" width="18" height="18" fill="context-fill" fill-opacity="context-fill-opacity" viewBox="0 0 18 18"><path d="M4.25 4.5a.75.75 0 1 1 0 1.5.75.75 0 0 1 0-1.5m9 0a.75.75 0 0 1 0 1.5h-2a.75.75 0 0 1 0-1.5z"/><path d="M14.25 2A2.75 2.75 0 0 1 17 4.75v8.5A2.75 2.75 0 0 1 14.25 16H3.75A2.75 2.75 0 0 1 1 13.25v-8.5A2.75 2.75 0 0 1 3.75 2zM2.5 13.25c0 .69.56 1.25 1.25 1.25h10.5c.69 0 1.25-.56 1.25-1.25V8.5h-1.75v3.75a.75.75 0 0 1-1.5 0V8.5h-2.5v3.75a.75.75 0 0 1-1.5 0V8.5h-2.5v3.75a.75.75 0 0 1-1.5 0V8.5H2.5zM3.75 3.5c-.69 0-1.25.56-1.25 1.25V7h13V4.75c0-.69-.56-1.25-1.25-1.25z"/></svg>
