#filter dumbComments emptyLines substitution
# This Source Code Form is subject to the terms of the Mozilla Public
# License, v. 2.0. If a copy of the MPL was not distributed with this
# file, You can obtain one at http://mozilla.org/MPL/2.0/.
<svg xmlns="http://www.w3.org/2000/svg" width="18" height="18" fill="context-fill" fill-opacity="context-fill-opacity" viewBox="0 0 18 18"><path d="m9.026 8.001.019.001a1 1 0 0 1 .114.016q.038.009.074.022a.75.75 0 0 1 .297.18l2.5 2.5a.75.75 0 0 1-1.06 1.06l-1.22-1.22v6.69a.75.75 0 0 1-1.5 0v-6.69l-1.22 1.22a.75.75 0 1 1-1.06-1.06l2.5-2.5.056-.052q.016-.012.033-.022a.8.8 0 0 1 .255-.12q.04-.011.08-.018l.011-.002A1 1 0 0 1 9 8z"/><path d="M14.25 2A2.75 2.75 0 0 1 17 4.75v7.5A2.75 2.75 0 0 1 14.25 15H12a.75.75 0 0 1 0-1.5h2.25c.69 0 1.25-.56 1.25-1.25V7h-13v5.25c0 .69.56 1.25 1.25 1.25H6A.75.75 0 0 1 6 15H3.75A2.75 2.75 0 0 1 1 12.25v-7.5A2.75 2.75 0 0 1 3.75 2zM3.75 3.5c-.69 0-1.25.56-1.25 1.25v.75h13v-.75c0-.69-.56-1.25-1.25-1.25z"/></svg>
