#filter dumbComments emptyLines substitution
# This Source Code Form is subject to the terms of the Mozilla Public
# License, v. 2.0. If a copy of the MPL was not distributed with this
# file, You can obtain one at http://mozilla.org/MPL/2.0/.
<svg xmlns="http://www.w3.org/2000/svg" width="18" height="18" fill="context-fill" fill-opacity="context-fill-opacity" viewBox="0 0 18 18"><path d="M5 12.25a.75.75 0 1 1 0 1.5.75.75 0 0 1 0-1.5"/><path d="M6.25 2C7.216 2 8 2.784 8 3.75v.5a.75.75 0 0 1-1.5 0v-.5a.25.25 0 0 0-.25-.25h-2.5a.25.25 0 0 0-.25.25v6.507l5.92-5.92a1.75 1.75 0 0 1 2.475 0l1.766 1.767a1.75 1.75 0 0 1 .001 2.476l-.2.2a.751.751 0 0 1-1.06-1.061l.2-.2a.25.25 0 0 0 0-.353l-1.768-1.769a.25.25 0 0 0-.353 0L5.878 10h8.372c.966 0 1.75.784 1.75 1.75v2.5A1.75 1.75 0 0 1 14.25 16H5a3 3 0 0 1-3-3V3.75C2 2.784 2.784 2 3.75 2zM5 11.5a1.5 1.5 0 0 0 0 3h2.5v-3zm7.5 3h1.75a.25.25 0 0 0 .25-.25v-2.5a.25.25 0 0 0-.25-.25H12.5zm-3.5 0h2v-3H9z"/></svg>
