#filter dumbComments emptyLines substitution
# This Source Code Form is subject to the terms of the Mozilla Public
# License, v. 2.0. If a copy of the MPL was not distributed with this
# file, You can obtain one at http://mozilla.org/MPL/2.0/.
<svg xmlns="http://www.w3.org/2000/svg" width="18" height="18" fill="context-fill" fill-opacity="context-fill-opacity" viewBox="0 0 18 18"><path d="M5.5 11.5a1 1 0 1 1 0 2 1 1 0 0 1 0-2"/><path d="M15.777 1.327a.75.75 0 0 1 .72.747l.006 3.03a.75.75 0 0 1-.236.548l-1.753 1.645A.75.75 0 0 1 14 7.5h-1.5V9a.75.75 0 0 1-.212.522l-1.622 1.668c.049.254.084.525.084.81A4.75 4.75 0 1 1 6 7.25c.27 0 .526.03.768.074l5.602-5.601.105-.087a.75.75 0 0 1 .379-.131l2.846-.178zM13.23 2.983 7.54 8.675a.75.75 0 0 1-.72.195A3.3 3.3 0 0 0 6 8.75 3.25 3.25 0 1 0 9.25 12c0-.274-.048-.55-.128-.846a.75.75 0 0 1 .187-.717L11 8.695V6.75a.75.75 0 0 1 .75-.75h1.953l1.299-1.219-.004-1.907z"/></svg>
