#filter dumbComments emptyLines substitution
# This Source Code Form is subject to the terms of the Mozilla Public
# License, v. 2.0. If a copy of the MPL was not distributed with this
# file, You can obtain one at http://mozilla.org/MPL/2.0/.
<svg xmlns="http://www.w3.org/2000/svg" width="18" height="18" fill="context-fill" fill-opacity="context-fill-opacity" viewBox="0 0 18 18"><path d="M13.25 2h-8.5A2.75 2.75 0 0 0 2 4.75v8.5A2.75 2.75 0 0 0 4.75 16h8.5A2.75 2.75 0 0 0 16 13.25v-8.5A2.75 2.75 0 0 0 13.25 2m-8 4H6.5V5A.75.75 0 0 1 8 5v3.5a.75.75 0 0 1-1.5 0v-1H5.25a.75.75 0 0 1 0-1.5m3 6h-3a.75.75 0 0 1 0-1.5h3a.75.75 0 0 1 0 1.5m4.5 0H11.5v1a.75.75 0 0 1-1.5 0V9.5a.75.75 0 0 1 1.5 0v1h1.25a.75.75 0 0 1 0 1.5m0-4.5h-3a.75.75 0 0 1 0-1.5h3a.75.75 0 0 1 0 1.5"/></svg>
