#filter dumbComments emptyLines substitution
# This Source Code Form is subject to the terms of the Mozilla Public
# License, v. 2.0. If a copy of the MPL was not distributed with this
# file, You can obtain one at http://mozilla.org/MPL/2.0/.
<svg xmlns="http://www.w3.org/2000/svg" width="18" height="18" fill="context-fill" fill-opacity="context-fill-opacity" viewBox="0 0 18 18"><path d="M10.75 8.75a.75.75 0 0 1 .75.75v1h1.25a.75.75 0 0 1 0 1.5H11.5v1a.75.75 0 0 1-1.5 0V9.5a.75.75 0 0 1 .75-.75m-2.5 1.75a.75.75 0 0 1 0 1.5h-3a.75.75 0 0 1 0-1.5zm-1-6.25A.75.75 0 0 1 8 5v3.5a.75.75 0 0 1-1.5 0v-1H5.25a.75.75 0 0 1 0-1.5H6.5V5a.75.75 0 0 1 .75-.75M12.75 6a.75.75 0 0 1 0 1.5h-3a.75.75 0 0 1 0-1.5z"/><path d="M13.25 2A2.75 2.75 0 0 1 16 4.75v8.5A2.75 2.75 0 0 1 13.25 16h-8.5A2.75 2.75 0 0 1 2 13.25v-8.5A2.75 2.75 0 0 1 4.75 2zm-8.5 1.5c-.69 0-1.25.56-1.25 1.25v8.5c0 .69.56 1.25 1.25 1.25h8.5c.69 0 1.25-.56 1.25-1.25v-8.5c0-.69-.56-1.25-1.25-1.25z"/></svg>
