#filter dumbComments emptyLines substitution
# This Source Code Form is subject to the terms of the Mozilla Public
# License, v. 2.0. If a copy of the MPL was not distributed with this
# file, You can obtain one at http://mozilla.org/MPL/2.0/.
<svg xmlns="http://www.w3.org/2000/svg" width="18" height="18" fill="context-fill" fill-opacity="context-fill-opacity" viewBox="0 0 18 18"><path d="M14 10a4 4 0 1 1 0 8 4 4 0 0 1 0-8m-1.155 6.215a2.5 2.5 0 0 0 3.37-3.37zM14 11.5a2.5 2.5 0 0 0-2.216 3.654l3.37-3.37A2.5 2.5 0 0 0 14 11.5"/><path d="M6.201 2a2.75 2.75 0 0 1 2.044.91l.1.118.379.472h5.026a2.75 2.75 0 0 1 2.75 2.75v2.266a.75.75 0 0 1-.75.75l-.008-.001a.75.75 0 0 1-.76-.661A1.243 1.243 0 0 0 13.75 7.5h-9.5C3.56 7.5 3 8.06 3 8.75v4.5c0 .69.56 1.25 1.25 1.25h4.14a.75.75 0 0 1 0 1.5H4.25a2.75 2.75 0 0 1-2.75-2.75v-8.5A2.75 2.75 0 0 1 4.25 2zM4.25 3.5C3.56 3.5 3 4.06 3 4.75v1.552C3.375 6.11 3.8 6 4.25 6h9.5c.452 0 .876.11 1.25.303V6.25C15 5.56 14.44 5 13.75 5H8.364a.75.75 0 0 1-.585-.281l-.603-.752A1.25 1.25 0 0 0 6.2 3.5z"/></svg>
