#filter dumbComments emptyLines substitution
# This Source Code Form is subject to the terms of the Mozilla Public
# License, v. 2.0. If a copy of the MPL was not distributed with this
# file, You can obtain one at http://mozilla.org/MPL/2.0/.
<svg xmlns="http://www.w3.org/2000/svg" width="18" height="18" fill="context-fill" fill-opacity="context-fill-opacity" viewBox="0 0 18 18"><path d="m16.871 10.502-2.204-6.621A2.75 2.75 0 0 0 12.058 2H5.942a2.75 2.75 0 0 0-2.609 1.881l-2.204 6.621S1 10.941 1 11.25v2a2.25 2.25 0 0 0 2.25 2.25h11.5A2.25 2.25 0 0 0 17 13.25v-2c0-.385-.129-.748-.129-.748M15.5 13.25a.75.75 0 0 1-.75.75H3.25a.75.75 0 0 1-.75-.75v-2a.75.75 0 0 1 .75-.75h11.5a.75.75 0 0 1 .75.75z"/><path d="M7 11.5H4.25a.75.75 0 0 0 0 1.5H7a.75.75 0 0 0 0-1.5"/></svg>
