#filter dumbComments emptyLines substitution
# This Source Code Form is subject to the terms of the Mozilla Public
# License, v. 2.0. If a copy of the MPL was not distributed with this
# file, You can obtain one at http://mozilla.org/MPL/2.0/.
<svg xmlns="http://www.w3.org/2000/svg" width="18" height="18" fill="context-fill" fill-opacity="context-fill-opacity" viewBox="0 0 18 18"><path d="M7 11.5A.75.75 0 0 1 7 13H4.25a.75.75 0 0 1 0-1.5z"/><path d="M12.059 2a2.75 2.75 0 0 1 2.609 1.88l2.204 6.622.007.026c.077.227.121.47.121.722v2a2.25 2.25 0 0 1-2.25 2.25H3.25A2.25 2.25 0 0 1 1 13.25v-2c0-.257.045-.504.125-.734l.004-.014 2.204-6.621A2.75 2.75 0 0 1 5.943 2zM3.25 10.5a.75.75 0 0 0-.75.75v2c0 .414.336.75.75.75h11.5a.75.75 0 0 0 .75-.75v-2a.75.75 0 0 0-.75-.75zm2.692-7a1.25 1.25 0 0 0-1.185.854L3.209 9.002 3.25 9h11.5l.042.002-1.547-4.648A1.25 1.25 0 0 0 12.06 3.5z"/></svg>
