#filter dumbComments emptyLines substitution
# This Source Code Form is subject to the terms of the Mozilla Public
# License, v. 2.0. If a copy of the MPL was not distributed with this
# file, You can obtain one at http://mozilla.org/MPL/2.0/.
<svg xmlns="http://www.w3.org/2000/svg" width="18" height="18" fill="context-fill" fill-opacity="context-fill-opacity" viewBox="0 0 18 18"><path d="M9.34 2.502a2.75 2.75 0 0 1 3.89 0l2.268 2.268a2.75 2.75 0 0 1 0 3.889l-2.803 2.8c-.03.46-.1.992-.25 1.567A8.3 8.3 0 0 1 11 15.962a.75.75 0 0 1-1.16.122L6.41 12.65l-2.799 2.8a.75.75 0 0 1-1.06-1.06l2.797-2.8-3.431-3.43a.75.75 0 0 1 .07-1.123 8.35 8.35 0 0 1 2.987-1.48l.262-.065a8 8 0 0 1 1.303-.188zm2.829 1.061a1.25 1.25 0 0 0-1.768 0L7.396 6.568a.75.75 0 0 1-.51.22c-.43.011-.953.066-1.53.217v.001a6.8 6.8 0 0 0-1.74.73l6.646 6.647a6.8 6.8 0 0 0 .732-1.739l.097-.423c.08-.41.113-.786.122-1.108l.016-.142a.75.75 0 0 1 .202-.368l3.005-3.005a1.25 1.25 0 0 0 0-1.767z"/></svg>
