#filter dumbComments emptyLines substitution
# This Source Code Form is subject to the terms of the Mozilla Public
# License, v. 2.0. If a copy of the MPL was not distributed with this
# file, You can obtain one at http://mozilla.org/MPL/2.0/.
<svg xmlns="http://www.w3.org/2000/svg" width="18" height="18" fill="context-fill" fill-opacity="context-fill-opacity" viewBox="0 0 18 18"><path d="M14 10a4 4 0 1 1 0 8 4 4 0 0 1 0-8m-1.155 6.215a2.5 2.5 0 0 0 3.37-3.37zM14 11.5a2.5 2.5 0 0 0-2.216 3.654l3.37-3.37A2.5 2.5 0 0 0 14 11.5"/><path d="M14.25 2A2.75 2.75 0 0 1 17 4.75v3.959a.75.75 0 0 1-1.5 0V8.5h-13v4.75c0 .69.56 1.25 1.25 1.25h4.62a.75.75 0 0 1 0 1.5H3.75A2.75 2.75 0 0 1 1 13.25v-8.5A2.75 2.75 0 0 1 3.75 2zM3.75 3.5c-.69 0-1.25.56-1.25 1.25V7h13V4.75c0-.69-.56-1.25-1.25-1.25z"/></svg>
