#filter dumbComments emptyLines substitution
# This Source Code Form is subject to the terms of the Mozilla Public
# License, v. 2.0. If a copy of the MPL was not distributed with this
# file, You can obtain one at http://mozilla.org/MPL/2.0/.
<svg xmlns="http://www.w3.org/2000/svg" width="18" height="18" fill="context-fill" fill-opacity="context-fill-opacity" viewBox="0 0 18 18"><path d="M11.25 1c.966 0 1.75.784 1.75 1.75V4.5h.75a2.75 2.75 0 0 1 2.75 2.75v4A2.75 2.75 0 0 1 13.75 14H13v1.25A1.75 1.75 0 0 1 11.25 17h-4.5A1.75 1.75 0 0 1 5 15.25V14h-.75a2.75 2.75 0 0 1-2.75-2.75v-4A2.75 2.75 0 0 1 4.25 4.5H5V2.75C5 1.784 5.784 1 6.75 1zM6.5 15.25c0 .138.112.25.25.25h4.5a.25.25 0 0 0 .25-.25V10.5h-5zM4.25 6C3.56 6 3 6.56 3 7.25v4c0 .69.56 1.25 1.25 1.25H5V9.75A.75.75 0 0 1 5.75 9h6.5a.75.75 0 0 1 .75.75v2.75h.75c.69 0 1.25-.56 1.25-1.25v-4C15 6.56 14.44 6 13.75 6zm2.5-3.5a.25.25 0 0 0-.25.25V4.5h5V2.75a.25.25 0 0 0-.25-.25z"/></svg>
