#filter dumbComments emptyLines substitution
# This Source Code Form is subject to the terms of the Mozilla Public
# License, v. 2.0. If a copy of the MPL was not distributed with this
# file, You can obtain one at http://mozilla.org/MPL/2.0/.
<svg xmlns="http://www.w3.org/2000/svg" width="18" height="18" fill="context-fill" fill-opacity="context-fill-opacity" viewBox="0 0 18 18"><path d="M12.75 10.5a3.25 3.25 0 1 1-3.19 2.632 1.25 1.25 0 0 0-1.119 0q.059.3.059.618a3.25 3.25 0 1 1-3.25-3.25 3.24 3.24 0 0 1 2.571 1.268 2.74 2.74 0 0 1 2.357 0A3.24 3.24 0 0 1 12.75 10.5M5.25 12a1.75 1.75 0 1 0 0 3.5 1.75 1.75 0 0 0 0-3.5m7.5 0a1.75 1.75 0 1 0 0 3.5 1.75 1.75 0 0 0 0-3.5m-.867-11c.87 0 1.61.64 1.732 1.503l.34 2.393L16.78 7.72A.75.75 0 0 1 16.25 9H1.75a.751.751 0 0 1-.53-1.28l2.823-2.824.342-2.393A1.75 1.75 0 0 1 6.117 1zM3.56 7.5h10.88L12.94 6H5.06zm2.557-5a.25.25 0 0 0-.237.17l-.011.045L5.614 4.5h6.772l-.255-1.785a.25.25 0 0 0-.248-.215z"/></svg>
