#filter dumbComments emptyLines substitution
# This Source Code Form is subject to the terms of the Mozilla Public
# License, v. 2.0. If a copy of the MPL was not distributed with this
# file, You can obtain one at http://mozilla.org/MPL/2.0/.
<svg xmlns="http://www.w3.org/2000/svg" width="18" height="18" fill="context-fill" fill-opacity="context-fill-opacity" viewBox="0 0 18 18"><path d="M9 10.5A.75.75 0 0 1 9 12H5.75a.75.75 0 0 1 0-1.5zm3.25-3a.75.75 0 0 1 0 1.5h-6.5a.75.75 0 0 1 0-1.5zm0-3a.75.75 0 0 1 0 1.5h-6.5a.75.75 0 0 1 0-1.5z"/><path d="M13.25 1A2.75 2.75 0 0 1 16 3.75v10.5A2.75 2.75 0 0 1 13.25 17h-8.5A2.75 2.75 0 0 1 2 14.25V3.75A2.75 2.75 0 0 1 4.75 1zm-8.5 1.5c-.69 0-1.25.56-1.25 1.25v10.5c0 .69.56 1.25 1.25 1.25h8.5c.69 0 1.25-.56 1.25-1.25V3.75c0-.69-.56-1.25-1.25-1.25z"/></svg>
