#filter dumbComments emptyLines substitution
# This Source Code Form is subject to the terms of the Mozilla Public
# License, v. 2.0. If a copy of the MPL was not distributed with this
# file, You can obtain one at http://mozilla.org/MPL/2.0/.
<svg xmlns="http://www.w3.org/2000/svg" width="18" height="18" fill="context-fill" fill-opacity="context-fill-opacity" viewBox="0 0 18 18"><path d="M5.75 2.5a.75.75 0 0 1 0 1.5h-1.5C3.56 4 3 4.56 3 5.25v7.5c0 .69.56 1.25 1.25 1.25h9.5c.69 0 1.25-.56 1.25-1.25v-7.5C15 4.56 14.44 4 13.75 4h-1.5a.75.75 0 0 1 0-1.5h1.5a2.75 2.75 0 0 1 2.75 2.75v7.5a2.75 2.75 0 0 1-2.75 2.75h-9.5a2.75 2.75 0 0 1-2.75-2.75v-7.5A2.75 2.75 0 0 1 4.25 2.5z"/><path d="M9 2.5a.75.75 0 0 1 .75.75v6.69l1.72-1.72a.75.75 0 1 1 1.06 1.06l-3 3a.8.8 0 0 1-.244.162q-.048.02-.098.03l-.04.012-.016.003a.8.8 0 0 1-.265 0l-.016-.003-.04-.011q-.05-.012-.098-.03-.044-.02-.083-.045a.8.8 0 0 1-.16-.118l-3-3a.75.75 0 1 1 1.06-1.06l1.72 1.72V3.25A.75.75 0 0 1 9 2.5"/></svg>
