#filter dumbComments emptyLines substitution
# This Source Code Form is subject to the terms of the Mozilla Public
# License, v. 2.0. If a copy of the MPL was not distributed with this
# file, You can obtain one at http://mozilla.org/MPL/2.0/.
<svg xmlns="http://www.w3.org/2000/svg" width="18" height="18" fill="context-fill" fill-opacity="context-fill-opacity" viewBox="0 0 18 18"><path d="M16.25 4.25A.75.75 0 0 1 17 5v6.25A2.75 2.75 0 0 1 14.25 14h-4.5v1.024c.761.05 1.696.186 2.726.51a.751.751 0 0 1-.452 1.432 10.1 10.1 0 0 0-6.048-.001.75.75 0 1 1-.452-1.43c.668-.21 1.599-.434 2.726-.508V14H8a.75.75 0 1 1 0-1.5h6.25c.69 0 1.25-.56 1.25-1.25V5a.75.75 0 0 1 .75-.75m-.78-2.78a.75.75 0 1 1 1.06 1.06l-14 14a.75.75 0 1 1-1.06-1.06l1.566-1.568A2.75 2.75 0 0 1 1 11.25V10a.75.75 0 0 1 1.5 0v1.25c0 .69.56 1.25 1.25 1.25h.69l9-9H9A.75.75 0 1 1 9 2h5.94z"/><path d="M6.25 2a.75.75 0 0 1 0 1.5H3.56l3.47 3.47a.75.75 0 0 1-1.06 1.06L2.5 4.56v2.69a.75.75 0 1 1-1.5 0v-4.5A.75.75 0 0 1 1.75 2z"/></svg>
