#filter dumbComments emptyLines substitution
# This Source Code Form is subject to the terms of the Mozilla Public
# License, v. 2.0. If a copy of the MPL was not distributed with this
# file, You can obtain one at http://mozilla.org/MPL/2.0/.
<svg xmlns="http://www.w3.org/2000/svg" width="18" height="18" fill="context-fill" fill-opacity="context-fill-opacity" viewBox="0 0 18 18"><path d="M9 6.5a3.5 3.5 0 1 1 0 7 3.5 3.5 0 0 1 0-7M9 8a2 2 0 1 0 0 4 2 2 0 0 0 0-4"/><path d="M10.557 2c.73 0 1.383.453 1.638 1.136L12.52 4h1.73A2.75 2.75 0 0 1 17 6.75v6.5A2.75 2.75 0 0 1 14.25 16H3.75A2.75 2.75 0 0 1 1 13.25v-6.5A2.75 2.75 0 0 1 3.75 4h1.73l.325-.864.052-.125A1.75 1.75 0 0 1 7.443 2zM7.443 3.5a.25.25 0 0 0-.196.096l-.038.066-.507 1.352A.75.75 0 0 1 6 5.5H3.75c-.69 0-1.25.56-1.25 1.25v6.5c0 .69.56 1.25 1.25 1.25h10.5c.69 0 1.25-.56 1.25-1.25v-6.5c0-.69-.56-1.25-1.25-1.25H12a.75.75 0 0 1-.702-.486l-.507-1.352a.25.25 0 0 0-.234-.162z"/></svg>
