#filter dumbComments emptyLines substitution
# This Source Code Form is subject to the terms of the Mozilla Public
# License, v. 2.0. If a copy of the MPL was not distributed with this
# file, You can obtain one at http://mozilla.org/MPL/2.0/.
<svg xmlns="http://www.w3.org/2000/svg" width="18" height="18" fill="context-fill" fill-opacity="context-fill-opacity" viewBox="0 0 18 18"><path d="M14.25 2A2.75 2.75 0 0 1 17 4.75v6.5A2.75 2.75 0 0 1 14.25 14h-4.5v1.024c.761.05 1.696.186 2.726.51a.751.751 0 0 1-.452 1.432 10.1 10.1 0 0 0-6.048-.001.75.75 0 1 1-.452-1.43 11.6 11.6 0 0 1 2.726-.508V14h-4.5A2.75 2.75 0 0 1 1 11.25V10a.75.75 0 0 1 1.5 0v1.25c0 .69.56 1.25 1.25 1.25h10.5c.69 0 1.25-.56 1.25-1.25v-6.5c0-.69-.56-1.25-1.25-1.25H9A.75.75 0 0 1 9 2z"/><path d="M6.25 2a.75.75 0 0 1 0 1.5H3.56l4.22 4.22a.75.75 0 0 1-1.06 1.06L2.5 4.56v2.69a.75.75 0 0 1-1.5 0v-4.5A.75.75 0 0 1 1.75 2z"/></svg>
