#filter dumbComments emptyLines substitution
# This Source Code Form is subject to the terms of the Mozilla Public
# License, v. 2.0. If a copy of the MPL was not distributed with this
# file, You can obtain one at http://mozilla.org/MPL/2.0/.
<svg xmlns="http://www.w3.org/2000/svg" width="18" height="18" fill="context-fill" fill-opacity="context-fill-opacity" viewBox="0 0 18 18"><path d="M10.336 1c.464 0 .91.185 1.237.513l3.914 3.914c.329.328.513.773.513 1.237v9.586a.8.8 0 0 1-.058.286q-.016.035-.035.067a.8.8 0 0 1-.127.177.7.7 0 0 1-.16.118q-.041.025-.084.044-.048.02-.098.03-.02.008-.04.012l-.016.003a1 1 0 0 1-.132.013 1 1 0 0 1-.134-.014l-.014-.002q-.03-.007-.057-.016-.042-.01-.082-.026a1 1 0 0 1-.143-.08 1 1 0 0 1-.1-.082l-3.834-3.834a3.5 3.5 0 1 1 1.06-1.06L14.5 14.44V6.664a.25.25 0 0 0-.073-.177l-3.914-3.914a.25.25 0 0 0-.177-.073H4.75c-.69 0-1.25.56-1.25 1.25v10.5c0 .69.56 1.25 1.25 1.25h6.5a.75.75 0 0 1 0 1.5h-6.5A2.75 2.75 0 0 1 2 14.25V3.75A2.75 2.75 0 0 1 4.75 1zM9 8a2 2 0 1 0 0 4 2 2 0 0 0 0-4"/></svg>
