#filter dumbComments emptyLines substitution
# This Source Code Form is subject to the terms of the Mozilla Public
# License, v. 2.0. If a copy of the MPL was not distributed with this
# file, You can obtain one at http://mozilla.org/MPL/2.0/.
<svg xmlns="http://www.w3.org/2000/svg" width="18" height="18" fill="context-fill" fill-opacity="context-fill-opacity" viewBox="0 0 18 18"><path d="M6.988 3.12c.894-1.548 3.13-1.548 4.024 0l5.424 9.395c.894 1.549-.222 3.485-2.01 3.485H3.575c-1.789 0-2.905-1.937-2.012-3.485zm2.725.75a.824.824 0 0 0-1.426 0l-5.425 9.395a.823.823 0 0 0 .713 1.235h10.85a.823.823 0 0 0 .713-1.235z"/><path d="M8.25 10V6.5a.75.75 0 0 1 1.5 0V10a.75.75 0 1 1-1.5 0M9 13.569a1.001 1.001 0 0 1 0-2 1.001 1.001 0 0 1 0 2"/></svg>
