#filter dumbComments emptyLines substitution
# This Source Code Form is subject to the terms of the Mozilla Public
# License, v. 2.0. If a copy of the MPL was not distributed with this
# file, You can obtain one at http://mozilla.org/MPL/2.0/.
<svg xmlns="http://www.w3.org/2000/svg" width="18" height="18" fill="context-fill" fill-opacity="context-fill-opacity" viewBox="0 0 18 18"><path d="M9 1a4 4 0 0 1 4 4v2.513a2.75 2.75 0 0 1 2.5 2.737v4A2.75 2.75 0 0 1 12.75 17h-7.5a2.75 2.75 0 0 1-2.75-2.75v-4A2.75 2.75 0 0 1 5 7.513V5a4 4 0 0 1 4-4M5.25 9C4.56 9 4 9.56 4 10.25v4c0 .69.56 1.25 1.25 1.25h7.5c.69 0 1.25-.56 1.25-1.25v-4C14 9.56 13.44 9 12.75 9zM9 2.5A2.5 2.5 0 0 0 6.5 5v2.5h5V5A2.5 2.5 0 0 0 9 2.5"/></svg>
