#filter dumbComments emptyLines substitution
# This Source Code Form is subject to the terms of the Mozilla Public
# License, v. 2.0. If a copy of the MPL was not distributed with this
# file, You can obtain one at http://mozilla.org/MPL/2.0/.
<svg xmlns="http://www.w3.org/2000/svg" width="18" height="18" fill="context-fill" fill-opacity="context-fill-opacity" viewBox="0 0 18 18"><path d="M8.75 12.75v-1a.75.75 0 0 1 1.5 0v1a.75.75 0 0 1-1.5 0M6.5 8.25V5a2.5 2.5 0 0 0-5 0v1.25a.75.75 0 0 1-1.5 0V5a4 4 0 0 1 8 0v3.25a.75.75 0 0 1-1.5 0"/><path d="M14.5 10.25A1.25 1.25 0 0 0 13.25 9h-7.5a1.25 1.25 0 0 0-1.25 1.25v4a1.25 1.25 0 0 0 1.25 1.25h7.5a1.25 1.25 0 0 0 1.25-1.25zm1.5 4A2.75 2.75 0 0 1 13.25 17h-7.5A2.75 2.75 0 0 1 3 14.25v-4A2.75 2.75 0 0 1 5.75 7.5h7.5A2.75 2.75 0 0 1 16 10.25z"/></svg>
