#filter dumbComments emptyLines substitution
# This Source Code Form is subject to the terms of the Mozilla Public
# License, v. 2.0. If a copy of the MPL was not distributed with this
# file, You can obtain one at http://mozilla.org/MPL/2.0/.
<svg xmlns="http://www.w3.org/2000/svg" width="18" height="18" fill="context-fill" fill-opacity="context-fill-opacity" viewBox="0 0 18 18"><path d="M5.25 2a.75.75 0 0 1 0 1.5h-1.5c-.69 0-1.25.56-1.25 1.25v6.5c0 .69.56 1.25 1.25 1.25h10.5c.69 0 1.25-.56 1.25-1.25v-6.5c0-.69-.56-1.25-1.25-1.25h-1.5a.75.75 0 0 1 0-1.5h1.5A2.75 2.75 0 0 1 17 4.75v6.5A2.75 2.75 0 0 1 14.25 14h-4.5v1.024c.761.05 1.696.186 2.726.51a.751.751 0 0 1-.452 1.432 10.1 10.1 0 0 0-6.048-.001.75.75 0 1 1-.452-1.43 11.6 11.6 0 0 1 2.726-.508V14h-4.5A2.75 2.75 0 0 1 1 11.25v-6.5A2.75 2.75 0 0 1 3.75 2z"/><path d="m9.026 2.001.019.001a1 1 0 0 1 .114.016q.038.009.074.022a.75.75 0 0 1 .297.18l2.75 2.75a.75.75 0 0 1-1.06 1.06L9.75 4.56v5.69a.75.75 0 0 1-1.5 0V4.56L6.78 6.03a.75.75 0 1 1-1.06-1.06l2.75-2.75.056-.052q.016-.012.033-.022a.8.8 0 0 1 .255-.12q.04-.011.08-.018l.011-.002A1 1 0 0 1 9 2z"/></svg>
