#filter dumbComments emptyLines substitution
# This Source Code Form is subject to the terms of the Mozilla Public
# License, v. 2.0. If a copy of the MPL was not distributed with this
# file, You can obtain one at http://mozilla.org/MPL/2.0/.
<svg xmlns="http://www.w3.org/2000/svg" width="18" height="18" fill="context-fill" fill-opacity="context-fill-opacity" viewBox="0 0 18 18"><path d="M9 6a3 3 0 1 1 0 6 3 3 0 0 1 0-6m0 1.5a1.5 1.5 0 1 0 0 3 1.5 1.5 0 0 0 0-3"/><path d="M5.175 1.969a2.36 2.36 0 0 1 2.716.25l.495.425a6.4 6.4 0 0 1 1.227-.001l.495-.422a2.36 2.36 0 0 1 2.551-.338l.165.087.352.203h-.001a2.36 2.36 0 0 1 1.14 2.476l-.12.644c.117.16.233.33.338.512.105.181.194.366.275.547l.617.218.017.008a2.36 2.36 0 0 1 1.556 2.219V9.2a2.36 2.36 0 0 1-1.576 2.227l-.614.216q-.255.559-.614 1.061l.12.643a2.36 2.36 0 0 1-1.14 2.477l-.35.202a2.36 2.36 0 0 1-2.57-.134l-.147-.116-.497-.425q-.615.059-1.225 0l-.494.424a2.36 2.36 0 0 1-2.716.251l-.35-.204a2.36 2.36 0 0 1-1.141-2.476l.12-.645a6 6 0 0 1-.336-.51 6 6 0 0 1-.278-.548l-.615-.217A2.36 2.36 0 0 1 1 9.2v-.404c0-1 .631-1.894 1.575-2.227l.613-.216a6.4 6.4 0 0 1 .615-1.063l-.12-.64a2.36 2.36 0 0 1 1.14-2.477zm6.898 1.299a.86.86 0 0 0-.989.092l-.745.637a.75.75 0 0 1-.602.172 4.9 4.9 0 0 0-1.477 0 .75.75 0 0 1-.6-.172l-.745-.638a.86.86 0 0 0-.99-.091l-.35.203h-.002a.86.86 0 0 0-.415.903l.18.965a.75.75 0 0 1-.151.606c-.313.39-.561.82-.74 1.278A.75.75 0 0 1 4 7.657l-.925.326a.86.86 0 0 0-.574.813V9.2c0 .365.23.69.574.812l.93.328.075.031a.75.75 0 0 1 .373.403c.093.239.194.46.314.667.121.209.263.408.422.609.136.17.19.39.15.604l-.18.968a.86.86 0 0 0 .305.826l.111.076.352.205a.86.86 0 0 0 .989-.092l.745-.638.065-.05a.75.75 0 0 1 .537-.122c.482.075.98.075 1.475 0l.08-.008a.75.75 0 0 1 .52.18l.746.639.11.079a.86.86 0 0 0 .88.012l.35-.203.112-.077a.86.86 0 0 0 .305-.826l-.18-.966a.75.75 0 0 1 .152-.606c.312-.39.56-.82.737-1.276l.033-.074a.75.75 0 0 1 .417-.362l.925-.326a.86.86 0 0 0 .574-.812v-.404a.86.86 0 0 0-.574-.813l-.008-.003-.92-.325a.75.75 0 0 1-.448-.433 5 5 0 0 0-.315-.67 5 5 0 0 0-.42-.605.75.75 0 0 1-.153-.604l.18-.969a.86.86 0 0 0-.304-.826l-.111-.077z"/></svg>
