#filter dumbComments emptyLines substitution
# This Source Code Form is subject to the terms of the Mozilla Public
# License, v. 2.0. If a copy of the MPL was not distributed with this
# file, You can obtain one at http://mozilla.org/MPL/2.0/.
<svg xmlns="http://www.w3.org/2000/svg" width="18" height="18" fill="context-fill" fill-opacity="context-fill-opacity" viewBox="0 0 18 18"><path d="m15.676 6.934-.907-.32a6 6 0 0 0-.358-.739c-.131-.227-.296-.425-.451-.631l.184-.983a1.99 1.99 0 0 0-.96-2.084l-.352-.203a1.99 1.99 0 0 0-2.284.211l-.729.624a6.2 6.2 0 0 0-1.623-.01l-.728-.623a1.99 1.99 0 0 0-2.285-.211l-.351.203a1.99 1.99 0 0 0-.959 2.084l.174.933c-.326.423-.575.9-.784 1.399l-.939.331A1.99 1.99 0 0 0 1 8.788v.405c0 .841.532 1.593 1.324 1.873l.906.32c.104.251.219.499.358.738.131.228.296.426.452.632l-.184.983a1.99 1.99 0 0 0 .96 2.084l.352.203a1.985 1.985 0 0 0 2.284-.211l.724-.62q.417.056.833.057.4 0 .794-.052l.729.624a1.99 1.99 0 0 0 2.285.211l.351-.203a1.99 1.99 0 0 0 .959-2.084l-.174-.934c.326-.423.574-.899.783-1.397l.94-.332A1.99 1.99 0 0 0 17 9.212v-.405c0-.841-.532-1.593-1.324-1.873M9 12a3 3 0 1 1 0-6 3 3 0 0 1 0 6"/></svg>
