#filter dumbComments emptyLines substitution
# This Source Code Form is subject to the terms of the Mozilla Public
# License, v. 2.0. If a copy of the MPL was not distributed with this
# file, You can obtain one at http://mozilla.org/MPL/2.0/.
<svg xmlns="http://www.w3.org/2000/svg" width="18" height="18" fill="context-fill" fill-opacity="context-fill-opacity" viewBox="0 0 18 18"><path d="M14.25 2A2.75 2.75 0 0 1 17 4.75v8.5A2.75 2.75 0 0 1 14.25 16H3.75A2.75 2.75 0 0 1 1 13.25v-8.5A2.75 2.75 0 0 1 3.75 2zM12.5 14.5h1.75c.69 0 1.25-.56 1.25-1.25v-8.5c0-.69-.56-1.25-1.25-1.25H12.5zm-8.75-11c-.69 0-1.25.56-1.25 1.25v8.5c0 .69.56 1.25 1.25 1.25H11v-11z"/></svg>
