#filter dumbComments emptyLines substitution
# This Source Code Form is subject to the terms of the Mozilla Public
# License, v. 2.0. If a copy of the MPL was not distributed with this
# file, You can obtain one at http://mozilla.org/MPL/2.0/.
<svg xmlns="http://www.w3.org/2000/svg" width="18" height="18" fill="context-fill" fill-opacity="context-fill-opacity" viewBox="0 0 18 18"><path d="M3.025 5.623a.501.501 0 0 0 .95 0l.421-1.263 1.263-.421a.5.5 0 0 0 0-.948L4.396 2.57l-.421-1.263c-.137-.408-.812-.408-.949 0L2.605 2.57l-1.263.421a.5.5 0 0 0 0 .948l1.263.421zm13.5 3.18L11.99 7.01l-1.793-4.535c-.227-.572-1.168-.572-1.395 0L7.009 7.01 2.474 8.803a.75.75 0 0 0 0 1.394l4.535 1.793 1.793 4.535a.75.75 0 0 0 1.394 0l1.793-4.535 4.535-1.793a.751.751 0 0 0 .001-1.394"/></svg>
