#filter dumbComments emptyLines substitution
# This Source Code Form is subject to the terms of the Mozilla Public
# License, v. 2.0. If a copy of the MPL was not distributed with this
# file, You can obtain one at http://mozilla.org/MPL/2.0/.
<svg xmlns="http://www.w3.org/2000/svg" width="18" height="18" fill="context-fill" fill-opacity="context-fill-opacity" viewBox="0 0 18 18"><path d="M15.655 11.376a.75.75 0 0 1 1.19.914l-3.398 4.417a.75.75 0 0 1-1.124.073l-1.61-1.61a.75.75 0 0 1 1.061-1.06l1.005 1.005zm-6.14-9.367a.75.75 0 0 1 .585.47l3.49 9a.75.75 0 0 1-.699 1.021h-7.27l-1.172 3.021a.75.75 0 0 1-1.399-.543l4.85-12.5.049-.103A.75.75 0 0 1 8.599 2H9.4zM6.203 11h5.593L8.999 3.79z"/></svg>
