#filter dumbComments emptyLines substitution
# This Source Code Form is subject to the terms of the Mozilla Public
# License, v. 2.0. If a copy of the MPL was not distributed with this
# file, You can obtain one at http://mozilla.org/MPL/2.0/.
<?xml version="1.0" encoding="UTF-8" standalone="no"?>
<svg
   x="0px"
   y="0px"
   width="18px"
   height="18px"
   viewBox="0 0 18 18"
   version="1.1"
   id="svg7"
   xmlns="http://www.w3.org/2000/svg"
   xmlns:svg="http://www.w3.org/2000/svg">
  <defs
     id="defs7" />
  <g
     fill="context-fill"
     fill-opacity="context-fill-opacity"
     class="nc-icon-wrapper"
     id="g3" />
  <g
     stroke-linecap="round"
     stroke-width="1.5"
     fill="none"
     stroke="context-fill"
     stroke-opacity="context-fill-opacity"
     stroke-linejoin="round"
     class="nc-icon-wrapper"
     id="g7">
    <path
       id="path7"
       d="m 6.25,9.75 2,2 m -1.74799,-9 H 4.75 c -1.105,0 -2,0.896 -2,2 V 9.00732 M 8.992,15.25 h 4.258 c 1.105,0 2,-0.896 2,-2 V 10.616 M 7.95696,8.04302 2.04396,13.956 c -0.39,0.39 -0.39,1.023 0,1.414 l 0.586,0.585 c 0.39,0.391 1.024,0.391 1.414,0 l 5.913,-5.912 c 0.39004,-0.39108 0.39004,-1.02402 0,-1.41502 l -0.586,-0.58496 c -0.39,-0.3911 -1.023,-0.3911 -1.414,0 z M 15.25,2.5 C 15.664,2.5 16,2.164 16,1.75 16,1.336 15.664,1 15.25,1 14.836,1 14.5,1.336 14.5,1.75 c 0,0.414 0.336,0.75 0.75,0.75 z M 16.659,5.98996 15.396,5.56894 14.975,4.30606 c -0.137,-0.408 -0.812,-0.408 -0.949,0 l -0.421,1.26288 -1.263,0.42102 c -0.204,0.068 -0.342,0.259 -0.342,0.474 0,0.215 0.138,0.406 0.342,0.474 l 1.263,0.42102 0.421,1.263 c 0.068,0.204 0.26,0.34198 0.475,0.34198 0.215,0 0.406,-0.13798 0.475,-0.34198 l 0.421,-1.263 1.263,-0.42102 c 0.204,-0.068 0.342,-0.259 0.342,-0.474 0,-0.215 -0.139,-0.406 -0.343,-0.474 z M 11.744,2.49201 10.798,2.17701 10.482,1.22999 c -0.102,-0.306002 -0.609,-0.306002 -0.711,0 L 9.45499,2.17701 8.509,2.49201 c -0.153,0.051 -0.25699,0.19402 -0.25699,0.35602 0,0.162 0.10399,0.30496 0.25699,0.35596 l 0.94599,0.315 0.31601,0.94702 c 0.051,0.153 0.19401,0.25598 0.355,0.25598 0.161,0 0.305,-0.10398 0.355,-0.25598 l 0.316,-0.94702 0.946,-0.315 C 11.896,3.15299 12,3.01003 12,2.84803 12,2.68603 11.897,2.54301 11.744,2.49201 Z" />
  </g>
</svg>
