#filter dumbComments emptyLines substitution
# This Source Code Form is subject to the terms of the Mozilla Public
# License, v. 2.0. If a copy of the MPL was not distributed with this
# file, You can obtain one at http://mozilla.org/MPL/2.0/.
<svg xmlns="http://www.w3.org/2000/svg" width="18" height="18" fill="context-fill" fill-opacity="context-fill-opacity" viewBox="0 0 18 18"><path d="M10.076 1.611A1.25 1.25 0 0 1 12 2.664v1.288a.75.75 0 0 1-1.5 0V3.12L5.404 6.383A.75.75 0 0 1 5 6.5H2.25a.75.75 0 0 0-.75.75v3.5c0 .413.336.75.75.75H5l.106.008a.75.75 0 0 1 .298.11l5.096 3.26v-.83a.75.75 0 0 1 1.5 0v1.289a1.25 1.25 0 0 1-1.924 1.052L4.78 13H2.25A2.25 2.25 0 0 1 0 10.75v-3.5A2.25 2.25 0 0 1 2.25 5h2.53z"/><path d="M14 5a4 4 0 1 1 0 8 4 4 0 0 1 0-8m-1.155 6.215a2.5 2.5 0 0 0 3.37-3.37zM14 6.5a2.5 2.5 0 0 0-2.216 3.654l3.37-3.37A2.5 2.5 0 0 0 14 6.5"/></svg>
