#filter dumbComments emptyLines substitution
# This Source Code Form is subject to the terms of the Mozilla Public
# License, v. 2.0. If a copy of the MPL was not distributed with this
# file, You can obtain one at http://mozilla.org/MPL/2.0/.
<svg xmlns="http://www.w3.org/2000/svg" width="18" height="18" fill="context-fill" fill-opacity="context-fill-opacity" viewBox="0 0 18 18"><path d="M13.462 1.454A1.75 1.75 0 0 1 15.5 3.18v9.07A2.75 2.75 0 1 1 14 9.803V6.635l-7.5 1.25v5.865A2.75 2.75 0 1 1 5 11.303V4.347c0-.856.618-1.586 1.463-1.726zM3.75 12.5a1.25 1.25 0 1 0 0 2.5 1.25 1.25 0 0 0 0-2.5m9-1.5a1.25 1.25 0 1 0 0 2.5 1.25 1.25 0 0 0 0-2.5m.96-8.066L6.709 4.1a.25.25 0 0 0-.209.246v2.017l7.5-1.25V3.18a.25.25 0 0 0-.29-.246"/></svg>
