#filter dumbComments emptyLines substitution
# This Source Code Form is subject to the terms of the Mozilla Public
# License, v. 2.0. If a copy of the MPL was not distributed with this
# file, You can obtain one at http://mozilla.org/MPL/2.0/.
<svg xmlns="http://www.w3.org/2000/svg" width="18" height="18" fill="context-fill" fill-opacity="context-fill-opacity" viewBox="0 0 18 18"><path d="M10.234 1.524A1.25 1.25 0 0 1 12 2.664v12.673a1.25 1.25 0 0 1-1.924 1.053L4.78 13H2.25A2.25 2.25 0 0 1 0 10.75v-3.5A2.25 2.25 0 0 1 2.25 5h2.53l5.296-3.389zm-4.83 4.858A.75.75 0 0 1 5 6.5H2.25a.75.75 0 0 0-.75.75v3.5c0 .414.336.75.75.75H5l.106.008a.75.75 0 0 1 .298.11L10.5 14.88V3.119zM15.33 5.11a.75.75 0 0 1 1.06 0 5.5 5.5 0 0 1 0 7.779.75.75 0 0 1-1.06-1.06 4 4 0 0 0 0-5.658.75.75 0 0 1 0-1.06"/><path d="M13.384 7.056a.75.75 0 0 1 1.06 0 2.75 2.75 0 0 1 0 3.888.75.75 0 0 1-1.06-1.06 1.25 1.25 0 0 0 0-1.768.75.75 0 0 1 0-1.06"/></svg>
