#filter dumbComments emptyLines substitution
# This Source Code Form is subject to the terms of the Mozilla Public
# License, v. 2.0. If a copy of the MPL was not distributed with this
# file, You can obtain one at http://mozilla.org/MPL/2.0/.
<?xml version="1.0" encoding="UTF-8" standalone="no"?>
<svg
   x="0px"
   y="0px"
   width="18px"
   height="18px"
   viewBox="0 0 18 18"
   version="1.1"
   id="svg3"
   xmlns="http://www.w3.org/2000/svg"
   xmlns:svg="http://www.w3.org/2000/svg">
  <defs
     id="defs3" />
  <g
     stroke-linecap="round"
     stroke-width="1.5"
     fill="none"
     stroke="context-fill"
     stroke-opacity="context-fill-opacity"
     stroke-linejoin="round"
     class="nc-icon-wrapper"
     id="g3">
    <path
       id="path3"
       d="m 14.75,6.75 v 6.303 c 0,1.214 -0.984,2.197 -2.197,2.197 v 0 c -0.728,0 -1.373,-0.354 -1.773,-0.899 M 12.45,6.75 h 0.204999 C 13.81563,6.75 14.75,7.68437 14.75,8.845 v 0.81 c 0,1.16063 -0.93437,2.095 -2.095001,2.095 H 12.45 c -1.16063,0 -2.095,-0.93437 -2.095,-2.095 v -0.81 c 0,-1.16063 0.93437,-2.095 2.095,-2.095 z M 7.25,9.5 c 0,1.518 -1.232,2.75 -2.75,2.75 H 4.3386 C 3.5993,12.25 3,11.6507 3,10.9114 v 0 C 3,10.2678 3.458,9.7153 4.0904,9.596 L 6.3677,9.1961 C 6.9062,9.0945 7.2576,8.581 7.1689,8.0499 M 3.234,7.234 C 3.72,6.711 4.412,6.5 5.115,6.5 v 0 c 1.179,0 2.134,0.956 2.134,2.134 v 3.616" />
  </g>
</svg>
