#filter dumbComments emptyLines substitution
# This Source Code Form is subject to the terms of the Mozilla Public
# License, v. 2.0. If a copy of the MPL was not distributed with this
# file, You can obtain one at http://mozilla.org/MPL/2.0/.
<svg xmlns="http://www.w3.org/2000/svg" width="18" height="18" fill="context-fill" fill-opacity="context-fill-opacity" viewBox="0 0 18 18"><path d="M12 4a.75.75 0 1 1 0 1.5.75.75 0 0 1 0-1.5"/><path d="M10.768 1.575a1.75 1.75 0 0 1 2.474 0l3.182 3.182a1.75 1.75 0 0 1 0 2.474l-2.813 2.813-.014.016-.02.017-3.51 3.51-.007.01-.01.007-1.75 1.75-.008.01-.01.008-1.05 1.052a1.75 1.75 0 0 1-2.475 0l-3.181-3.182a1.75 1.75 0 0 1 0-2.475zm1.414 1.06a.25.25 0 0 0-.354 0l-9.192 9.193a.25.25 0 0 0 0 .354l3.182 3.181a.25.25 0 0 0 .353 0l.53-.53-1.237-1.236a.75.75 0 0 1 1.06-1.061l1.237 1.236.708-.708-.53-.529A.75.75 0 0 1 9 11.475l.53.529.707-.706-1.238-1.238A.75.75 0 0 1 10.06 9l1.238 1.237.707-.708-.53-.528a.75.75 0 0 1 1.062-1.06l.529.528 2.299-2.298a.25.25 0 0 0 0-.354z"/></svg>
