#filter dumbComments emptyLines substitution
# This Source Code Form is subject to the terms of the Mozilla Public
# License, v. 2.0. If a copy of the MPL was not distributed with this
# file, You can obtain one at http://mozilla.org/MPL/2.0/.
<svg xmlns="http://www.w3.org/2000/svg" width="18" height="18" fill="context-fill" fill-opacity="context-fill-opacity" viewBox="0 0 18 18"><path d="M8.468 1.134c.303-.097.625-.11.932-.037l.131.036h.002l5.25 1.68.001.001A1.75 1.75 0 0 1 16 4.48V11c0 1.924-1.474 3.306-2.842 4.19-1.41.912-2.967 1.466-3.619 1.677l.001.001a1.73 1.73 0 0 1-1.08 0c-.652-.211-2.21-.766-3.618-1.678C3.474 14.306 2 12.924 2 11V4.48c0-.76.491-1.435 1.217-1.667zm.455 1.428-5.25 1.68a.25.25 0 0 0-.173.238V11c0 1.106.867 2.098 2.156 2.932 1.247.806 2.66 1.313 3.267 1.51a.24.24 0 0 0 .153 0c.607-.197 2.021-.704 3.268-1.51C13.633 13.098 14.5 12.106 14.5 11V4.48a.25.25 0 0 0-.175-.238L9.08 2.563 9 2.551a.3.3 0 0 0-.077.01"/></svg>
