#filter dumbComments emptyLines substitution
# This Source Code Form is subject to the terms of the Mozilla Public
# License, v. 2.0. If a copy of the MPL was not distributed with this
# file, You can obtain one at http://mozilla.org/MPL/2.0/.
<svg xmlns="http://www.w3.org/2000/svg" width="18" height="18" fill="context-fill" fill-opacity="context-fill-opacity" viewBox="0 0 18 18"><path d="m14.783 2.813-5.25-1.68a1.75 1.75 0 0 0-1.066 0l-5.251 1.68A1.745 1.745 0 0 0 2 4.48V11c0 3.507 4.945 5.379 6.461 5.869a1.75 1.75 0 0 0 1.077 0C11.055 16.379 16 14.507 16 11V4.48c0-.764-.489-1.434-1.217-1.667M14.5 11c0 2.559-4.518 4.149-5.424 4.442-.026.008-.051 0-.076 0V2.55q.038 0 .076.012l5.249 1.68a.25.25 0 0 1 .175.238z"/></svg>
