#filter dumbComments emptyLines substitution
# This Source Code Form is subject to the terms of the Mozilla Public
# License, v. 2.0. If a copy of the MPL was not distributed with this
# file, You can obtain one at http://mozilla.org/MPL/2.0/.
<svg xmlns="http://www.w3.org/2000/svg" width="18" height="18" fill="context-fill" fill-opacity="context-fill-opacity" viewBox="0 0 18 18"><path d="M12.75 7a.75.75 0 0 1 .702.486l3 8a.75.75 0 0 1-1.404.528L14.293 14h-3.586l-.755 2.014a.75.75 0 0 1-1.404-.528l3-8 .049-.104A.75.75 0 0 1 12.25 7zm-1.48 5.5h2.46L12.5 9.219zm-5.02-11a.75.75 0 0 1 .75.75V3.5h3.25a.75.75 0 0 1 0 1.5H8.92c-.227 1.5-.817 2.634-1.555 3.487.475.32 1.007.567 1.582.723a.75.75 0 0 1-.394 1.447 6.8 6.8 0 0 1-2.318-1.135 7 7 0 0 1-.774.495 8.5 8.5 0 0 1-3.073.973l-.06.006-.017.002H2.3l-.051-.748.05.748a.75.75 0 0 1-.1-1.496h-.002l.006-.001.034-.003q.05-.005.15-.019a7 7 0 0 0 2.35-.777q.192-.106.382-.23A6.85 6.85 0 0 1 3.564 5H2.25a.75.75 0 0 1 0-1.5H5.5V2.25a.75.75 0 0 1 .75-.75M5.084 5a5.35 5.35 0 0 0 1.167 2.484c.524-.615.948-1.42 1.146-2.484z"/></svg>
