#filter dumbComments emptyLines substitution
# This Source Code Form is subject to the terms of the Mozilla Public
# License, v. 2.0. If a copy of the MPL was not distributed with this
# file, You can obtain one at http://mozilla.org/MPL/2.0/.
<svg xmlns="http://www.w3.org/2000/svg" width="18" height="18" fill="context-fill" fill-opacity="context-fill-opacity" viewBox="0 0 18 18"><path d="M9.75 3a2.75 2.75 0 0 1 2.75 2.75v6.5A2.75 2.75 0 0 1 9.75 15h-6A2.75 2.75 0 0 1 1 12.25v-6.5A2.75 2.75 0 0 1 3.75 3zm6.398 2c.39-.215.853-.207 1.238.02S18 5.649 18 6.096v5.808a1.25 1.25 0 0 1-1.249 1.252c-.207 0-.414-.052-.603-.157L14 11.819V6.18z"/></svg>
