#filter dumbComments emptyLines substitution
# This Source Code Form is subject to the terms of the Mozilla Public
# License, v. 2.0. If a copy of the MPL was not distributed with this
# file, You can obtain one at http://mozilla.org/MPL/2.0/.
<?xml version="1.0" encoding="UTF-8" standalone="no"?>
<svg
   x="0px"
   y="0px"
   width="18px"
   height="18px"
   viewBox="0 0 18 18"
   version="1.1"
   id="svg5"
   xmlns="http://www.w3.org/2000/svg"
   xmlns:svg="http://www.w3.org/2000/svg">
  <defs
     id="defs5" />
  <g
     stroke-linecap="round"
     stroke-width="1.5"
     fill="none"
     stroke="context-fill"
     stroke-opacity="context-fill-opacity"
     stroke-linejoin="round"
     class="nc-icon-wrapper"
     id="g2" />
  <g
     fill="context-fill"
     fill-opacity="context-fill-opacity"
     class="nc-icon-wrapper"
     id="g5">
    <path
       id="path5"
       d="M 9.25,2.5 C 9.664,2.5 10,2.16 10,1.75 10,1.34 9.664,1 9.25,1 8.836,1 8.5,1.34 8.5,1.75 8.5,2.16 8.836,2.5 9.25,2.5 Z m 7.408,9.49 -1.263,-0.42 -0.421,-1.2599 c -0.137,-0.41004 -0.812,-0.41004 -0.949,0 l -0.421,1.2599 -1.263,0.42 c -0.204,0.0701 -0.342,0.26 -0.342,0.47 0,0.2201 0.138,0.4099 0.342,0.4799 l 1.263,0.4201 0.421,1.26 c 0.068,0.21 0.26,0.34 0.475,0.34 0.215,0 0.406,-0.13 0.475,-0.34 l 0.421,-1.26 1.263,-0.4201 c 0.204,-0.0699 0.342,-0.2598 0.342,-0.4799 0,-0.21 -0.139,-0.3999 -0.343,-0.47 z M 7.24297,3.48999 6.29697,3.18006 5.98097,2.22998 c -0.102,-0.3099 -0.609,-0.3099 -0.711,0 L 4.95396,3.18006 4.00797,3.48999 c -0.153,0.05 -0.25699,0.19999 -0.25699,0.35999 0,0.16 0.10399,0.29997 0.25699,0.34997 L 4.95396,4.52014 5.26997,5.4701 c 0.051,0.15 0.194,0.25 0.355,0.25 0.161,0 0.305,-0.1 0.355,-0.25 l 0.316,-0.94996 0.946,-0.32019 c 0.153,-0.0499 0.25699,-0.18987 0.25699,-0.34997 0,-0.1601 -0.10299,-0.30989 -0.25599,-0.35999 z m 3.14403,1.87 2.25,2.25 M 12.5717,2.92528 2.91893,12.583 c -0.3899,0.39 -0.3903,1.0221 -0.0011,1.4127 l 1.08521,1.0892 c 0.391,0.39 1.02399,0.39 1.41499,0 L 15.0701,5.42687 c 0.3898,-0.3901 0.3903,-1.02212 0.0011,-1.41272 L 13.9874,2.92638 C 13.597,2.53458 12.9627,2.53408 12.5717,2.92528 Z" />
  </g>
</svg>
