#filter dumbComments emptyLines substitution
# This Source Code Form is subject to the terms of the Mozilla Public
# License, v. 2.0. If a copy of the MPL was not distributed with this
# file, You can obtain one at http://mozilla.org/MPL/2.0/.
<svg xmlns="http://www.w3.org/2000/svg" width="18" height="18" fill="context-fill" fill-opacity="context-fill-opacity" viewBox="0 0 18 18"><path d="M14.726 5.83a.75.75 0 0 1 .98.407 7.2 7.2 0 0 1 .505 2.013H17a.75.75 0 0 1 0 1.5h-.79a7.25 7.25 0 0 1-6.46 6.46V17a.75.75 0 0 1-1.5 0v-.79a7.2 7.2 0 0 1-2.012-.505.75.75 0 1 1 .57-1.387c.675.278 1.414.43 2.191.431a5.75 5.75 0 0 0 5.32-7.94.75.75 0 0 1 .407-.979M9 .25a.75.75 0 0 1 .75.75v.788a7.2 7.2 0 0 1 3.817 1.583L15.47 1.47a.75.75 0 1 1 1.06 1.06l-14 14a.75.75 0 0 1-1.06-1.06l1.901-1.903A7.2 7.2 0 0 1 1.788 9.75H1a.75.75 0 0 1 0-1.5h.788A7.25 7.25 0 0 1 8.25 1.788V1A.75.75 0 0 1 9 .25m0 3a5.75 5.75 0 0 0-4.56 9.249l1.977-1.978a3 3 0 0 1 4.105-4.105l1.977-1.977A5.72 5.72 0 0 0 9 3.25M9 7.5a1.5 1.5 0 0 0-1.448 1.887l1.835-1.835A1.5 1.5 0 0 0 9 7.5"/></svg>
