#filter dumbComments emptyLines substitution
# This Source Code Form is subject to the terms of the Mozilla Public
# License, v. 2.0. If a copy of the MPL was not distributed with this
# file, You can obtain one at http://mozilla.org/MPL/2.0/.
<svg xmlns="http://www.w3.org/2000/svg" width="18" height="18" fill="context-fill" fill-opacity="context-fill-opacity" viewBox="0 0 18 18"><path d="M15.979 7.495a.75.75 0 0 1-.638-.354l-1.892-3.049a1.24 1.24 0 0 0-1.062-.591H5.613a1.24 1.24 0 0 0-1.062.591L2.659 7.141a.75.75 0 0 1-1.275-.791l1.892-3.049a2.74 2.74 0 0 1 2.337-1.3h6.774c.958 0 1.831.486 2.337 1.299l1.892 3.05a.75.75 0 0 1-.637 1.146Z"/><path d="M14.25 5H3.75A2.75 2.75 0 0 0 1 7.75v4.5A2.75 2.75 0 0 0 3.75 15h2c.861 0 1.683-.411 2.2-1.1l.45-.6c.286-.381.914-.381 1.2 0l.45.601a2.77 2.77 0 0 0 2.2 1.1h2a2.75 2.75 0 0 0 2.75-2.75V7.75A2.75 2.75 0 0 0 14.25 5M5.5 11.5c-.827 0-1.5-.673-1.5-1.5s.673-1.5 1.5-1.5S7 9.173 7 10s-.673 1.5-1.5 1.5m7 0c-.827 0-1.5-.673-1.5-1.5s.673-1.5 1.5-1.5S14 9.173 14 10s-.673 1.5-1.5 1.5"/></svg>
