#filter dumbComments emptyLines substitution
# This Source Code Form is subject to the terms of the Mozilla Public
# License, v. 2.0. If a copy of the MPL was not distributed with this
# file, You can obtain one at http://mozilla.org/MPL/2.0/.
<svg xmlns="http://www.w3.org/2000/svg" width="18" height="18" fill="context-fill" fill-opacity="context-fill-opacity" viewBox="0 0 18 18"><path d="M5.5 8.5a1.5 1.5 0 1 1 0 3 1.5 1.5 0 0 1 0-3m7 0a1.5 1.5 0 1 1 0 3 1.5 1.5 0 0 1 0-3"/><path d="M12.389 2c.95 0 1.834.493 2.336 1.3l1.892 3.05q.015.025.027.051c.226.4.356.858.356 1.349v4.5A2.75 2.75 0 0 1 14.25 15h-2c-.866 0-1.68-.407-2.2-1.1l-.45-.6c-.3-.4-.9-.4-1.2 0l-.45.6a2.75 2.75 0 0 1-2.2 1.1h-2A2.75 2.75 0 0 1 1 12.25v-4.5c0-.507.14-.98.379-1.389l.007-.011.026-.044q.031-.055.066-.106l1.8-2.9A2.75 2.75 0 0 1 5.613 2zM3.75 6.5a1.25 1.25 0 0 0-1.016.52l-.073.12-.014.02a1.25 1.25 0 0 0-.147.59v4.5c0 .69.56 1.25 1.25 1.25h2c.394 0 .764-.185 1-.5l.45-.6c.9-1.2 2.7-1.2 3.6 0l.45.6c.236.315.606.5 1 .5h2c.69 0 1.25-.56 1.25-1.25v-4.5c0-.69-.56-1.25-1.25-1.25zm1.864-3a1.25 1.25 0 0 0-1.061.59L3.989 5h10.025l-.564-.908a1.25 1.25 0 0 0-1.06-.592z"/></svg>
