#filter dumbComments emptyLines substitution
# This Source Code Form is subject to the terms of the Mozilla Public
# License, v. 2.0. If a copy of the MPL was not distributed with this
# file, You can obtain one at http://mozilla.org/MPL/2.0/.
<svg fill="context-fill" fill-opacity="context-fill-opacity" viewBox="0 0 512 512" xmlns="http://www.w3.org/2000/svg" xmlns:svg="http://www.w3.org/2000/svg"><path d="M 186.62,464 H 160 A 16,16 0 0 1 145.43,441.4 L 209.89,299.15 113.1,297 77.8,339.77 C 71.07,348.23 65.7,352 52,352 H 34.08 a 17.66,17.66 0 0 1 -14.7,-7.06 C 17,341.73 14.66,336.29 16.94,328.53 l 19.82,-71 c 0.15,-0.53 0.33,-1.06 0.53,-1.58 a 0.38,0.38 0 0 0 0,-0.15 14.82,14.82 0 0 1 -0.53,-1.59 L 16.92,182.76 c -2.15,-7.61 0.2,-12.93 2.56,-16.06 A 16.83,16.83 0 0 1 33.08,160 H 52 c 10.23,0 20.16,4.59 26,12 l 34.57,42.05 97.32,-1.44 -64.44,-142 A 16,16 0 0 1 160,48 h 26.91 a 25,25 0 0 1 19.35,9.8 l 125.05,152 57.77,-1.52 c 4.23,-0.23 15.95,-0.31 18.66,-0.31 C 463,208 496,225.94 496,256 c 0,9.46 -3.78,27 -29.07,38.16 -14.93,6.6 -34.85,9.94 -59.21,9.94 -2.68,0 -14.37,-0.08 -18.66,-0.31 l -57.76,-1.54 -125.36,152 A 25,25 0 0 1 186.62,464 Z"/></svg>