#filter dumbComments emptyLines substitution
# This Source Code Form is subject to the terms of the Mozilla Public
# License, v. 2.0. If a copy of the MPL was not distributed with this
# file, You can obtain one at http://mozilla.org/MPL/2.0/.
<svg fill="context-fill" fill-opacity="context-fill-opacity" viewBox="0 0 512 512" xmlns="http://www.w3.org/2000/svg" xmlns:svg="http://www.w3.org/2000/svg"><path d="m 122.06,122.06 c -44.37,44.37 -66.71,100.61 -78,145.28 l 200.6,200.56 c 44.67,-11.25 100.91,-33.59 145.28,-78 44.37,-44.41 66.71,-100.61 78,-145.28 L 267.34,44.1 C 222.67,55.35 166.43,77.69 122.06,122.06 Z M 378.79,378.78 Z M 300.65,189 323,166.71 A 15.78,15.78 0 0 1 345.29,189 l -22.29,22.35 11.16,11.17 a 15.782623,15.782623 0 0 1 -22.32,22.32 l -11.16,-11.16 -22.36,22.32 11.16,11.16 a 15.782623,15.782623 0 1 1 -22.32,22.32 L 256,278.32 l -22.32,22.33 11.16,11.16 a 15.782623,15.782623 0 1 1 -22.32,22.32 L 211.35,323 189,345.29 A 15.78,15.78 0 0 1 166.71,323 L 189,300.65 177.84,289.48 a 15.782623,15.782623 0 0 1 22.32,-22.32 l 11.16,11.16 22.36,-22.32 -11.16,-11.16 a 15.782623,15.782623 0 1 1 22.32,-22.32 l 11.16,11.16 22.32,-22.33 -11.16,-11.16 a 15.782623,15.782623 0 0 1 22.32,-22.32 z m 175.92,10.63 c 7.31,-54.53 4,-120.26 -20,-144.21 -24,-23.95 -89.68,-27.3 -144.21,-20 -2.51,0.34 -5.16,0.72 -7.91,1.15 l 171,171 c 0.4,-2.78 0.78,-5.43 1.12,-7.94 z M 35.43,312.37 c -7.31,54.53 -4,120.26 20,144.21 16.74,16.75 53.91,23.42 93.41,23.42 a 387,387 0 0 0 50.79,-3.43 c 2.51,-0.34 5.16,-0.72 7.91,-1.15 l -171,-171 c -0.39,2.79 -0.77,5.44 -1.11,7.95 z"/></svg>