#filter dumbComments emptyLines substitution
# This Source Code Form is subject to the terms of the Mozilla Public
# License, v. 2.0. If a copy of the MPL was not distributed with this
# file, You can obtain one at http://mozilla.org/MPL/2.0/.
<svg fill="context-fill" fill-opacity="context-fill-opacity" viewBox="0 0 512 512" xmlns="http://www.w3.org/2000/svg" xmlns:svg="http://www.w3.org/2000/svg"><path d="M 301.49,56.2 A 14,14 0 0 1 287.5,70 h -0.25 l -16.81,-0.3 c 0.05,1.31 0.1,2.62 0.17,3.93 a 178.83,178.83 0 0 0 3.44,26.31 l 16.29,-4.74 a 14,14 0 0 1 7.81,26.8 l -16.27,4.73 a 178.06,178.06 0 0 0 13.33,27.69 l 13.84,-9.78 a 14.001629,14.001629 0 1 1 16.16,22.87 l -13.86,9.79 q 5.25,6.33 11.12,12.19 c 3.9,3.91 8,7.6 12.2,11.1 l 9.78,-13.84 A 14.027646,14.027646 0 1 1 367.32,203 l -9.76,13.8 a 178.83,178.83 0 0 0 27.68,13.33 L 390,213.85 a 14.000609,14.000609 0 0 1 26.89,7.81 l -4.73,16.26 a 177.72,177.72 0 0 0 30.95,3.65 l -0.16,-9 a 14,14 0 0 1 13.75,-14.24 h 0.25 a 14.67,14.67 0 0 1 2.59,0.25 208,208 0 0 0 -158,-163.51 c -0.06,0.4 -0.04,0.76 -0.05,1.13 z m -93.05,401.35 a 16,16 0 0 1 16.28,-15.71 l 16.76,0.29 a 178.49,178.49 0 0 0 -3.62,-29.95 L 221.6,416.9 A 14.005411,14.005411 0 1 1 213.79,390 L 230,385.3 a 177.92,177.92 0 0 0 -13.33,-27.68 l -13.8,9.76 a 14.001629,14.001629 0 1 1 -16.16,-22.87 l 13.84,-9.78 c -3.5,-4.22 -7.19,-8.3 -11.1,-12.2 -3.91,-3.9 -8,-7.62 -12.19,-11.12 l -9.79,13.86 A 14.001629,14.001629 0 1 1 144.6,309.11 l 9.78,-13.84 A 177.16,177.16 0 0 0 126.69,281.94 L 122,298.21 A 14.005411,14.005411 0 1 1 95.1,290.4 l 4.73,-16.29 a 177.32,177.32 0 0 0 -26.31,-3.44 c -0.89,-0.05 -1.79,-0.08 -2.68,-0.12 L 71,281.14 A 16,16 0 0 1 55.29,297.42 H 55 a 16,16 0 0 1 -3.94,-0.51 208,208 0 0 0 157.65,163.87 15.72,15.72 0 0 1 -0.27,-3.23 z M 444,295.67 443.53,269.6 a 205.42,205.42 0 0 1 -39.27,-4.73 l -5,17.35 a 14,14 0 1 1 -26.88,-7.81 l 5,-17.38 a 206.47,206.47 0 0 1 -36.05,-17.35 l -10.44,14.77 a 14.001629,14.001629 0 0 1 -22.87,-16.16 l 10.41,-14.73 a 204.8,204.8 0 0 1 -30,-30 L 273.71,204 a 14.001629,14.001629 0 0 1 -16.16,-22.87 l 14.74,-10.42 a 205.3,205.3 0 0 1 -17.38,-36.06 l -17.32,5 a 14.000609,14.000609 0 1 1 -7.81,-26.89 l 17.3,-5 a 205.88,205.88 0 0 1 -4.43,-32.59 q -0.17,-3 -0.24,-6 L 224.19,68.84 A 14,14 0 0 1 210.45,54.84 208,208 0 0 0 55,202.42 16,16 0 0 1 70,218.08 l 0.44,24.43 c 1.58,0.05 3.16,0.11 4.73,0.2 a 205.88,205.88 0 0 1 32.59,4.43 l 5,-17.3 a 14.000609,14.000609 0 0 1 26.89,7.81 l -5,17.32 a 205.21,205.21 0 0 1 36,17.38 L 181,257.61 a 14.001629,14.001629 0 0 1 22.87,16.16 l -10.39,14.73 a 205.65,205.65 0 0 1 15.79,14.23 203.79,203.79 0 0 1 14.23,15.79 l 14.73,-10.41 A 14.009797,14.009797 0 0 1 254.39,331 l -14.76,10.43 A 206.86,206.86 0 0 1 257,377.47 l 17.38,-5.05 a 14.000609,14.000609 0 0 1 7.81,26.89 l -17.35,5 a 205.89,205.89 0 0 1 4.7,38.28 l 18.27,0.33 a 16,16 0 0 1 15.71,16.28 11.69,11.69 0 0 1 -0.08,1.19 A 208,208 0 0 0 456.83,309.36 14,14 0 0 1 444,295.67 Z"/></svg>