#filter dumbComments emptyLines substitution
# This Source Code Form is subject to the terms of the Mozilla Public
# License, v. 2.0. If a copy of the MPL was not distributed with this
# file, You can obtain one at http://mozilla.org/MPL/2.0/.
<svg fill="context-fill" fill-opacity="context-fill-opacity" viewBox="0 0 512 512" xmlns="http://www.w3.org/2000/svg" xmlns:svg="http://www.w3.org/2000/svg"><path d="M 424.11,192 H 360 L 268.8,70.4 a 16,16 0 0 0 -25.6,0 L 152,192 H 87.89 a 32.57,32.57 0 0 0 -32.62,32.44 30.3,30.3 0 0 0 1.31,9 l 46.27,163.14 a 50.72,50.72 0 0 0 48.84,36.91 h 208.62 a 51.21,51.21 0 0 0 49,-36.86 l 46.33,-163.36 a 15.62,15.62 0 0 0 0.46,-2.36 l 0.53,-4.93 a 13.3,13.3 0 0 0 0.09,-1.55 A 32.57,32.57 0 0 0 424.11,192 Z M 256,106.67 320,192 H 192 Z m 0,245 a 37.7,37.7 0 1 1 37.88,-37.7 37.87,37.87 0 0 1 -37.88,37.66 z"/></svg>