#filter dumbComments emptyLines substitution
# This Source Code Form is subject to the terms of the Mozilla Public
# License, v. 2.0. If a copy of the MPL was not distributed with this
# file, You can obtain one at http://mozilla.org/MPL/2.0/.
<svg fill="context-fill" fill-opacity="context-fill-opacity" viewBox="0 0 512 512" xmlns="http://www.w3.org/2000/svg" xmlns:svg="http://www.w3.org/2000/svg"><path d="M 432,230.7 A 79.44,79.44 0 0 0 400,224 H 112 A 79.51,79.51 0 0 0 80,230.69 80.09,80.09 0 0 0 32,304 v 112 a 16,16 0 0 0 32,0 v -8 a 8.1,8.1 0 0 1 8,-8 h 368 a 8.1,8.1 0 0 1 8,8 v 8 a 16,16 0 0 0 32,0 V 304 A 80.09,80.09 0 0 0 432,230.7 Z M 376,80 H 136 a 56,56 0 0 0 -56,56 v 72 a 4,4 0 0 0 5.11,3.84 A 95.5,95.5 0 0 1 112,208 h 4.23 a 4,4 0 0 0 4,-3.55 A 32,32 0 0 1 152,176 h 56 a 32,32 0 0 1 31.8,28.45 4,4 0 0 0 4,3.55 h 24.46 a 4,4 0 0 0 4,-3.55 A 32,32 0 0 1 304,176 h 56 a 32,32 0 0 1 31.8,28.45 4,4 0 0 0 4,3.55 h 4.2 a 95.51,95.51 0 0 1 26.89,3.85 A 4,4 0 0 0 432,208 V 136 A 56,56 0 0 0 376,80 Z"/></svg>