#filter dumbComments emptyLines substitution
# This Source Code Form is subject to the terms of the Mozilla Public
# License, v. 2.0. If a copy of the MPL was not distributed with this
# file, You can obtain one at http://mozilla.org/MPL/2.0/.
<svg fill="context-fill" fill-opacity="context-fill-opacity" viewBox="0 0 512 512" xmlns="http://www.w3.org/2000/svg" xmlns:svg="http://www.w3.org/2000/svg"><path d="m 440.08,341.31 c -1.66,-2 -3.29,-4 -4.89,-5.93 -22,-26.61 -35.31,-42.67 -35.31,-118 0,-39 -9.33,-71 -27.72,-95 C 358.6,104.65 340.27,91.2 316.11,81.26 a 3,3 0 0 1 -0.82,-0.67 C 306.6,51.49 282.82,32 256,32 229.18,32 205.41,51.49 196.72,80.56 a 3.13,3.13 0 0 1 -0.81,0.65 c -56.38,23.21 -83.78,67.74 -83.78,136.14 0,75.36 -13.29,91.42 -35.31,118 -1.6,1.93 -3.23,3.89 -4.89,5.93 a 35.16,35.16 0 0 0 -4.65,37.62 c 6.17,13 19.32,21.07 34.33,21.07 H 410.5 c 14.94,0 28,-8.06 34.19,-21 a 35.17,35.17 0 0 0 -4.61,-37.66 z M 256,480 A 80.06,80.06 0 0 0 326.44,437.87 4,4 0 0 0 322.9,432 H 189.12 a 4,4 0 0 0 -3.55,5.87 A 80.06,80.06 0 0 0 256,480 Z"/></svg>