#filter dumbComments emptyLines substitution
# This Source Code Form is subject to the terms of the Mozilla Public
# License, v. 2.0. If a copy of the MPL was not distributed with this
# file, You can obtain one at http://mozilla.org/MPL/2.0/.
<svg fill="context-fill" fill-opacity="context-fill-opacity" viewBox="0 0 512 512" xmlns="http://www.w3.org/2000/svg" xmlns:svg="http://www.w3.org/2000/svg"><path d="M 496,176 A 64.07,64.07 0 0 0 432,112 H 384 V 96 A 48.05,48.05 0 0 0 336,48 H 176 a 48.05,48.05 0 0 0 -48,48 v 16 H 80 a 64.07,64.07 0 0 0 -64,64 v 48 H 496 Z M 352,112 H 160 V 96 a 16,16 0 0 1 16,-16 h 160 a 16,16 0 0 1 16,16 z m -16,152 a 24,24 0 0 1 -24,24 H 200 a 24,24 0 0 1 -24,-24 v -4 a 4,4 0 0 0 -4,-4 H 16 v 144 a 64,64 0 0 0 64,64 h 352 a 64,64 0 0 0 64,-64 V 256 H 340 a 4,4 0 0 0 -4,4 z M 336,80 H 176 a 16,16 0 0 0 -16,16 v 16 H 352 V 96 A 16,16 0 0 0 336,80 Z"/></svg>