#filter dumbComments emptyLines substitution
# This Source Code Form is subject to the terms of the Mozilla Public
# License, v. 2.0. If a copy of the MPL was not distributed with this
# file, You can obtain one at http://mozilla.org/MPL/2.0/.
<svg fill="context-fill" fill-opacity="context-fill-opacity" viewBox="0 0 512 512" xmlns="http://www.w3.org/2000/svg" xmlns:svg="http://www.w3.org/2000/svg"><path d="m 233.15,360.11 a 15.7,15.7 0 0 1 -4.92,-0.77 16,16 0 0 1 -10.92,-13 c -2.15,-15 -19.95,-32.46 -36.62,-35.85 A 16,16 0 0 1 172,284.16 L 383.09,49.06 c 0.19,-0.22 0.39,-0.43 0.59,-0.63 a 56.57,56.57 0 0 1 79.89,0 56.51,56.51 0 0 1 0.11,79.78 l -219,227 a 16,16 0 0 1 -11.53,4.9 z m -113.26,120 c -32.14,0 -65.45,-16.89 -84.85,-43 a 16,16 0 0 1 12.85,-25.54 c 5.34,0 20,-4.87 20,-20.57 0,-39.07 31.4,-70.86 70,-70.86 38.6,0 70,31.79 70,70.86 0,49.12 -39.48,89.11 -88,89.11 z"/></svg>