#filter dumbComments emptyLines substitution
# This Source Code Form is subject to the terms of the Mozilla Public
# License, v. 2.0. If a copy of the MPL was not distributed with this
# file, You can obtain one at http://mozilla.org/MPL/2.0/.
<svg fill="context-fill" fill-opacity="context-fill-opacity" viewBox="0 0 512 512" xmlns="http://www.w3.org/2000/svg" xmlns:svg="http://www.w3.org/2000/svg"><path d="m 321.39,104 0.32,0.09 c 13.57,3.8 25.07,-10.55 18.2,-22.85 A 95.86,95.86 0 0 0 256.21,32 h -0.42 A 95.87,95.87 0 0 0 171.6,82.13 c -6.84,12.58 5.14,27 18.84,22.86 19.71,-6 41.79,-9.06 65.56,-9.06 24.09,0 46.09,2.72 65.39,8.07 z M 463.55,272.13 H 400 v -48.2 q 0,-4.32 -0.27,-8.47 c 29.57,-27.88 32.25,-64.63 32.27,-103 0,-8.61 -6.64,-16 -15.25,-16.41 A 16,16 0 0 0 400,112 c 0,28 -1.86,48.15 -9.9,63.84 -19.22,-41.15 -65.78,-63.91 -134.1,-63.91 -39.8,0 -74.19,9.13 -99.43,26.39 -14.9,10.19 -26.2,22.91 -33.7,37.72 C 114,160.65 112,141 112,112.46 c 0,-8.61 -6.6,-16 -15.2,-16.44 A 16,16 0 0 0 80,112 c 0,37.63 2.61,73.73 32.44,101.63 q -0.43,5.06 -0.44,10.3 v 48.2 H 48.45 c -8.61,0 -16,6.62 -16.43,15.23 a 16,16 0 0 0 16,16.77 h 64 V 320 a 143.32,143.32 0 0 0 10.39,53.69 C 96.74,396.64 80.18,422 80,463.34 c 0,8.74 6.62,16.3 15.36,16.65 A 16,16 0 0 0 112,464 c 0,-27.66 9.1,-44.71 26.17,-61.32 A 144.37,144.37 0 0 0 220,459.42 16,16 0 0 0 240,443.93 V 192.45 c 0,-8.61 6.62,-16 15.23,-16.43 A 16,16 0 0 1 272,192 v 251.93 a 16,16 0 0 0 20,15.49 144.4,144.4 0 0 0 81.82,-56.74 c 17,16.54 26.09,33.52 26.17,60.95 A 16.27,16.27 0 0 0 415.09,480 16,16 0 0 0 432,464 c 0,-41.68 -16.6,-67.23 -42.39,-90.31 A 143.32,143.32 0 0 0 400,320 v -15.87 h 64 a 16,16 0 0 0 16,-16.77 c -0.42,-8.61 -7.84,-15.23 -16.45,-15.23 z"/></svg>