#filter dumbComments emptyLines substitution
# This Source Code Form is subject to the terms of the Mozilla Public
# License, v. 2.0. If a copy of the MPL was not distributed with this
# file, You can obtain one at http://mozilla.org/MPL/2.0/.
<svg fill="context-fill" fill-opacity="context-fill-opacity" viewBox="0 0 512 512" xmlns="http://www.w3.org/2000/svg" xmlns:svg="http://www.w3.org/2000/svg"><path d="m 391,480 c -19.52,0 -46.94,-7.06 -88,-30 C 253.07,422 214.45,396.15 164.79,346.62 116.91,298.77 93.61,267.79 61,208.45 24.16,141.45 30.44,106.33 37.46,91.32 45.82,73.38 58.16,62.65 74.11,52 a 176.3,176.3 0 0 1 28.64,-15.2 c 1,-0.43 1.93,-0.84 2.76,-1.21 4.95,-2.23 12.45,-5.6 21.95,-2 6.34,2.38 12,7.25 20.86,16 18.17,17.92 43,57.83 52.16,77.43 6.15,13.21 10.22,21.93 10.23,31.71 0,11.45 -5.76,20.28 -12.75,29.81 -1.31,1.79 -2.61,3.5 -3.87,5.16 -7.61,10 -9.28,12.89 -8.18,18.05 2.23,10.37 18.86,41.24 46.19,68.51 27.33,27.27 57.31,42.85 67.72,45.07 5.38,1.15 8.33,-0.59 18.65,-8.47 1.48,-1.13 3,-2.3 4.59,-3.47 10.66,-7.93 19.08,-13.54 30.26,-13.54 h 0.06 c 9.73,0 18.06,4.22 31.86,11.18 18,9.08 59.11,33.59 77.14,51.78 8.77,8.84 13.66,14.48 16.05,20.81 3.6,9.53 0.21,17 -2,22 -0.37,0.83 -0.78,1.74 -1.21,2.75 a 176.49,176.49 0 0 1 -15.29,28.58 c -10.63,15.9 -21.4,28.21 -39.38,36.58 A 67.42,67.42 0 0 1 391,480 Z"/></svg>