#filter dumbComments emptyLines substitution
# This Source Code Form is subject to the terms of the Mozilla Public
# License, v. 2.0. If a copy of the MPL was not distributed with this
# file, You can obtain one at http://mozilla.org/MPL/2.0/.
<svg fill="context-fill" fill-opacity="context-fill-opacity" viewBox="0 0 512 512" xmlns="http://www.w3.org/2000/svg" xmlns:svg="http://www.w3.org/2000/svg"><path d="M 398,81.84 A 227.4,227.4 0 0 0 255.82,32 C 194.9,32 138,55.47 95.46,98.09 54.35,139.33 31.82,193.78 32,251.37 a 215.66,215.66 0 0 0 35.65,118.76 l 0.19,0.27 c 0.28,0.41 0.57,0.82 0.86,1.22 0.29,0.4 0.65,0.92 0.73,1.05 l 0.22,0.4 c 1.13,2 2,4.44 1.23,6.9 l -18.42,66.66 a 29.13,29.13 0 0 0 -1.2,7.63 25.69,25.69 0 0 0 25.57,25.74 29.44,29.44 0 0 0 10.45,-2.29 l 67.49,-24.36 0.85,-0.33 a 14.75,14.75 0 0 1 5.8,-1.15 15.12,15.12 0 0 1 5.37,1 c 1.62,0.63 16.33,6.26 31.85,10.6 12.9,3.6 39.74,9 60.77,9 59.65,0 115.35,-23.1 156.83,-65.06 C 457.36,365.77 480,310.42 480,251.49 a 213.5,213.5 0 0 0 -4.78,-45 C 464.88,157.87 437.46,113.59 398,81.84 Z M 87.48,380 Z M 160,288 a 32,32 0 1 1 32,-32 32,32 0 0 1 -32,32 z m 96,0 a 32,32 0 1 1 32,-32 32,32 0 0 1 -32,32 z m 96,0 a 32,32 0 1 1 32,-32 32,32 0 0 1 -32,32 z"/></svg>