#filter dumbComments emptyLines substitution
# This Source Code Form is subject to the terms of the Mozilla Public
# License, v. 2.0. If a copy of the MPL was not distributed with this
# file, You can obtain one at http://mozilla.org/MPL/2.0/.
<svg fill="context-fill" fill-opacity="context-fill-opacity" viewBox="0 0 512 512" xmlns="http://www.w3.org/2000/svg" xmlns:svg="http://www.w3.org/2000/svg"><path d="M 400,48 H 112 a 64.07,64.07 0 0 0 -64,64 v 288 a 64.07,64.07 0 0 0 64,64 h 288 a 64.07,64.07 0 0 0 64,-64 V 112 A 64.07,64.07 0 0 0 400,48 Z m -35.75,138.29 -134.4,160 a 16,16 0 0 1 -12,5.71 h -0.27 a 16,16 0 0 1 -11.89,-5.3 l -57.6,-64 a 16,16 0 1 1 23.78,-21.4 l 45.29,50.32 122.59,-145.91 a 16,16 0 0 1 24.5,20.58 z"/></svg>