#filter dumbComments emptyLines substitution
# This Source Code Form is subject to the terms of the Mozilla Public
# License, v. 2.0. If a copy of the MPL was not distributed with this
# file, You can obtain one at http://mozilla.org/MPL/2.0/.
<svg fill="context-fill" fill-opacity="context-fill-opacity" viewBox="0 0 512 512" xmlns="http://www.w3.org/2000/svg" xmlns:svg="http://www.w3.org/2000/svg"><path d="M 396,432 H 136 C 99.56,432 65.64,419.43 40.49,396.59 14.38,372.88 0,340 0,304 0,267.42 13.39,235.88 38.72,212.78 56.83,196.25 80.94,184.53 107.9,178.91 a 16,16 0 0 0 11.37,-9.15 156.24,156.24 0 0 1 42.05,-56 C 187.76,91.69 220.5,80 256,80 a 153.57,153.57 0 0 1 107.14,42.9 c 24.73,23.81 41.5,55.28 49.18,92 a 16,16 0 0 0 12.12,12.39 C 470,237.42 512,270.43 512,328 c 0,33.39 -12.24,60.78 -35.41,79.23 C 456.23,423.43 428.37,432 396,432 Z"/></svg>