#filter dumbComments emptyLines substitution
# This Source Code Form is subject to the terms of the Mozilla Public
# License, v. 2.0. If a copy of the MPL was not distributed with this
# file, You can obtain one at http://mozilla.org/MPL/2.0/.
<svg fill="context-fill" fill-opacity="context-fill-opacity" viewBox="0 0 512 512" xmlns="http://www.w3.org/2000/svg" xmlns:svg="http://www.w3.org/2000/svg"><path d="M 413.92,312 C 367.38,331.41 308.35,343 256,343 203.65,343 144.61,331.41 98.07,312 81,304.83 66.38,293.19 54.43,284 A 4,4 0 0 0 48,287.2 V 317 c 0,6.41 5.2,14.47 14.62,22.71 11.13,9.74 27.66,19.33 47.79,27.74 42.83,17.87 97.25,28.55 145.59,28.55 48.34,0 102.76,-10.68 145.59,-28.57 20.13,-8.41 36.65,-18 47.78,-27.74 C 458.8,331.44 464,323.37 464,317 v -29.8 a 4,4 0 0 0 -6.43,-3.18 C 445.62,293.19 431,304.83 413.92,312 Z m 0,-86 C 367.39,245.43 308.35,257 256,257 203.65,257 144.61,245.43 98.07,226 81,218.85 66.38,207.21 54.43,198 A 4,4 0 0 0 48,201.22 V 232 c 0,6.41 5.2,14.48 14.63,22.73 11.13,9.74 27.65,19.33 47.78,27.74 42.83,17.87 97.26,28.53 145.59,28.53 48.33,0 102.76,-10.68 145.59,-28.57 20.13,-8.41 36.65,-18 47.78,-27.74 C 458.8,246.47 464,238.41 464,232 v -30.78 a 4,4 0 0 0 -6.43,-3.18 C 445.62,207.21 431,218.85 413.92,226 Z M 256,428 C 203.65,428 144.61,416.39 98.07,397 81,389.81 66.38,378.18 54.43,369 A 4,4 0 0 0 48,372.18 v 12.58 c 0,28.07 23.49,53.22 66.14,70.82 C 152.29,471.33 202.67,480 256,480 309.33,480 359.7,471.33 397.86,455.58 440.51,438 464,412.83 464,384.76 V 372.18 A 4,4 0 0 0 457.57,369 C 445.62,378.17 431,389.81 413.92,397 367.38,416.39 308.35,428 256,428 Z M 464,126.51 C 463.19,98.86 439.82,74.11 398,56.66 359.74,40.76 309.34,32 256,32 202.66,32 152.26,40.76 114.09,56.66 72.31,74.07 48.94,98.77 48.09,126.35 L 48,144 c 0,6.41 5.2,16.48 14.63,24.73 11.13,9.73 27.65,19.33 47.78,27.73 42.83,17.9 97.26,28.54 145.59,28.54 48.33,0 102.76,-10.68 145.59,-28.58 20.13,-8.4 36.65,-18 47.78,-27.73 C 458.8,160.49 464,150.42 464,144 Z"/></svg>