#filter dumbComments emptyLines substitution
# This Source Code Form is subject to the terms of the Mozilla Public
# License, v. 2.0. If a copy of the MPL was not distributed with this
# file, You can obtain one at http://mozilla.org/MPL/2.0/.
<svg fill="context-fill" fill-opacity="context-fill-opacity" viewBox="0 0 512 512" xmlns="http://www.w3.org/2000/svg" xmlns:svg="http://www.w3.org/2000/svg"><path d="m 437.33,378.41 c -13.94,-11.59 -43.72,-38.4 -74.07,-66.22 l -66.07,70.61 c 28.24,30 53.8,57.85 65,70.88 l 0.07,0.08 A 30,30 0 0 0 383.72,464 h 1.1 a 30.11,30.11 0 0 0 21,-8.62 l 0.07,-0.07 33.43,-33.37 a 29.46,29.46 0 0 0 -2,-43.53 z M 118.54,214.55 a 20.48,20.48 0 0 0 -3,-10.76 2.76,2.76 0 0 1 2.62,-4.22 h 0.06 c 0.84,0.09 5.33,0.74 11.7,4.61 4.73,2.87 18.23,12.08 41.73,35.54 a 34.23,34.23 0 0 0 7.22,22.12 l 66.23,-61.55 a 33.73,33.73 0 0 0 -21.6,-9.2 2.65,2.65 0 0 1 -0.21,-0.26 l -0.65,-0.69 -24.54,-33.84 a 28.45,28.45 0 0 1 -4,-26.11 35.23,35.23 0 0 1 11.78,-16.35 c 5.69,-4.41 18.53,-9.72 29.44,-10.62 a 52.92,52.92 0 0 1 15.19,0.94 65.57,65.57 0 0 1 7.06,2.13 15.46,15.46 0 0 0 2.15,0.63 16,16 0 0 0 16.38,-25.06 c -0.26,-0.35 -1.32,-1.79 -2.89,-3.73 a 91.85,91.85 0 0 0 -9.6,-10.36 C 255.46,60.41 234.34,48 206.61,48 a 123.13,123.13 0 0 0 -46.3,9 C 121.94,72.45 96.84,93.58 85.3,104.79 l -0.09,0.09 A 222.14,222.14 0 0 0 63.7,129.5 27,27 0 0 0 59,141.27 7.33,7.33 0 0 1 51.29,147.44 H 50.2 a 20.65,20.65 0 0 0 -14.59,5.9 L 6.16,182.05 5.84,182.37 A 20.89,20.89 0 0 0 5.6,211.09 c 0.19,0.2 0.37,0.39 0.57,0.58 L 53.67,258 a 21,21 0 0 0 14.65,6 20.65,20.65 0 0 0 14.59,-5.9 l 29.46,-28.79 a 20.51,20.51 0 0 0 6.17,-14.76 z M 503.58,126.2 a 16.85,16.85 0 0 0 -27.07,-4.55 l -51.15,51.15 a 11.15,11.15 0 0 1 -15.66,0 l -22.48,-22.48 a 11.17,11.17 0 0 1 0,-15.67 L 438.1,83.76 a 16.85,16.85 0 0 0 -5.27,-27.4 c -39.71,-17 -89.08,-7.45 -120,23.29 -26.81,26.61 -34.83,68 -22,113.7 a 11,11 0 0 1 -3.16,11.1 L 114.77,365.1 a 56.76,56.76 0 1 0 80.14,80.18 L 357,272.08 a 11,11 0 0 1 10.9,-3.17 c 45,12 86,4 112.43,-22 15.2,-15 25.81,-36.17 29.89,-59.71 3.83,-22.2 1.41,-44.44 -6.64,-61 z"/></svg>