#filter dumbComments emptyLines substitution
# This Source Code Form is subject to the terms of the Mozilla Public
# License, v. 2.0. If a copy of the MPL was not distributed with this
# file, You can obtain one at http://mozilla.org/MPL/2.0/.
<svg fill="context-fill" fill-opacity="context-fill-opacity" viewBox="0 0 512 512" xmlns="http://www.w3.org/2000/svg" xmlns:svg="http://www.w3.org/2000/svg"><path d="m 211,358 a 97.32,97.32 0 0 1 -68.36,-28.25 l -13.86,-13.86 a 8,8 0 0 0 -11.3,0 l -85,84.56 C 17.33,415.6 11.92,437.9 19.42,459.74 a 30.63,30.63 0 0 0 1.49,3.6 C 31,484 50.58,496 72,496 a 55.68,55.68 0 0 0 39.64,-16.44 L 225,365.66 a 4.69,4.69 0 0 0 1.32,-3.72 v -0.26 A 4.63,4.63 0 0 0 221.17,357.41 97.09,97.09 0 0 1 211,358 Z M 357.57,223.94 a 79.48,79.48 0 0 0 56.58,-23.44 l 77,-76.95 c 6.09,-6.09 6.65,-16 0.85,-22.39 a 16,16 0 0 0 -23.17,-0.56 l -68.63,68.58 a 12.29,12.29 0 0 1 -17.37,0 c -4.79,-4.78 -4.53,-12.86 0.25,-17.64 L 451.41,83.21 A 16,16 0 0 0 450.85,60.05 15.62,15.62 0 0 0 440.27,56 16.71,16.71 0 0 0 428.46,60.9 l -68.27,68.26 a 12.29,12.29 0 0 1 -17.37,0 c -4.78,-4.78 -4.53,-12.86 0.25,-17.64 L 411.4,43.21 A 16,16 0 0 0 410.84,20.05 15.62,15.62 0 0 0 400.26,16 16.73,16.73 0 0 0 388.45,20.9 L 311.5,97.85 a 79.49,79.49 0 0 0 -23.44,56.59 v 8.23 A 16,16 0 0 1 283.37,174 l -35.61,35.62 a 4,4 0 0 1 -5.66,0 L 68.82,36.33 A 16,16 0 0 0 46.24,36.27 C 31.09,51.28 23,72.47 23,97.54 c -0.1,41.4 21.66,89 56.79,124.08 l 85.45,85.45 A 64.79,64.79 0 0 0 211,326 a 64,64 0 0 0 16.21,-2.08 16.24,16.24 0 0 1 4.07,-0.53 15.93,15.93 0 0 1 10.83,4.25 l 11.39,10.52 a 16.12,16.12 0 0 1 4.6,11.23 v 5.54 a 47.73,47.73 0 0 0 13.77,33.65 l 90.05,91.57 0.09,0.1 a 53.291103,53.291103 0 0 0 75.36,-75.37 L 302.39,269.9 a 4,4 0 0 1 0,-5.66 L 338,228.63 a 16,16 0 0 1 11.32,-4.69 z"/></svg>