#filter dumbComments emptyLines substitution
# This Source Code Form is subject to the terms of the Mozilla Public
# License, v. 2.0. If a copy of the MPL was not distributed with this
# file, You can obtain one at http://mozilla.org/MPL/2.0/.
<svg fill="context-fill" fill-opacity="context-fill-opacity" viewBox="0 0 512 512" xmlns="http://www.w3.org/2000/svg" xmlns:svg="http://www.w3.org/2000/svg"><path d="M 345.14,480 H 274 a 18,18 0 0 1 -18,-18 v -27.71 a 31.32,31.32 0 0 0 -9.71,-22.77 c -7.78,-7.59 -19.08,-11.8 -30.89,-11.51 -21.36,0.5 -39.4,19.3 -39.4,41.06 V 462 a 18,18 0 0 1 -18,18 H 87.62 A 55.62,55.62 0 0 1 32,424.38 V 354 a 18,18 0 0 1 18,-18 h 27.71 c 9.16,0 18.07,-3.92 25.09,-11 A 42.06,42.06 0 0 0 115,295.08 C 114.7,273.89 97.26,256 76.91,256 H 50 A 18,18 0 0 1 32,238 V 167.62 A 55.62,55.62 0 0 1 87.62,112 h 55.24 a 8,8 0 0 0 8,-8 V 97.52 A 65.53,65.53 0 0 1 217.54,32 c 35.49,0.62 64.36,30.38 64.36,66.33 V 104 a 8,8 0 0 0 8,8 h 55.24 A 54.86,54.86 0 0 1 400,166.86 v 55.24 a 8,8 0 0 0 8,8 h 5.66 c 36.58,0 66.34,29 66.34,64.64 0,36.61 -29.39,66.4 -65.52,66.4 H 408 a 8,8 0 0 0 -8,8 v 56 A 54.86,54.86 0 0 1 345.14,480 Z"/></svg>