#filter dumbComments emptyLines substitution
# This Source Code Form is subject to the terms of the Mozilla Public
# License, v. 2.0. If a copy of the MPL was not distributed with this
# file, You can obtain one at http://mozilla.org/MPL/2.0/.
<svg fill="context-fill" fill-opacity="context-fill-opacity" viewBox="0 0 512 512" xmlns="http://www.w3.org/2000/svg" xmlns:svg="http://www.w3.org/2000/svg"><path d="m 108.69,320 a 23.87,23.87 0 0 1 17,7 l 15.51,15.51 a 4,4 0 0 0 5.66,0 L 162.34,327 a 23.87,23.87 0 0 1 17,-7 H 375.92 A 8,8 0 0 0 384,312.08 V 312 a 40.07,40.07 0 0 0 -32,-39.2 c -0.82,-29.69 -13,-54.54 -35.51,-72 C 295.67,184.56 267.85,176 236,176 H 164 C 95.78,176 49.57,214.77 48,272.8 a 40.07,40.07 0 0 0 -32,39.2 8,8 0 0 0 8,8 z m 77.25,32 a 8,8 0 0 0 -5.66,2.34 l -22.14,22.15 a 20,20 0 0 1 -28.28,0 L 107.72,354.34 A 8,8 0 0 0 102.06,352 H 32.66 A 15.93,15.93 0 0 0 16.9,365.17 65.22,65.22 0 0 0 16,376 c 0,30.59 21.13,55.51 47.26,56 2.43,15.12 8.31,28.78 17.16,39.47 C 93.51,487.28 112.54,496 134,496 h 132 c 21.46,0 40.49,-8.72 53.58,-24.55 8.85,-10.69 14.73,-24.35 17.16,-39.47 26.13,-0.47 47.26,-25.39 47.26,-56 A 65.22,65.22 0 0 0 383.1,365.15 15.93,15.93 0 0 0 367.34,352 Z M 368,128 h 0.09 M 479.55,96 h -91.06 l 8.92,-35.66 38.32,-13.05 c 8.15,-2.77 13,-11.43 10.65,-19.71 A 16,16 0 0 0 425.84,16.85 l -47,16 A 16,16 0 0 0 368.48,44.12 L 355.51,96 H 224.45 c -8.61,0 -16,6.62 -16.43,15.23 A 16,16 0 0 0 224,128 h 2.75 l 1,8.66 A 8.3,8.3 0 0 0 236,144 c 39,0 73.66,10.9 100.12,31.52 a 121.9,121.9 0 0 1 34.88,42.55 123.4,123.4 0 0 1 10.12,29.51 7.83,7.83 0 0 0 3.29,4.88 72,72 0 0 1 26.38,86.43 7.92,7.92 0 0 0 -0.15,5.53 A 96,96 0 0 1 416,376 c 0,22.34 -7.6,43.63 -21.4,59.95 a 80.12,80.12 0 0 1 -28.78,21.67 8,8 0 0 0 -4.21,4.37 108.19,108.19 0 0 1 -17.37,29.86 2.5,2.5 0 0 0 1.9,4.11 h 49.21 A 48.22,48.22 0 0 0 443.2,451.82 L 477.4,128 h 2.6 a 16,16 0 0 0 16,-16.77 C 495.58,102.62 488.16,96 479.55,96 Z"/></svg>