#filter dumbComments emptyLines substitution
# This Source Code Form is subject to the terms of the Mozilla Public
# License, v. 2.0. If a copy of the MPL was not distributed with this
# file, You can obtain one at http://mozilla.org/MPL/2.0/.
<svg fill="context-fill" fill-opacity="context-fill-opacity" viewBox="0 0 512 512" xmlns="http://www.w3.org/2000/svg" xmlns:svg="http://www.w3.org/2000/svg"><path d="m 335.45,256 a 214.8,214.8 0 0 1 29.08,-108 l 0.12,-0.21 4.62,-7.67 a 4,4 0 0 0 -2.59,-6 284.29,284.29 0 0 0 -39.26,-5.39 7.94,7.94 0 0 1 -4.29,-1.6 c -19.28,-14.66 -57.5,-40.3 -96.46,-46.89 a 16,16 0 0 0 -18,20.18 l 10.62,37.17 a 4,4 0 0 1 -2.42,4.84 c -36.85,13.69 -68.59,38.75 -91.74,57.85 a 8,8 0 0 1 -10.06,0.06 q -4.72,-3.75 -9.69,-7.39 C 65.74,164 19.17,160.19 17.21,160.05 a 16,16 0 0 0 -16.83,19.4 c 0.42,1.93 9.19,40.69 31.7,71.61 a 8.09,8.09 0 0 1 0,9.55 C 9.57,291.52 0.8,330.29 0.38,332.22 a 16,16 0 0 0 16.83,19.4 c 2,-0.14 48.53,-4 88.12,-32.88 q 4.85,-3.56 9.47,-7.22 a 8,8 0 0 1 10.06,0.07 c 23.25,19.19 55.05,44.28 92,58 a 4,4 0 0 1 2.42,4.83 l -10.66,37.18 a 16,16 0 0 0 18,20.18 c 17.16,-2.9 51.88,-12.86 96.05,-46.83 a 8.15,8.15 0 0 1 4.36,-1.65 287.36,287.36 0 0 0 39.22,-5.3 4,4 0 0 0 2.69,-5.83 l -4.51,-8.29 A 214.81,214.81 0 0 1 335.45,256 Z M 512,256 c 0,-16.54 -14.27,-46.76 -45.61,-74 a 207.06,207.06 0 0 0 -60.28,-36.12 3.15,3.15 0 0 0 -3.93,1.56 c -0.15,0.29 -0.3,0.57 -0.47,0.86 l -9.59,15.9 a 183.24,183.24 0 0 0 0.07,183.78 l 0.23,0.39 8.74,16 a 4,4 0 0 0 4.94,1.82 C 479.63,337.42 512,281.49 512,256 Z m -93.92,-0.14 a 16,16 0 1 1 13.79,-13.79 16,16 0 0 1 -13.79,13.79 z"/></svg>