#filter dumbComments emptyLines substitution
# This Source Code Form is subject to the terms of the Mozilla Public
# License, v. 2.0. If a copy of the MPL was not distributed with this
# file, You can obtain one at http://mozilla.org/MPL/2.0/.
<svg fill="context-fill" fill-opacity="context-fill-opacity" viewBox="0 0 512 512" xmlns="http://www.w3.org/2000/svg" xmlns:svg="http://www.w3.org/2000/svg"><path d="M 80,480 A 16,16 0 0 1 64,464 V 68.13 A 24,24 0 0 1 75.9,47.41 C 88,40.38 112.38,32 160,32 197.21,32 238.83,46.71 275.55,59.68 305.12,70.13 333.05,80 352,80 a 183.84,183.84 0 0 0 71,-14.5 18,18 0 0 1 25,16.58 v 219.36 a 20,20 0 0 1 -12,18.31 C 427.29,323.56 395.49,336 352,336 327.86,336 297.62,328.86 265.61,321.29 229.63,312.79 192.43,304 160,304 c -36.87,0 -55.74,5.58 -64,9.11 V 464 a 16,16 0 0 1 -16,16 z"/></svg>