#filter dumbComments emptyLines substitution
# This Source Code Form is subject to the terms of the Mozilla Public
# License, v. 2.0. If a copy of the MPL was not distributed with this
# file, You can obtain one at http://mozilla.org/MPL/2.0/.
<svg fill="context-fill" fill-opacity="context-fill-opacity" viewBox="0 0 512 512" xmlns="http://www.w3.org/2000/svg" xmlns:svg="http://www.w3.org/2000/svg"><path d="m 394.23,197.56 a 300.43,300.43 0 0 0 -53.37,-90 C 301.2,61.65 249.05,32 208,32 a 16,16 0 0 0 -15.48,20 c 13.87,53 -14.88,97.07 -45.31,143.72 C 122,234.36 96,274.27 96,320 c 0,88.22 71.78,160 160,160 88.22,0 160,-71.78 160,-160 0,-43.3 -7.32,-84.49 -21.77,-122.44 z M 288.33,418.69 C 278,429.69 265.05,432 256,432 246.95,432 234,429.69 223.67,418.69 213.34,407.69 208,390.24 208,368 c 0,-25.14 8.82,-44.28 17.34,-62.78 4.95,-10.74 10,-21.67 13,-33.37 A 8,8 0 0 1 250.83,267.34 126.48,126.48 0 0 1 275,292 c 18.17,24 29,52.42 29,76 0,22.24 -5.42,39.77 -15.67,50.69 z"/></svg>