#filter dumbComments emptyLines substitution
# This Source Code Form is subject to the terms of the Mozilla Public
# License, v. 2.0. If a copy of the MPL was not distributed with this
# file, You can obtain one at http://mozilla.org/MPL/2.0/.
<svg fill="context-fill" fill-opacity="context-fill-opacity" viewBox="0 0 512 512" xmlns="http://www.w3.org/2000/svg" xmlns:svg="http://www.w3.org/2000/svg"><path d="M 452.32,365 327.4,167.12 A 48.07,48.07 0 0 1 320,141.48 V 64 h 15.56 c 8.61,0 16,-6.62 16.43,-15.23 A 16,16 0 0 0 336,32 H 176.45 c -8.61,0 -16,6.62 -16.43,15.23 A 16,16 0 0 0 176,64 h 16 v 77.48 a 47.92,47.92 0 0 1 -7.41,25.63 L 59.68,365 a 74,74 0 0 0 -2.5,75.84 C 70.44,465.19 96.36,480 124.13,480 h 263.74 c 27.77,0 53.69,-14.81 66.95,-39.21 A 74,74 0 0 0 452.32,365 Z M 211.66,184.2 A 79.94,79.94 0 0 0 224,141.48 V 68 a 4,4 0 0 1 4,-4 h 56 a 4,4 0 0 1 4,4 v 73.48 a 79.94,79.94 0 0 0 12.35,42.72 l 57.8,91.53 A 8,8 0 0 1 351.37,288 H 160.63 a 8,8 0 0 1 -6.77,-12.27 z"/></svg>