#filter dumbComments emptyLines substitution
# This Source Code Form is subject to the terms of the Mozilla Public
# License, v. 2.0. If a copy of the MPL was not distributed with this
# file, You can obtain one at http://mozilla.org/MPL/2.0/.
<svg fill="context-fill" fill-opacity="context-fill-opacity" viewBox="0 0 512 512" xmlns="http://www.w3.org/2000/svg" xmlns:svg="http://www.w3.org/2000/svg"><path d="M 483.13,245.38 C 461.92,149.49 430,98.31 382.65,84.33 A 107.13,107.13 0 0 0 352,80 c -13.71,0 -25.65,3.34 -38.28,6.88 C 298.5,91.15 281.21,96 256,96 230.79,96 213.49,91.16 198.24,86.89 185.6,83.34 173.67,80 160,80 a 115.74,115.74 0 0 0 -31.73,4.32 c -47.1,13.92 -79,65.08 -100.52,161 C 4.61,348.54 16,413.71 59.69,428.83 a 56.62,56.62 0 0 0 18.64,3.22 c 29.93,0 53.93,-24.93 70.33,-45.34 18.53,-23.1 40.22,-34.82 107.34,-34.82 59.95,0 84.76,8.13 106.19,34.82 13.47,16.78 26.2,28.52 38.9,35.91 16.89,9.82 33.77,12 50.16,6.37 25.82,-8.81 40.62,-32.1 44,-69.24 2.57,-28.48 -1.39,-65.89 -12.12,-114.37 z M 208,240 h -32 v 32 a 16,16 0 0 1 -32,0 v -32 h -32 a 16,16 0 0 1 0,-32 h 32 v -32 a 16,16 0 0 1 32,0 v 32 h 32 a 16,16 0 0 1 0,32 z m 84,4 a 20,20 0 1 1 20,-20 20,20 0 0 1 -20,20 z m 44,44 A 20,20 0 1 1 356,268.05 20,20 0 0 1 336,288 Z m 0,-88 a 20,20 0 1 1 20,-20 20,20 0 0 1 -20,20 z m 44,44 a 20,20 0 1 1 20,-20 20,20 0 0 1 -20,20 z"/></svg>