#filter dumbComments emptyLines substitution
# This Source Code Form is subject to the terms of the Mozilla Public
# License, v. 2.0. If a copy of the MPL was not distributed with this
# file, You can obtain one at http://mozilla.org/MPL/2.0/.
<svg fill="context-fill" fill-opacity="context-fill-opacity" viewBox="0 0 512 512" xmlns="http://www.w3.org/2000/svg" xmlns:svg="http://www.w3.org/2000/svg"><path d="m 288,464 h -64 a 16,16 0 0 0 0,32 h 64 a 16,16 0 0 0 0,-32 z m 16,-48 h -96 a 16,16 0 0 0 0,32 h 96 a 16,16 0 0 0 0,-32 z M 369.42,62.69 C 339.35,32.58 299.07,16 256,16 A 159.62,159.62 0 0 0 96,176 c 0,46.62 17.87,90.23 49,119.64 l 4.36,4.09 C 167.37,316.57 192,339.64 192,360 v 24 a 16,16 0 0 0 16,16 h 24 a 8,8 0 0 0 8,-8 V 274.82 a 8,8 0 0 0 -5.13,-7.47 130.73,130.73 0 0 1 -26.16,-14.35 16,16 0 1 1 18.58,-26 c 7.4,5.24 21.65,13 28.71,13 7.06,0 21.31,-7.78 28.73,-13 a 16,16 0 0 1 18.56,26 130.73,130.73 0 0 1 -26.16,14.32 8,8 0 0 0 -5.13,7.47 V 392 a 8,8 0 0 0 8,8 h 24 a 16,16 0 0 0 16,-16 v -24 c 0,-19.88 24.36,-42.93 42.15,-59.77 l 4.91,-4.66 C 399.08,265 416,223.61 416,176 A 159.16,159.16 0 0 0 369.42,62.69 Z"/></svg>