#filter dumbComments emptyLines substitution
# This Source Code Form is subject to the terms of the Mozilla Public
# License, v. 2.0. If a copy of the MPL was not distributed with this
# file, You can obtain one at http://mozilla.org/MPL/2.0/.
<svg fill="context-fill" fill-opacity="context-fill-opacity" viewBox="0 0 512 512" xmlns="http://www.w3.org/2000/svg" xmlns:svg="http://www.w3.org/2000/svg"><path d="m 104,160 a 56,56 0 1 1 56,-56 56.06,56.06 0 0 1 -56,56 z m 152,0 a 56,56 0 1 1 56,-56 56.06,56.06 0 0 1 -56,56 z m 152,0 a 56,56 0 1 1 56,-56 56.06,56.06 0 0 1 -56,56 z M 104,312 a 56,56 0 1 1 56,-56 56.06,56.06 0 0 1 -56,56 z m 152,0 a 56,56 0 1 1 56,-56 56.06,56.06 0 0 1 -56,56 z m 152,0 a 56,56 0 1 1 56,-56 56.06,56.06 0 0 1 -56,56 z M 104,464 a 56,56 0 1 1 56,-56 56.06,56.06 0 0 1 -56,56 z m 152,0 a 56,56 0 1 1 56,-56 56.06,56.06 0 0 1 -56,56 z m 152,0 a 56,56 0 1 1 56,-56 56.06,56.06 0 0 1 -56,56 z"/></svg>