#filter dumbComments emptyLines substitution
# This Source Code Form is subject to the terms of the Mozilla Public
# License, v. 2.0. If a copy of the MPL was not distributed with this
# file, You can obtain one at http://mozilla.org/MPL/2.0/.
<svg fill="context-fill" fill-opacity="context-fill-opacity" viewBox="0 0 512 512" xmlns="http://www.w3.org/2000/svg" xmlns:svg="http://www.w3.org/2000/svg"><path d="m 256,448 a 32,32 0 0 1 -18,-5.57 C 159.41,389.08 125.38,352.5 106.61,329.63 66.61,280.88 47.46,230.83 48,176.63 48.63,114.52 98.46,64 159.08,64 c 44.08,0 74.61,24.83 92.39,45.51 a 6,6 0 0 0 9.06,0 C 278.31,88.81 308.84,64 352.92,64 c 60.62,0 110.45,50.52 111.08,112.64 0.54,54.21 -18.63,104.26 -58.61,153 -18.77,22.87 -52.8,59.45 -131.39,112.8 A 32,32 0 0 1 256,448 Z"/></svg>