#filter dumbComments emptyLines substitution
# This Source Code Form is subject to the terms of the Mozilla Public
# License, v. 2.0. If a copy of the MPL was not distributed with this
# file, You can obtain one at http://mozilla.org/MPL/2.0/.
<svg fill="context-fill" fill-opacity="context-fill-opacity" viewBox="0 0 512 512" xmlns="http://www.w3.org/2000/svg" xmlns:svg="http://www.w3.org/2000/svg"><path d="M 263.39,299.7 A 8,8 0 0 0 256,307.61 V 312 a 72.11,72.11 0 0 1 -50.69,68.76 8,8 0 0 0 -4.91,10.78 l 40.91,94.8 A 16,16 0 0 0 256,496 a 16,16 0 0 0 14.69,-9.7 l 73.78,-172.15 a 8,8 0 0 0 -6.2,-11.07 106.31,106.31 0 0 1 -35.9,-11.59 8,8 0 0 0 -7.13,-0.2 95,95 0 0 1 -31.85,8.41 z M 183,352 c -21.84,-0.52 -39,-18.9 -39,-40.74 v -34.07 a 8,8 0 0 0 -6,-7.74 C 104.25,260.6 80,229.74 80,192 a 80.14,80.14 0 0 1 66.27,-78.82 8,8 0 0 0 6.62,-6.83 104,104 0 0 1 206.22,0 8,8 0 0 0 6.62,6.83 A 80,80 0 0 1 352,272 74.33,74.33 0 0 1 304.55,254.59 7.93,7.93 0 0 0 294.63,254.45 62.89,62.89 0 0 1 256,268 80.47,80.47 0 0 1 234.2,264.82 8,8 0 0 0 224,272.51 V 312 a 40,40 0 0 1 -41,40 z"/></svg>