#filter dumbComments emptyLines substitution
# This Source Code Form is subject to the terms of the Mozilla Public
# License, v. 2.0. If a copy of the MPL was not distributed with this
# file, You can obtain one at http://mozilla.org/MPL/2.0/.
<svg fill="context-fill" fill-opacity="context-fill-opacity" viewBox="0 0 512 512" xmlns="http://www.w3.org/2000/svg" xmlns:svg="http://www.w3.org/2000/svg"><path d="M 416,64 H 96 a 64.07,64.07 0 0 0 -64,64 v 256 a 64.07,64.07 0 0 0 64,64 h 320 a 64.07,64.07 0 0 0 64,-64 V 128 A 64.07,64.07 0 0 0 416,64 Z m -80,64 a 48,48 0 1 1 -48,48 48.05,48.05 0 0 1 48,-48 z M 96,416 A 32,32 0 0 1 64,384 v -67.63 l 94.84,-84.3 a 48.06,48.06 0 0 1 65.8,1.9 L 289.59,298.78 172.37,416 Z m 352,-32 a 32,32 0 0 1 -32,32 H 217.63 L 339.05,294.58 a 47.72,47.72 0 0 1 61.64,-0.16 L 448,333.84 Z"/></svg>