#filter dumbComments emptyLines substitution
# This Source Code Form is subject to the terms of the Mozilla Public
# License, v. 2.0. If a copy of the MPL was not distributed with this
# file, You can obtain one at http://mozilla.org/MPL/2.0/.
<svg fill="context-fill" fill-opacity="context-fill-opacity" viewBox="0 0 512 512" xmlns="http://www.w3.org/2000/svg" xmlns:svg="http://www.w3.org/2000/svg"><path d="M 368,160 H 144 a 16,16 0 0 1 0,-32 h 224 a 16,16 0 0 1 0,32 z m 16,64 H 128 a 16,16 0 0 1 0,-32 h 256 a 16,16 0 0 1 0,32 z m 95.66,44.7 -32,-151.81 C 441.48,83.77 417.68,64 384,64 H 128 c -16.8,0 -31,4.69 -42.1,13.94 -11.1,9.25 -18.37,22.31 -21.58,38.89 l -32,151.87 A 16.65,16.65 0 0 0 32,272 v 112 a 64,64 0 0 0 64,64 h 320 a 64,64 0 0 0 64,-64 V 272 a 16.65,16.65 0 0 0 -0.34,-3.3 z m -384,-145.4 v -0.28 c 3.55,-18.43 13.81,-27 32.29,-27 H 384 c 18.61,0 28.87,8.55 32.27,26.91 0,0.13 0.05,0.26 0.07,0.39 l 26.93,127.88 a 4,4 0 0 1 -3.92,4.82 H 320 a 15.92,15.92 0 0 0 -16,15.82 48,48 0 1 1 -96,0 A 15.92,15.92 0 0 0 192,256 H 72.65 a 4,4 0 0 1 -3.92,-4.82 z"/></svg>