#filter dumbComments emptyLines substitution
# This Source Code Form is subject to the terms of the Mozilla Public
# License, v. 2.0. If a copy of the MPL was not distributed with this
# file, You can obtain one at http://mozilla.org/MPL/2.0/.
<svg fill="context-fill" fill-opacity="context-fill-opacity" viewBox="0 0 512 512" xmlns="http://www.w3.org/2000/svg" xmlns:svg="http://www.w3.org/2000/svg"><path d="m 441.36,330.8 -15.09,-6.8 -38.77,17.73 -94,42.95 c -10.5,4.78 -24,7.18 -37.44,7.18 -13.44,0 -26.93,-2.39 -37.42,-7.18 l -94.07,-43 L 85.79,324 70.57,330.84 C 63.79,333.93 48,343 48,360 c 0,17 15.79,26.07 22.56,29.15 l 148,67.59 C 229,461.52 242.54,464 256,464 c 13.46,0 26.88,-2.48 37.38,-7.27 L 441.3,389.16 c 6.82,-3.08 22.7,-12.1 22.7,-29.16 0,-17.06 -15.77,-26.07 -22.64,-29.2 z m 0,-103.99 -15.09,-6.81 -38.77,17.74 -94,43 c -10.5,4.8 -24,7.19 -37.44,7.19 -13.44,0 -26.93,-2.39 -37.42,-7.19 l -94.07,-43 L 85.79,220 70.57,226.84 C 63.79,229.93 48,239 48,256 c 0,17 15.79,26.08 22.56,29.17 l 148,67.63 c 10.44,4.8 23.93,7.2 37.44,7.2 13.51,0 26.94,-2.4 37.44,-7.19 L 441.31,285.2 C 448.12,282.11 464,273.09 464,256 464,238.91 448.23,229.93 441.36,226.81 Z M 256,256 c -13.47,0 -26.94,-2.39 -37.44,-7.17 l -148,-67.49 C 63.79,178.26 48,169.25 48,152.24 c 0,-17.01 15.79,-26 22.58,-29.12 L 219.86,55.05 c 20.57,-9.4 51.61,-9.4 72.19,0 l 149.37,68.07 c 6.79,3.09 22.58,12.1 22.58,29.12 0,17.02 -15.79,26 -22.58,29.11 l -148,67.48 C 282.94,253.61 269.47,256 256,256 Z M 432.76,155.14 Z"/></svg>