#filter dumbComments emptyLines substitution
# This Source Code Form is subject to the terms of the Mozilla Public
# License, v. 2.0. If a copy of the MPL was not distributed with this
# file, You can obtain one at http://mozilla.org/MPL/2.0/.
<svg fill="context-fill" fill-opacity="context-fill-opacity" viewBox="0 0 512 512" xmlns="http://www.w3.org/2000/svg" xmlns:svg="http://www.w3.org/2000/svg"><path d="m 161.35,242 a 16,16 0 0 1 22.62,-0.68 c 73.63,69.36 147.51,111.56 234.45,133.07 11.73,-32 12.77,-67.22 2.64,-101.58 C 407.62,227.22 376.32,187.5 330.57,157.95 289.73,131.57 248.91,124.7 209.42,118.06 159.6,109.68 112.54,101.76 67.63,54.21 c -5,-5.26 -11.81,-7.37 -18.32,-5.66 -7.44,2 -12.43,7.88 -14.82,17.6 -5.6,22.75 -2,86.51 13.75,153.82 25.29,108.14 65.65,162.86 95.06,189.73 38,34.69 87.62,53.9 136.93,53.9 A 186,186 0 0 0 308,461.56 c 41.71,-6.32 76.43,-27.27 96,-57.75 C 314.51,380.53 238.06,336.26 162,264.65 A 16,16 0 0 1 161.35,242 Z m 306.08,142.19 c -16.83,-2.59 -33.13,-5.84 -49,-9.77 A 157.71,157.71 0 0 1 406.3,400.1 c -0.73,1.25 -1.5,2.49 -2.29,3.71 a 584.21,584.21 0 0 0 58.56,12 16,16 0 1 0 4.87,-31.62 z"/></svg>