#filter dumbComments emptyLines substitution
# This Source Code Form is subject to the terms of the Mozilla Public
# License, v. 2.0. If a copy of the MPL was not distributed with this
# file, You can obtain one at http://mozilla.org/MPL/2.0/.
<svg fill="context-fill" fill-opacity="context-fill-opacity" viewBox="0 0 512 512" xmlns="http://www.w3.org/2000/svg" xmlns:svg="http://www.w3.org/2000/svg"><path d="m 256,32 c -88.22,0 -160,68.65 -160,153 0,40.17 18.31,93.59 54.42,158.78 29,52.34 62.55,99.67 80,123.22 a 31.75,31.75 0 0 0 51.22,0 c 17.42,-23.55 51,-70.88 80,-123.22 C 397.69,278.61 416,225.19 416,185 416,100.65 344.22,32 256,32 Z m 0,224 a 64,64 0 1 1 64,-64 64.07,64.07 0 0 1 -64,64 z m 32,-64 a 32,32 0 0 1 -32,32 32,32 0 0 1 -32,-32 32,32 0 0 1 32,-32 32,32 0 0 1 32,32 z"/></svg>