#filter dumbComments emptyLines substitution
# This Source Code Form is subject to the terms of the Mozilla Public
# License, v. 2.0. If a copy of the MPL was not distributed with this
# file, You can obtain one at http://mozilla.org/MPL/2.0/.
<svg fill="context-fill" fill-opacity="context-fill-opacity" viewBox="0 0 512 512" xmlns="http://www.w3.org/2000/svg" xmlns:svg="http://www.w3.org/2000/svg"><path d="M219.797 355.243c-60.522-7.339-103.146-50.88-103.146-107.264 0-22.912 8.256-47.68 21.994-64.171-5.952-15.125-5.034-47.232 1.835-60.523 18.347-2.282 43.093 7.339 57.771 20.63 17.408-5.504 35.754-8.235 58.197-8.235s40.811 2.731 57.301 7.787c14.208-12.843 39.424-22.464 57.771-20.182 6.4 12.395 7.339 44.48 1.365 60.054 14.678 17.429 22.464 40.81 22.464 64.64 0 56.384-42.624 99.008-104.042 106.794 15.573 10.091 26.112 32.086 26.112 57.302v47.68c0 13.738 11.456 21.546 25.216 16.042 82.965-31.637 148.053-114.602 148.053-217.28 0-129.728-105.429-235.605-235.136-235.605-129.728 0-234.24 105.877-234.24 235.605a231.255 231.255 0 0 0 151.723 217.728c12.373 4.587 24.298-3.669 24.298-16.042v-36.672a59.7 59.7 0 0 1-22.016 4.586c-30.25 0-48.128-16.49-60.949-47.21-5.056-12.374-10.56-19.712-21.099-21.078-5.504-.469-7.338-2.752-7.338-5.504 0-5.504 9.173-9.621 18.346-9.621 13.291 0 24.747 8.235 36.672 25.195 9.174 13.29 18.795 19.264 30.251 19.264s18.795-4.139 29.333-14.678c7.787-7.786 13.76-14.656 19.264-19.242"/></svg>