#filter dumbComments emptyLines substitution
# This Source Code Form is subject to the terms of the Mozilla Public
# License, v. 2.0. If a copy of the MPL was not distributed with this
# file, You can obtain one at http://mozilla.org/MPL/2.0/.
<svg fill="context-fill" fill-opacity="context-fill-opacity" viewBox="0 0 512 512" xmlns="http://www.w3.org/2000/svg" xmlns:svg="http://www.w3.org/2000/svg"><path d="M 240,480 V 443.58 C 160.53,439 112.25,398.06 112,336 h 72 c 1.77,26.34 23.86,46.45 56,50 v -98 l -26.77,-7 C 152.23,266.82 119.59,231.61 119.59,178.92 119.59,116.81 164.08,76.08 240,70 V 32 h 32 v 38 c 77.39,6.3 119,47.74 120,106 h -72 c -0.76,-24.06 -15.83,-43.39 -48,-46 v 92 l 30.82,7.28 C 367.61,243.46 400,277 400,332 400,396.34 356.26,437.88 272,443.32 V 480 Z m 0,-264 v -86 c -27.59,1.52 -47.27,18.47 -47.27,42.53 0,22.3 16.39,36.88 47.27,43.47 z m 32,78 v 92 c 38.15,-1.54 56.38,-18.92 56.38,-45.77 0,-24.58 -18.23,-41.13 -56.38,-46.23 z"/></svg>