#filter dumbComments emptyLines substitution
# This Source Code Form is subject to the terms of the Mozilla Public
# License, v. 2.0. If a copy of the MPL was not distributed with this
# file, You can obtain one at http://mozilla.org/MPL/2.0/.
<svg fill="context-fill" fill-opacity="context-fill-opacity" viewBox="0 0 512 512" xmlns="http://www.w3.org/2000/svg" xmlns:svg="http://www.w3.org/2000/svg"><path d="M 48.17,113.34 A 32,32 0 0 0 32,141.24 V 438 a 32,32 0 0 0 47,28.37 c 0.43,-0.23 0.85,-0.47 1.26,-0.74 l 84.14,-55.05 a 8,8 0 0 0 3.63,-6.72 V 46.45 A 8,8 0 0 0 155.52,39.82 Z M 212.36,39.31 A 8,8 0 0 0 200,46 v 357.56 a 8,8 0 0 0 3.63,6.72 l 96,62.42 A 8,8 0 0 0 312,466 V 108.67 a 8,8 0 0 0 -3.64,-6.73 z m 252.17,7.16 a 31.64,31.64 0 0 0 -31.5,-0.88 12.07,12.07 0 0 0 -1.25,0.74 l -84.15,55 a 8,8 0 0 0 -3.63,6.72 v 357.46 a 8,8 0 0 0 12.52,6.63 l 107.07,-73.46 a 32,32 0 0 0 16.41,-28 v -296 A 32.76,32.76 0 0 0 464.53,46.47 Z"/></svg>