#filter dumbComments emptyLines substitution
# This Source Code Form is subject to the terms of the Mozilla Public
# License, v. 2.0. If a copy of the MPL was not distributed with this
# file, You can obtain one at http://mozilla.org/MPL/2.0/.
<svg fill="context-fill" fill-opacity="context-fill-opacity" viewBox="0 0 512 512" xmlns="http://www.w3.org/2000/svg" xmlns:svg="http://www.w3.org/2000/svg"><path d="m 48,176 v 0.66 a 17.38,17.38 0 0 1 -4.2,11.23 v 0.05 C 38.4,194.32 32,205.74 32,224 c 0,16.55 5.3,28.23 11.68,35.91 A 19,19 0 0 1 48,272 32,32 0 0 0 80,304 h 8 a 8,8 0 0 0 8,-8 V 152 a 8,8 0 0 0 -8,-8 h -8 a 32,32 0 0 0 -32,32 z m 404.18,10.55 -0.93,-0.17 A 4,4 0 0 1 448,182.45 V 62 c 0,-12.64 -8.39,-24 -20.89,-28.32 -11.92,-4.11 -24.34,-0.76 -31.68,8.53 A 431.18,431.18 0 0 1 344.12,93.9 c -23.63,20 -46.24,34.25 -67,42.31 a 8,8 0 0 0 -5.15,7.47 V 299 a 16,16 0 0 0 9.69,14.69 c 19.34,8.29 40.24,21.83 62,40.28 a 433.74,433.74 0 0 1 51.68,52.16 26.22,26.22 0 0 0 21.1,9.87 33.07,33.07 0 0 0 10.44,-1.74 C 439.71,410 448,399.05 448,386.4 V 265.53 a 4,4 0 0 1 3.33,-3.94 l 0.85,-0.14 C 461.8,258.84 480,247.67 480,224 480,200.33 461.8,189.16 452.18,186.55 Z M 240,320 V 152 a 8,8 0 0 0 -8,-8 h -96 a 8,8 0 0 0 -8,8 v 304 a 24,24 0 0 0 24,24 h 52.45 a 32.66,32.66 0 0 0 25.93,-12.45 31.65,31.65 0 0 0 5.21,-29.05 c -1.62,-5.18 -3.63,-11 -5.77,-17.19 -7.91,-22.9 -18.34,-37.07 -21.12,-69.32 A 32,32 0 0 0 240,320 Z"/></svg>