#filter dumbComments emptyLines substitution
# This Source Code Form is subject to the terms of the Mozilla Public
# License, v. 2.0. If a copy of the MPL was not distributed with this
# file, You can obtain one at http://mozilla.org/MPL/2.0/.
<svg fill="context-fill" fill-opacity="context-fill-opacity" viewBox="0 0 512 512" xmlns="http://www.w3.org/2000/svg" xmlns:svg="http://www.w3.org/2000/svg"><path d="M 258.9,48 C 141.92,46.42 46.42,141.92 48,258.9 49.56,371.09 140.91,462.44 253.1,464 370.1,465.6 465.58,370.1 463.98,253.12 462.44,140.91 371.09,49.56 258.9,48 Z m 170.1,191.92 -93.08,-0.1 a 2,2 0 0 1 -1.95,-1.57 80.08,80.08 0 0 0 -27.44,-44.17 2,2 0 0 1 -0.54,-2.43 l 41.32,-83.43 a 2,2 0 0 1 2.87,-0.81 176.2,176.2 0 0 1 80.82,130.3 2,2 0 0 1 -2,2.21 z M 208.2,260.38 A 48,48 0 1 1 251.62,303.8 48,48 0 0 1 208.2,260.38 Z M 164.65,108.22 206,191.65 a 2,2 0 0 1 -0.54,2.43 80.08,80.08 0 0 0 -27.46,44.17 2,2 0 0 1 -2,1.57 l -93.08,0.1 a 2,2 0 0 1 -2,-2.21 176.2,176.2 0 0 1 80.82,-130.3 2,2 0 0 1 2.91,0.81 z m -0.37,295.34 56.31,-74.09 a 2,2 0 0 1 2.43,-0.6 79.84,79.84 0 0 0 66,0 2,2 0 0 1 2.43,0.6 l 56.31,74.09 a 2,2 0 0 1 -0.54,2.92 175.65,175.65 0 0 1 -182.36,0 2,2 0 0 1 -0.58,-2.92 z"/></svg>