#filter dumbComments emptyLines substitution
# This Source Code Form is subject to the terms of the Mozilla Public
# License, v. 2.0. If a copy of the MPL was not distributed with this
# file, You can obtain one at http://mozilla.org/MPL/2.0/.
<svg fill="context-fill" fill-opacity="context-fill-opacity" viewBox="0 0 512 512" xmlns="http://www.w3.org/2000/svg" xmlns:svg="http://www.w3.org/2000/svg"><path d="M 419.22,188.59 275.41,44.78 A 2,2 0 0 0 272,46.19 V 176 a 16,16 0 0 0 16,16 h 129.81 a 2,2 0 0 0 1.41,-3.41 z M 428,224 H 288 A 48,48 0 0 1 240,176 V 36 a 4,4 0 0 0 -4,-4 H 144 A 64,64 0 0 0 80,96 v 320 a 64,64 0 0 0 64,64 h 224 a 64,64 0 0 0 64,-64 V 228 a 4,4 0 0 0 -4,-4 z"/></svg>