#filter dumbComments emptyLines substitution
# This Source Code Form is subject to the terms of the Mozilla Public
# License, v. 2.0. If a copy of the MPL was not distributed with this
# file, You can obtain one at http://mozilla.org/MPL/2.0/.
<svg fill="context-fill" fill-opacity="context-fill-opacity" viewBox="0 0 512 512" xmlns="http://www.w3.org/2000/svg" xmlns:svg="http://www.w3.org/2000/svg"><path d="m 490.39,182.75 c -5.55,-13.19 -14.77,-22.7 -26.67,-27.49 l -0.16,-0.06 a 46.46,46.46 0 0 0 -17,-3.2 h -0.64 c -27.24,0.41 -55.05,23.56 -69.19,57.61 -10.37,24.9 -11.56,51.68 -3.18,71.64 5.54,13.2 14.78,22.71 26.73,27.5 l 0.13,0.05 a 46.53,46.53 0 0 0 17,3.2 c 27.5,0 55.6,-23.15 70,-57.65 10.24,-24.87 11.37,-51.63 2.98,-71.6 z M 381.55,329.61 C 365.84,320.17 350.99,311.24 341.29,295.2 314.53,250.8 298.37,224 256,224 c -42.37,0 -58.57,26.8 -85.39,71.2 -9.72,16.06 -24.6,25 -40.36,34.48 -18.07,10.86 -36.74,22.08 -44.8,44.16 a 66.93,66.93 0 0 0 -4.65,25 c 0,35.95 28,65.2 62.4,65.2 17.75,0 36.64,-6.15 56.63,-12.66 19.22,-6.26 39.09,-12.73 56.27,-12.73 17.18,0 37,6.47 56.15,12.73 19.95,6.47 38.75,12.62 56.55,12.62 34.35,0 62.3,-29.25 62.3,-65.2 a 67,67 0 0 0 -4.75,-25 c -8.06,-22.1 -26.74,-33.33 -44.8,-44.19 z M 150,188.85 c 11.9,14.93 27,23.15 42.52,23.15 a 42.88,42.88 0 0 0 6.33,-0.47 c 32.37,-4.76 52.54,-44.26 45.92,-90 C 242,102.3 234.6,84.39 224,71.11 212.12,56.21 197,48 181.49,48 a 42.88,42.88 0 0 0 -6.33,0.47 c -32.37,4.76 -52.54,44.26 -45.92,90 2.76,19.2 10.16,37.09 20.76,50.38 z m 163.16,22.68 a 42.88,42.88 0 0 0 6.33,0.47 c 15.53,0 30.62,-8.22 42.52,-23.15 10.59,-13.29 17.95,-31.18 20.75,-50.4 6.62,-45.72 -13.55,-85.22 -45.92,-90 a 42.88,42.88 0 0 0 -6.33,-0.47 C 315,48 299.88,56.21 288,71.11 c -10.6,13.28 -18,31.19 -20.76,50.44 -6.62,45.72 13.55,85.22 45.92,89.98 z m -201.57,97.27 0.14,-0.05 c 11.93,-4.79 21.16,-14.29 26.69,-27.48 8.38,-20 7.2,-46.75 -3.15,-71.65 C 120.94,175.16 92.85,152 65.38,152 a 46.4,46.4 0 0 0 -17,3.2 l -0.14,0.05 c -11.9,4.75 -21.13,14.29 -26.66,27.48 -8.38,20 -7.2,46.75 3.15,71.65 C 39.06,288.84 67.15,312 94.62,312 a 46.4,46.4 0 0 0 16.97,-3.2 z"/></svg>