#filter dumbComments emptyLines substitution
# This Source Code Form is subject to the terms of the Mozilla Public
# License, v. 2.0. If a copy of the MPL was not distributed with this
# file, You can obtain one at http://mozilla.org/MPL/2.0/.
<svg fill="context-fill" fill-opacity="context-fill-opacity" viewBox="0 0 512 512" xmlns="http://www.w3.org/2000/svg" xmlns:svg="http://www.w3.org/2000/svg"><path d="m 336,256 c -20.56,0 -40.44,-9.18 -56,-25.84 -15.13,-16.25 -24.37,-37.92 -26,-61 -1.74,-24.62 5.77,-47.26 21.14,-63.76 C 290.51,88.9 312,80 336,80 c 23.83,0 45.38,9.06 60.7,25.52 15.47,16.62 23,39.22 21.26,63.63 -1.67,23.11 -10.9,44.77 -26,61 C 376.44,246.82 356.57,256 336,256 Z m 66,-88 z m 65.83,264 H 204.18 a 27.71,27.71 0 0 1 -22,-10.67 30.22,30.22 0 0 1 -5.26,-25.79 c 8.42,-33.81 29.28,-61.85 60.32,-81.08 C 264.79,297.4 299.86,288 336,288 c 36.85,0 71,9 98.71,26.05 31.11,19.13 52,47.33 60.38,81.55 A 30.27,30.27 0 0 1 489.77,421.38 27.68,27.68 0 0 1 467.83,432 Z M 147,260 c -35.19,0 -66.13,-32.72 -69,-72.93 -1.42,-20.6 5,-39.65 18,-53.62 12.86,-13.83 31,-21.45 51,-21.45 20,0 38,7.66 50.93,21.57 13.1,14.08 19.5,33.09 18,53.52 C 213.06,227.29 182.13,260 147,260 Z m 65.66,31.45 c -17.59,-8.6 -40.42,-12.9 -65.65,-12.9 -29.46,0 -58.07,7.68 -80.57,21.62 -25.51,15.83 -42.67,38.88 -49.6,66.71 a 27.39,27.39 0 0 0 4.79,23.36 25.32,25.32 0 0 0 20.09,9.76 h 111 a 8,8 0 0 0 7.87,-6.57 c 0.11,-0.63 0.25,-1.26 0.41,-1.88 8.48,-34.06 28.35,-62.84 57.71,-83.82 a 8,8 0 0 0 -0.63,-13.39 c -1.57,-0.92 -3.37,-1.89 -5.42,-2.89 z"/></svg>