#filter dumbComments emptyLines substitution
# This Source Code Form is subject to the terms of the Mozilla Public
# License, v. 2.0. If a copy of the MPL was not distributed with this
# file, You can obtain one at http://mozilla.org/MPL/2.0/.
<svg fill="context-fill" fill-opacity="context-fill-opacity" viewBox="0 0 512 512" xmlns="http://www.w3.org/2000/svg" xmlns:svg="http://www.w3.org/2000/svg"><path d="M 409.18,140.86 C 363.67,122.53 307.68,112 255.56,112 a 425,425 0 0 0 -153.74,28.89 c -0.53,0.21 -2.06,0.88 -4.29,1.88 a 16,16 0 0 0 -8,21.27 c 4,8.71 9.42,20.58 15.5,33.89 C 137.94,270 199.21,404 227.26,462 a 31.74,31.74 0 0 0 28.74,18 31.73,31.73 0 0 0 28.76,-18.06 l 0.06,-0.13 137.3,-297.57 a 15.94,15.94 0 0 0 -8.31,-21.45 c -2.26,-0.95 -3.85,-1.61 -4.5,-1.87 z m -215.1,83.07 a 32,32 0 1 1 29.85,-29.85 32,32 0 0 1 -29.85,29.85 z m 64,128 a 32,32 0 1 1 29.85,-29.85 32,32 0 0 1 -29.85,29.85 z m 64,-112 a 32,32 0 1 1 29.85,-29.85 32,32 0 0 1 -29.85,29.85 z M 441.82,67.83 C 383.44,44.73 317.3,32 255.56,32 192,32 125.76,44.53 69,67.26 48.7,75.49 45.21,90 48.71,100.82 L 52.78,111 a 16,16 0 0 0 21.31,8.69 c 10.8,-4.76 23.93,-10.54 27,-11.78 C 145.1,89.64 198.71,80 256,80 c 57.47,0 108.09,9.24 154.76,28.25 4.42,1.8 14.88,6.42 26.17,11.46 a 16,16 0 0 0 21.35,-8.59 L 462,102 l 0.34,-0.9 c 3.45,-10.21 0.14,-25.05 -20.52,-33.27 z"/></svg>