#filter dumbComments emptyLines substitution
# This Source Code Form is subject to the terms of the Mozilla Public
# License, v. 2.0. If a copy of the MPL was not distributed with this
# file, You can obtain one at http://mozilla.org/MPL/2.0/.
<svg fill="context-fill" fill-opacity="context-fill-opacity" viewBox="0 0 512 512" xmlns="http://www.w3.org/2000/svg" xmlns:svg="http://www.w3.org/2000/svg"><path d="m 96.85,286.62 a 8,8 0 0 0 -12.53,8.25 C 102.07,373.28 172.3,432 256,432 a 175.31,175.31 0 0 0 52.41,-8 8,8 0 0 0 0.79,-15 A 1120,1120 0 0 1 199.72,353.39 1126.24,1126.24 0 0 1 96.85,286.62 Z m 395.87,52.89 c -4.19,-5.58 -9.11,-11.44 -14.7,-17.53 a 15.83,15.83 0 0 0 -26.56,5.13 c 0,0.16 -0.11,0.31 -0.17,0.47 a 15.75,15.75 0 0 0 3.15,16.06 c 22.74,25 26.42,38.51 25.48,41.36 -2,2.23 -17.05,6.89 -58.15,-3.53 q -8.83,-2.24 -19.32,-5.46 -6.76,-2.08 -13.79,-4.49 a 176.76,176.76 0 0 0 19.54,-27.25 c 0.17,-0.29 0.35,-0.58 0.52,-0.88 A 175.39,175.39 0 0 0 432,256 178.87,178.87 0 0 0 431,237 C 421.43,148.83 346.6,80 256,80 a 175.37,175.37 0 0 0 -106.4,35.89 177.4,177.4 0 0 0 -45.83,51.84 c -0.16,0.29 -0.34,0.58 -0.51,0.87 a 175.48,175.48 0 0 0 -13.83,30.52 q -5.59,-4.87 -10.79,-9.67 c -5.39,-5 -10.17,-9.63 -14.42,-14 C 34.65,145.19 31.13,129.84 32.06,127 c 2,-2.23 15.54,-5.87 48.62,1.31 A 15.82,15.82 0 0 0 96.22,123 l 0.36,-0.44 A 15.74,15.74 0 0 0 87.91,97.13 237.38,237.38 0 0 0 64.13,93 C 33.41,89.47 13.3,95.52 4.35,111 1.11,116.58 -2,126.09 1.63,139.6 7,159.66 26.14,184 53.23,209.5 c 8.63,8.13 18.06,16.37 28.12,24.64 7.32,6 15,12.06 22.9,18.08 q 7.91,6 16.15,12 8.24,6 16.7,11.78 c 25.41,17.61 52.26,34.52 78.59,49.69 q 14.34,8.26 28.64,16 14.3,7.74 28.37,14.81 c 21.9,11 43.35,20.92 63.86,29.43 q 13.19,5.48 25.81,10.16 c 11.89,4.42 23.37,8.31 34.31,11.59 l 1.1,0.33 c 25.73,7.66 47.42,11.69 64.48,12 H 464 c 21.64,0 36.3,-6.38 43.58,-19 9.09,-15.62 4.08,-36.32 -14.86,-61.5 z"/></svg>