#filter dumbComments emptyLines substitution
# This Source Code Form is subject to the terms of the Mozilla Public
# License, v. 2.0. If a copy of the MPL was not distributed with this
# file, You can obtain one at http://mozilla.org/MPL/2.0/.
<svg fill="context-fill" fill-opacity="context-fill-opacity" viewBox="0 0 512 512" xmlns="http://www.w3.org/2000/svg" xmlns:svg="http://www.w3.org/2000/svg"><path d="m 80,416 a 64,64 0 0 0 64,64 h 92 a 4,4 0 0 0 4,-4 V 292 a 4,4 0 0 0 -4,-4 H 88 a 8,8 0 0 0 -8,8 z M 240,252 V 144 h 32 v 108 a 4,4 0 0 0 4,4 h 140 a 47.93,47.93 0 0 0 16,-2.75 48.09,48.09 0 0 0 32,-45.25 v -16 a 48,48 0 0 0 -48,-48 h -40.54 a 2,2 0 0 1 -1.7,-3 A 72,72 0 0 0 256,58.82 72,72 0 0 0 138.24,141 a 2,2 0 0 1 -1.7,3 H 96 a 48,48 0 0 0 -48,48 v 16 a 48.09,48.09 0 0 0 32,45.25 47.93,47.93 0 0 0 16,2.75 h 140 a 4,4 0 0 0 4,-4 z m 32,-148 a 40,40 0 1 1 40,40 H 272 Z M 197.14,64.1 A 40,40 0 0 1 240,104 v 40 H 200 A 40,40 0 0 1 197.14,64.11 Z M 276,480 h 92 a 64,64 0 0 0 64,-64 V 296 a 8,8 0 0 0 -8,-8 H 276 a 4,4 0 0 0 -4,4 v 184 a 4,4 0 0 0 4,4 z M 200,144 h 40 v -40 a 40,40 0 1 0 -40,40 z m 152,-40 a 40,40 0 0 0 -80,0 v 40 h 40 a 40,40 0 0 0 40,-40 z"/></svg>