#filter dumbComments emptyLines substitution
# This Source Code Form is subject to the terms of the Mozilla Public
# License, v. 2.0. If a copy of the MPL was not distributed with this
# file, You can obtain one at http://mozilla.org/MPL/2.0/.
<svg fill="context-fill" fill-opacity="context-fill-opacity" viewBox="0 0 512 512" xmlns="http://www.w3.org/2000/svg" xmlns:svg="http://www.w3.org/2000/svg"><path d="m 161.93,386.44 a 16,16 0 0 0 -11,2.67 c -6.39,4.37 -12.81,8.69 -19.29,12.9 -13.11,8.52 -28.79,-6.44 -21,-20 l 12.15,-21 A 16,16 0 0 0 107.63,336.1 61.25,61.25 0 0 0 72,353.56 c -3.66,3.67 -14.79,14.81 -20.78,57.26 A 357.94,357.94 0 0 0 48,447.59 16,16 0 0 0 64,464 h 0.4 a 359.87,359.87 0 0 0 36.8,-3.2 c 42.47,-6 53.61,-17.14 57.27,-20.8 a 60.49,60.49 0 0 0 17.39,-35.74 16,16 0 0 0 -13.93,-17.82 z M 477.44,50.06 a 0.29,0.29 0 0 1 0,-0.09 20.4,20.4 0 0 0 -15.13,-15.3 c -29.8,-7.27 -76.68,0.48 -128.63,21.28 -52.36,21 -101.42,52 -134.58,85.22 A 320.7,320.7 0 0 0 169.55,175 c -22.33,-1 -42,2.18 -58.57,9.41 -57.74,25.41 -74.23,90.44 -78.62,117.14 a 25,25 0 0 0 27.19,29 h 0.13 L 124,323.53 c 0.08,0.82 0.17,1.57 0.24,2.26 a 34.36,34.36 0 0 0 9.9,20.72 l 31.39,31.41 a 34.27,34.27 0 0 0 20.71,9.91 l 2.15,0.23 -7,64.24 v 0.13 A 25,25 0 0 0 206,480 a 25.25,25.25 0 0 0 4.15,-0.34 C 237,475.34 302,459.05 327.34,401 c 7.17,-16.46 10.34,-36.05 9.45,-58.34 a 314.78,314.78 0 0 0 33.95,-29.55 C 404.17,279.85 435.27,231.19 456.05,179.59 476.74,128.23 484.53,81 477.44,50.06 Z M 370.38,224.94 a 58.77,58.77 0 1 1 0,-83.07 58.3,58.3 0 0 1 0,83.07 z m -41.53,-68.15 a 26.69,26.69 0 1 0 18.88,7.81 26.6,26.6 0 0 0 -18.88,-7.81 z"/></svg>