#filter dumbComments emptyLines substitution
# This Source Code Form is subject to the terms of the Mozilla Public
# License, v. 2.0. If a copy of the MPL was not distributed with this
# file, You can obtain one at http://mozilla.org/MPL/2.0/.
<svg fill="context-fill" fill-opacity="context-fill-opacity" viewBox="0 0 512 512" xmlns="http://www.w3.org/2000/svg" xmlns:svg="http://www.w3.org/2000/svg"><path d="m 495.92,190.5 v -0.11 a 16,16 0 0 0 -8,-12.28 l -224,-128 a 16,16 0 0 0 -15.88,0 l -224,128 a 16,16 0 0 0 0,27.78 l 224,128 a 16,16 0 0 0 15.88,0 L 461,221.28 a 2,2 0 0 1 3,1.74 v 144.53 c 0,8.61 6.62,16 15.23,16.43 A 16,16 0 0 0 496,368 V 192 a 14.76,14.76 0 0 0 -0.08,-1.5 z M 256,368 a 16,16 0 0 1 -7.94,-2.11 L 108,285.84 a 8,8 0 0 0 -12,6.94 V 368 a 16,16 0 0 0 8.23,14 l 144,80 a 16,16 0 0 0 15.54,0 l 144,-80 A 16,16 0 0 0 416,368 v -75.22 a 8,8 0 0 0 -12,-6.94 L 263.94,365.89 A 16,16 0 0 1 256,368 Z"/></svg>