#filter dumbComments emptyLines substitution
# This Source Code Form is subject to the terms of the Mozilla Public
# License, v. 2.0. If a copy of the MPL was not distributed with this
# file, You can obtain one at http://mozilla.org/MPL/2.0/.
<svg fill="context-fill" fill-opacity="context-fill-opacity" viewBox="0 0 512 512" xmlns="http://www.w3.org/2000/svg" xmlns:svg="http://www.w3.org/2000/svg"><path d="M 402,76.94 C 362.61,37.63 310.78,16 256,16 h -0.37 A 208,208 0 0 0 48,224 V 324.67 A 79.62,79.62 0 0 0 98.29,399 l 23.71,9.42 a 15.92,15.92 0 0 1 9.75,11.72 l 10,50.13 A 32.09,32.09 0 0 0 173.12,496 H 184 a 8,8 0 0 0 8,-8 v -39.55 c 0,-8.61 6.62,-16 15.23,-16.43 A 16,16 0 0 1 224,448 v 40 a 8,8 0 0 0 8,8 8,8 0 0 0 8,-8 v -39.55 c 0,-8.61 6.62,-16 15.23,-16.43 A 16,16 0 0 1 272,448 v 40 a 8,8 0 0 0 8,8 8,8 0 0 0 8,-8 v -39.55 c 0,-8.61 6.62,-16 15.23,-16.43 A 16,16 0 0 1 320,448 v 40 a 8,8 0 0 0 8,8 h 10.88 a 32.09,32.09 0 0 0 31.38,-25.72 l 10,-50.14 A 16,16 0 0 1 390,408.42 L 413.71,399 A 79.62,79.62 0 0 0 464,324.67 v -99 c 0,-56 -22,-108.81 -62,-148.73 z M 171.66,335.88 a 56,56 0 1 1 52.22,-52.22 56,56 0 0 1 -52.22,52.22 z M 281,397.25 a 16.37,16.37 0 0 1 -9.3,2.75 h -31.4 a 16.37,16.37 0 0 1 -9.28,-2.75 16,16 0 0 1 -6.6,-16.9 l 15.91,-47.6 C 243,326 247.25,321 254,320.13 c 8.26,-1 14,2.87 17.61,12.22 l 16,48 a 16,16 0 0 1 -6.61,16.9 z m 66.68,-61.37 a 56,56 0 1 1 52.22,-52.22 56,56 0 0 1 -52.24,52.22 z"/></svg>