#filter dumbComments emptyLines substitution
# This Source Code Form is subject to the terms of the Mozilla Public
# License, v. 2.0. If a copy of the MPL was not distributed with this
# file, You can obtain one at http://mozilla.org/MPL/2.0/.
<svg fill="context-fill" fill-opacity="context-fill-opacity" viewBox="0 0 512 512" xmlns="http://www.w3.org/2000/svg" xmlns:svg="http://www.w3.org/2000/svg"><path d="m 272,464 h -32 a 32,32 0 0 1 -32,-32 l 0.05,-85.82 a 4,4 0 0 0 -6,-3.47 l -74.34,43.06 a 31.48,31.48 0 0 1 -43,-11.52 l -16.5,-28.64 -0.06,-0.1 a 31.65,31.65 0 0 1 11.56,-42.8 l 74.61,-43.25 a 4,4 0 0 0 0,-6.92 L 79.78,209.33 a 31.41,31.41 0 0 1 -11.55,-43 l 16.44,-28.55 a 31.48,31.48 0 0 1 19.27,-14.74 31.14,31.14 0 0 1 23.8,3.2 l 74.31,43 a 4,4 0 0 0 6,-3.47 L 208,80 a 32,32 0 0 1 32,-32 h 32 a 32,32 0 0 1 32,32 v 85.72 a 4,4 0 0 0 6,3.47 l 74.34,-43.06 a 31.51,31.51 0 0 1 43,11.52 l 16.49,28.64 0.06,0.09 a 31.52,31.52 0 0 1 -11.64,42.86 l -74.53,43.2 a 4,4 0 0 0 0,6.92 l 74.53,43.2 a 31.42,31.42 0 0 1 11.56,43 l -16.44,28.55 a 31.48,31.48 0 0 1 -19.27,14.74 31.14,31.14 0 0 1 -23.8,-3.2 l -74.31,-43 a 4,4 0 0 0 -6,3.46 L 304,432 a 32,32 0 0 1 -32,32 z M 178.44,266.52 Z m 0,-21 z m 155.1,-0.08 z m 0,0 z"/></svg>