#filter dumbComments emptyLines substitution
# This Source Code Form is subject to the terms of the Mozilla Public
# License, v. 2.0. If a copy of the MPL was not distributed with this
# file, You can obtain one at http://mozilla.org/MPL/2.0/.
<svg fill="context-fill" fill-opacity="context-fill-opacity" viewBox="0 0 512 512" xmlns="http://www.w3.org/2000/svg" xmlns:svg="http://www.w3.org/2000/svg"><path d="M 104,496 H 72 A 24,24 0 0 1 48,472 V 328 a 24,24 0 0 1 24,-24 h 32 a 24,24 0 0 1 24,24 v 144 a 24,24 0 0 1 -24,24 z m 224,0 H 296 A 24,24 0 0 1 272,472 V 232 a 24,24 0 0 1 24,-24 h 32 a 24,24 0 0 1 24,24 v 240 a 24,24 0 0 1 -24,24 z m 112,0 H 408 A 24,24 0 0 1 384,472 V 120 a 24,24 0 0 1 24,-24 h 32 a 24,24 0 0 1 24,24 v 352 a 24,24 0 0 1 -24,24 z m -224,0 H 184 A 24,24 0 0 1 160,472 V 40 a 24,24 0 0 1 24,-24 h 32 a 24,24 0 0 1 24,24 v 432 a 24,24 0 0 1 -24,24 z"/></svg>