#filter dumbComments emptyLines substitution
# This Source Code Form is subject to the terms of the Mozilla Public
# License, v. 2.0. If a copy of the MPL was not distributed with this
# file, You can obtain one at http://mozilla.org/MPL/2.0/.
<svg fill="context-fill" fill-opacity="context-fill-opacity" viewBox="0 0 512 512" xmlns="http://www.w3.org/2000/svg" xmlns:svg="http://www.w3.org/2000/svg"><path d="M 256,118 A 22,22 0 0 1 234,96 V 48 a 22,22 0 0 1 44,0 v 48 a 22,22 0 0 1 -22,22 z m 0,368 a 22,22 0 0 1 -22,-22 v -48 a 22,22 0 0 1 44,0 v 48 a 22,22 0 0 1 -22,22 z M 369.14,164.86 a 22,22 0 0 1 -15.56,-37.55 l 33.94,-33.94 a 22,22 0 0 1 31.11,31.11 l -33.94,33.94 a 21.93,21.93 0 0 1 -15.55,6.44 z M 108.92,425.08 A 22,22 0 0 1 93.37,387.52 l 33.94,-33.94 a 22,22 0 1 1 31.11,31.11 l -33.94,33.94 a 21.94,21.94 0 0 1 -15.56,6.45 z M 464,278 h -48 a 22,22 0 0 1 0,-44 h 48 a 22,22 0 0 1 0,44 z M 96,278 H 48 a 22,22 0 0 1 0,-44 h 48 a 22,22 0 0 1 0,44 z m 307.08,147.08 a 21.94,21.94 0 0 1 -15.56,-6.45 l -33.94,-33.94 a 22,22 0 0 1 31.11,-31.11 l 33.94,33.94 a 22,22 0 0 1 -15.55,37.56 z M 142.86,164.86 a 21.89,21.89 0 0 1 -15.55,-6.44 L 93.37,124.48 a 22,22 0 0 1 31.11,-31.11 l 33.94,33.94 a 22,22 0 0 1 -15.56,37.55 z M 256,358 A 102,102 0 1 1 358,256 102.12,102.12 0 0 1 256,358 Z"/></svg>