#filter dumbComments emptyLines substitution
# This Source Code Form is subject to the terms of the Mozilla Public
# License, v. 2.0. If a copy of the MPL was not distributed with this
# file, You can obtain one at http://mozilla.org/MPL/2.0/.
<svg fill="context-fill" fill-opacity="context-fill-opacity" viewBox="0 0 512 512" xmlns="http://www.w3.org/2000/svg" xmlns:svg="http://www.w3.org/2000/svg"><path d="m 169.969,148.152 2.271,1.949 202.191,202.517 c 2.644,2.653 4.626,5.892 5.787,9.455 1.161,3.563 1.467,7.35 0.895,11.053 -0.572,3.704 -2.008,7.221 -4.19,10.266 -2.182,3.045 -5.049,5.532 -8.369,7.261 l -2.757,1.218 -247.51,91.334 C 71.7922,500.335 26.5139,456.576 40.6203,410.057 l 1.216,-3.491 91.2057,-247.819 c 1.208,-3.277 3.12,-6.249 5.6,-8.705 2.481,-2.457 5.47,-4.338 8.756,-5.511 3.286,-1.173 6.789,-1.609 10.262,-1.278 3.473,0.331 6.831,1.421 9.837,3.194 z m 215.204,103.633 c 21.727,1.137 51.481,5.724 77.342,21.312 5.186,3.145 8.979,8.152 10.608,14 1.629,5.848 0.972,12.097 -1.838,17.477 -2.81,5.38 -7.561,9.485 -13.287,11.48 -5.726,1.995 -11.996,1.73 -17.534,-0.741 l -2.432,-1.299 c -16.296,-9.742 -37.05,-13.639 -55.372,-14.573 -7.532,-0.5 -15.09,-0.473 -22.619,0.082 l -7.539,0.811 c -6.263,0.889 -12.621,-0.751 -17.676,-4.557 -5.055,-3.806 -8.394,-9.468 -9.281,-15.739 -0.887,-6.271 0.75,-12.638 4.551,-17.701 3.801,-5.062 9.455,-8.405 15.717,-9.293 13.035,-1.695 26.244,-2.117 39.36,-1.259 z m 48.278,-66.491 c 6.076,0.016 11.917,2.354 16.329,6.537 4.411,4.183 7.062,9.895 7.408,15.97 0.347,6.074 -1.636,12.052 -5.543,16.711 -3.907,4.66 -9.443,7.649 -15.478,8.357 l -2.716,0.122 h -16.903 c -6.025,-0.083 -11.795,-2.448 -16.149,-6.62 -4.354,-4.171 -6.969,-9.839 -7.318,-15.863 -0.349,-6.023 1.593,-11.956 5.435,-16.604 3.843,-4.648 9.301,-7.666 15.275,-8.447 l 2.757,-0.163 z M 357.65,166.987 c 4.075,4.128 6.515,9.597 6.866,15.391 0.35,5.795 -1.413,11.519 -4.961,16.109 l -1.946,2.233 -25.294,25.33 c -4.294,4.254 -10.042,6.717 -16.08,6.891 -6.038,0.173 -11.917,-1.956 -16.448,-5.957 -4.531,-4.001 -7.375,-9.575 -7.959,-15.596 -0.584,-6.021 1.138,-12.04 4.815,-16.838 l 1.987,-2.274 25.253,-25.289 c 4.481,-4.462 10.544,-6.966 16.863,-6.966 6.319,0 12.422,2.504 16.904,6.966 z M 295.954,41.3119 c 10.661,32.1495 4.946,67.3031 -1.702,91.9021 -4.03,15.317 -9.542,30.204 -16.458,44.449 -2.902,5.523 -7.85,9.687 -13.782,11.601 -5.932,1.914 -12.376,1.425 -17.952,-1.362 -5.577,-2.786 -9.841,-7.65 -11.88,-13.547 -2.039,-5.897 -1.691,-12.36 0.971,-18.003 5.539,-11.428 9.926,-23.381 13.093,-35.681 5.391,-19.891 8.107,-41.4049 3.972,-59.0627 l -1.499,-5.1553 c -0.993,-2.9745 -1.391,-6.1158 -1.172,-9.2444 0.22,-3.1285 1.052,-6.1832 2.451,-8.9895 1.398,-2.8063 3.335,-5.3093 5.699,-7.3661 2.364,-2.0568 5.11,-3.6272 8.081,-4.6213 2.97,-0.9942 6.107,-1.3928 9.231,-1.173 3.124,0.2198 6.174,1.0537 8.977,2.454 2.802,1.4004 5.302,3.3397 7.356,5.7074 2.053,2.3677 3.622,5.1172 4.614,8.0918 z m 129.025,58.21 c 4.444,4.4861 6.937,10.5481 6.937,16.8661 0,6.318 -2.493,12.381 -6.937,16.867 l -16.822,16.886 c -2.202,2.261 -4.831,4.061 -7.733,5.297 -2.902,1.236 -6.02,1.883 -9.173,1.903 -3.154,0.021 -6.28,-0.586 -9.198,-1.784 -2.918,-1.198 -5.569,-2.964 -7.801,-5.196 -2.231,-2.232 -3.998,-4.885 -5.198,-7.805 -1.2,-2.921 -1.809,-6.051 -1.792,-9.209 0.016,-3.158 0.659,-6.281 1.889,-9.189 1.231,-2.907 3.026,-5.541 5.28,-7.749 l 16.823,-16.8871 c 4.479,-4.4495 10.533,-6.9462 16.842,-6.9462 6.31,0 12.363,2.4967 16.843,6.9462"/></svg>