#filter dumbComments emptyLines substitution
# This Source Code Form is subject to the terms of the Mozilla Public
# License, v. 2.0. If a copy of the MPL was not distributed with this
# file, You can obtain one at http://mozilla.org/MPL/2.0/.
<svg fill="context-fill" fill-opacity="context-fill-opacity" viewBox="0 0 512 512" xmlns="http://www.w3.org/2000/svg" xmlns:svg="http://www.w3.org/2000/svg"><path d="m 490.18,181.4 -44.13,-44.13 a 20,20 0 0 0 -27,-1 30.81,30.81 0 0 1 -41.68,-1.6 30.81,30.81 0 0 1 -1.6,-41.67 20,20 0 0 0 -1,-27 L 330.6,21.82 a 19.91,19.91 0 0 0 -28.13,0 l -70.35,70.34 a 39.87,39.87 0 0 0 -9.57,15.5 7.71,7.71 0 0 1 -4.83,4.83 39.78,39.78 0 0 0 -15.5,9.58 l -180.4,180.4 a 19.91,19.91 0 0 0 0,28.13 L 66,374.73 a 20,20 0 0 0 27,1 30.69,30.69 0 0 1 43.28,43.28 20,20 0 0 0 1,27 l 44.13,44.13 a 19.91,19.91 0 0 0 28.13,0 l 180.4,-180.4 a 39.82,39.82 0 0 0 9.58,-15.49 7.69,7.69 0 0 1 4.84,-4.84 39.84,39.84 0 0 0 15.49,-9.57 l 70.34,-70.35 A 19.91,19.91 0 0 0 490.18,181.4 Z M 261.81,151.75 a 16,16 0 0 1 -22.63,0 l -11.51,-11.51 a 16,16 0 0 1 22.63,-22.62 l 11.51,11.5 a 16,16 0 0 1 0,22.63 z m 44,44 a 16,16 0 0 1 -22.62,0 l -11,-11 a 16.001826,16.001826 0 1 1 22.63,-22.63 l 11,11 a 16,16 0 0 1 0.01,22.66 z m 44,44 a 16,16 0 0 1 -22.63,0 l -11,-11 a 16,16 0 0 1 22.63,-22.62 l 11,11 a 16,16 0 0 1 0.05,22.67 z m 44.43,44.54 a 16,16 0 0 1 -22.63,0 l -11.44,-11.5 a 16,16 0 1 1 22.68,-22.57 l 11.45,11.49 a 16,16 0 0 1 -0.01,22.63 z"/></svg>