#filter dumbComments emptyLines substitution
# This Source Code Form is subject to the terms of the Mozilla Public
# License, v. 2.0. If a copy of the MPL was not distributed with this
# file, You can obtain one at http://mozilla.org/MPL/2.0/.
<svg fill="context-fill" fill-opacity="context-fill-opacity" viewBox="0 0 512 512" xmlns="http://www.w3.org/2000/svg" xmlns:svg="http://www.w3.org/2000/svg"><path d="M 432,96 H 336 V 72 A 40,40 0 0 0 296,32 H 216 A 40,40 0 0 0 176,72 V 96 H 80 a 16,16 0 0 0 0,32 h 17 l 19,304.92 c 1.42,26.85 22,47.08 48,47.08 h 184 c 26.13,0 46.3,-19.78 48,-47 l 19,-305 h 17 a 16,16 0 0 0 0,-32 z M 192.57,416 H 192 a 16,16 0 0 1 -16,-15.43 l -8,-224 a 16.01015,16.01015 0 1 1 32,-1.14 l 8,224 A 16,16 0 0 1 192.57,416 Z M 272,400 a 16,16 0 0 1 -32,0 V 176 a 16,16 0 0 1 32,0 z M 304,96 H 208 V 72 a 7.91,7.91 0 0 1 8,-8 h 80 a 7.91,7.91 0 0 1 8,8 z m 32,304.57 A 16,16 0 0 1 320,416 h -0.58 A 16,16 0 0 1 304,399.43 l 8,-224 a 16.01015,16.01015 0 1 1 32,1.14 z M 296,64 h -80 a 7.91,7.91 0 0 0 -8,8 v 24 h 96 V 72 a 7.91,7.91 0 0 0 -8,-8 z"/></svg>