#filter dumbComments emptyLines substitution
# This Source Code Form is subject to the terms of the Mozilla Public
# License, v. 2.0. If a copy of the MPL was not distributed with this
# file, You can obtain one at http://mozilla.org/MPL/2.0/.
<svg fill="context-fill" fill-opacity="context-fill-opacity" viewBox="0 0 512 512" xmlns="http://www.w3.org/2000/svg" xmlns:svg="http://www.w3.org/2000/svg"><path d="m 464,384.39 a 32,32 0 0 1 -13,-2.77 15.77,15.77 0 0 1 -2.71,-1.54 L 365.58,321.86 A 32,32 0 0 1 352,295.7 v -79.4 a 32,32 0 0 1 13.58,-26.16 l 82.71,-58.22 a 15.77,15.77 0 0 1 2.71,-1.54 32,32 0 0 1 45,29.24 v 192.76 a 32,32 0 0 1 -32,32 z M 268,400 H 84 A 68.07,68.07 0 0 1 16,332 V 180 A 68.07,68.07 0 0 1 84,112 H 268.48 A 67.6,67.6 0 0 1 336,179.52 V 332 a 68.07,68.07 0 0 1 -68,68 z"/></svg>