#filter dumbComments emptyLines substitution
# This Source Code Form is subject to the terms of the Mozilla Public
# License, v. 2.0. If a copy of the MPL was not distributed with this
# file, You can obtain one at http://mozilla.org/MPL/2.0/.
<svg fill="context-fill" fill-opacity="context-fill-opacity" viewBox="0 0 512 512" xmlns="http://www.w3.org/2000/svg" xmlns:svg="http://www.w3.org/2000/svg"><path d="M 449.07,399.08 278.64,82.58 c -12.08,-22.44 -44.26,-22.44 -56.35,0 L 51.87,399.08 A 32,32 0 0 0 80,446.25 h 340.89 a 32,32 0 0 0 28.18,-47.17 z m -198.6,-1.83 a 20,20 0 1 1 20,-20 20,20 0 0 1 -20,20 z m 21.72,-201.15 -5.74,122 a 16,16 0 0 1 -32,0 l -5.74,-121.95 a 21.73,21.73 0 0 1 21.5,-22.69 h 0.21 a 21.74,21.74 0 0 1 21.73,22.7 z"/></svg>