<!--
   - This Source Code Form is subject to the terms of the Mozilla Public
   - License, v. 2.0. If a copy of the MPL was not distributed with this
   - file, You can obtain one at http://mozilla.org/MPL/2.0/.
   -->
<svg width="32" height="32" viewBox="0 0 32 32" fill="none" xmlns="http://www.w3.org/2000/svg">
<path d="M24.4212 7.5791H7.5791V24.4212H24.4212V7.5791Z" fill="white"/>
<path d="M24.4212 31.9999L32.0001 24.421L28.2106 23.7744L24.4212 24.421L23.7295 27.8872L24.4212 31.9999Z" fill="#EA4335"/>
<path d="M0 24.421V29.4736C0 30.8694 1.13053 31.9999 2.52632 31.9999H7.57895L8.35711 28.2104L7.57895 24.421L3.4499 23.7744L0 24.421Z" fill="#188038"/>
<path d="M32.0001 7.57895V2.52632C32.0001 1.13053 30.8696 0 29.4738 0H24.4212C23.96 1.87948 23.7295 3.26264 23.7295 4.14947C23.7295 5.03629 23.96 6.17945 24.4212 7.57895C26.0973 8.05894 27.3605 8.29893 28.2106 8.29893C29.0607 8.29893 30.3239 8.05894 32.0001 7.57895Z" fill="#1967D2"/>
<path d="M31.9998 7.5791H24.4209V24.4212H31.9998V7.5791Z" fill="#FBBC04"/>
<path d="M24.4212 24.4209H7.5791V31.9998H24.4212V24.4209Z" fill="#34A853"/>
<path d="M24.4211 0H2.52632C1.13053 0 0 1.13053 0 2.52632V24.4211H7.57895V7.57895H24.4211V0Z" fill="#4285F4"/>
<path d="M11.0336 20.6444C10.4042 20.2191 9.96836 19.5981 9.73047 18.777L11.1915 18.1749C11.3242 18.6802 11.5557 19.0717 11.8863 19.3496C12.2147 19.6275 12.6147 19.7644 13.082 19.7644C13.5599 19.7644 13.9705 19.6191 14.3136 19.3286C14.6568 19.0381 14.8294 18.6675 14.8294 18.2191C14.8294 17.7602 14.6484 17.3854 14.2863 17.0949C13.9242 16.8044 13.4694 16.6591 12.9263 16.6591H12.082V15.2128H12.8399C13.3073 15.2128 13.701 15.0865 14.021 14.8338C14.341 14.5812 14.501 14.2359 14.501 13.7959C14.501 13.4044 14.3578 13.0928 14.0715 12.8591C13.7852 12.6254 13.4231 12.5075 12.9831 12.5075C12.5536 12.5075 12.2126 12.6212 11.9599 12.8507C11.7075 13.0808 11.5177 13.3713 11.4084 13.6949L9.96205 13.0928C10.1536 12.5496 10.5052 12.0696 11.021 11.6549C11.5368 11.2402 12.1957 11.0317 12.9957 11.0317C13.5873 11.0317 14.1199 11.1454 14.5915 11.3749C15.0631 11.6044 15.4336 11.9223 15.701 12.3265C15.9684 12.7328 16.101 13.1875 16.101 13.6928C16.101 14.2086 15.9768 14.6444 15.7284 15.0023C15.4799 15.3602 15.1747 15.6338 14.8126 15.8254V15.9117C15.2801 16.1045 15.6863 16.4211 15.9873 16.8275C16.2926 17.2381 16.4463 17.7286 16.4463 18.3012C16.4463 18.8738 16.301 19.3854 16.0105 19.8338C15.7199 20.2823 15.3178 20.6359 14.8084 20.8928C14.2968 21.1496 13.722 21.2802 13.0842 21.2802C12.3452 21.2823 11.6631 21.0696 11.0336 20.6444ZM20.0084 13.3938L18.4042 14.5538L17.602 13.337L20.4799 11.2612H21.5831V21.0528H20.0084V13.3938Z" fill="#4285F4"/>
</svg>
