<!--
   - This Source Code Form is subject to the terms of the Mozilla Public
   - License, v. 2.0. If a copy of the MPL was not distributed with this
   - file, You can obtain one at http://mozilla.org/MPL/2.0/.
   -->
<svg width="32" height="32" viewBox="0 0 32 32" fill="none" xmlns="http://www.w3.org/2000/svg">
<path d="M19.9092 0.570312C20.9252 0.483425 21.6372 0.459533 22.2676 0.602539C22.9145 0.749343 23.4327 1.06038 24.0859 1.53418L29.3965 5.26758L29.4043 5.27246C29.8125 5.57126 30.1701 5.81942 30.4004 6.08594C30.6783 6.40761 30.7783 6.75136 30.7783 7.19238V27.665C30.7783 28.3532 30.6552 29.0129 30.2148 29.5127C29.7704 30.0169 29.0911 30.2598 28.2109 30.3223H28.2061L8.88672 31.4893H8.88086C8.2502 31.519 7.71523 31.495 7.23926 31.3213C6.74601 31.1412 6.36848 30.821 6.00977 30.3652L6.00684 30.3613L2.09668 25.2871L2.09375 25.2832C1.35529 24.3021 1.00001 23.4985 1 22.5322V4.33398C1.00003 3.74262 1.13121 3.13817 1.50781 2.65625C1.8945 2.16152 2.4867 1.86338 3.2666 1.7959H3.27344L19.9092 0.569336V0.570312Z" fill="white" stroke="white"/>
<path fill-rule="evenodd" clip-rule="evenodd" d="M19.947 1.0682L3.308 2.2942C1.968 2.4102 1.5 3.2852 1.5 4.3342V22.5322C1.5 23.3492 1.791 24.0482 2.492 24.9822L6.403 30.0562C7.046 30.8732 7.629 31.0482 8.856 30.9902L28.177 29.8232C29.811 29.7072 30.279 28.9482 30.279 27.6652V7.1922C30.279 6.5292 30.016 6.3382 29.242 5.7722L29.11 5.6762L23.8 1.9432C22.515 1.0112 21.99 0.893201 19.946 1.0682H19.947ZM9.293 6.8572C7.716 6.9632 7.357 6.9872 6.462 6.2602L4.185 4.4522C3.952 4.2182 4.069 3.9262 4.652 3.8682L20.647 2.7022C21.989 2.5852 22.69 3.0522 23.215 3.4602L25.959 5.4432C26.076 5.5022 26.367 5.8512 26.017 5.8512L9.497 6.8432L9.293 6.8572ZM7.454 27.4902V10.1102C7.454 9.3512 7.688 9.0012 8.388 8.9422L27.359 7.8342C28.002 7.7762 28.294 8.1842 28.294 8.9422V26.2062C28.294 26.9652 28.177 27.6072 27.126 27.6652L8.972 28.7152C7.922 28.7732 7.454 28.4242 7.454 27.4902ZM25.376 11.0422C25.492 11.5672 25.376 12.0922 24.849 12.1522L23.975 12.3252V25.1572C23.215 25.5652 22.515 25.7982 21.931 25.7982C20.997 25.7982 20.763 25.5062 20.063 24.6322L14.342 15.6502V24.3402L16.152 24.7492C16.152 24.7492 16.152 25.7992 14.692 25.7992L10.665 26.0322C10.548 25.7982 10.665 25.2152 11.073 25.0992L12.124 24.8082V13.3182L10.665 13.2002C10.548 12.6752 10.839 11.9172 11.657 11.8592L15.977 11.5672L21.931 20.6672V12.6172L20.413 12.4432C20.297 11.8002 20.763 11.3342 21.347 11.2762L25.376 11.0422Z" fill="black"/>
</svg>