<!--
   - This Source Code Form is subject to the terms of the Mozilla Public
   - License, v. 2.0. If a copy of the MPL was not distributed with this
   - file, You can obtain one at http://mozilla.org/MPL/2.0/.
   -->
<svg width="32" height="32" viewBox="0 0 32 32" fill="none" xmlns="http://www.w3.org/2000/svg">
<path d="M11.8525 18.68C12.6687 18.4375 13.9937 18.0675 15.51 17.9663C14.7007 16.039 14.3729 13.9436 14.555 11.8613C14.7587 9.79752 15.4975 8.06377 16.2112 6.59877L16.645 5.70627L17.205 4.55877C17.4987 3.93377 17.715 3.38627 17.8175 2.86377C17.9187 2.35502 17.9187 1.90877 17.7925 1.47502C17.6637 1.04127 17.4087 0.582519 16.8987 0.073769C16.5564 -0.0184991 16.1963 -0.0237195 15.8514 0.0585822C15.5065 0.140884 15.1876 0.308097 14.9237 0.545019L8.3225 6.48252C7.95209 6.81468 7.70898 7.26552 7.635 7.75752L7.0725 11.53C9.20091 13.5086 10.8377 15.957 11.8525 18.68ZM6.80625 13.25L6.67875 13.6325L3.18625 21.4075C3.01261 21.7987 2.95877 22.2327 3.03152 22.6545C3.10427 23.0763 3.30034 23.4671 3.595 23.7775L9.0875 29.4225C10.2319 27.8406 10.9382 25.9845 11.1351 24.042C11.332 22.0995 11.0124 20.1394 10.2087 18.36C9.38578 16.4688 8.23375 14.7387 6.80625 13.25Z" fill="#A88BFA"/>
<path d="M10.3624 30.0988L10.6549 30.1238C11.6874 30.1488 13.4461 30.2513 14.8599 30.5063C16.0199 30.7226 18.3261 31.3601 20.2124 31.9076C21.6524 32.3413 23.1436 31.1826 23.3474 29.6913C23.5011 28.6076 23.7936 27.3838 24.3161 26.2501C23.6993 24.2904 22.5837 22.5248 21.0786 21.1263C20.0366 20.2208 18.752 19.6406 17.3836 19.4576C15.6525 19.2856 13.9047 19.4898 12.2599 20.0563C12.676 21.7697 12.7207 23.5523 12.391 25.2844C12.0614 27.0165 11.365 28.6581 10.3486 30.0988H10.3611H10.3624Z" fill="#A88BFA"/>
<path d="M25.2336 24.7201C26.1003 23.4305 26.9249 22.1131 27.7061 20.7701C27.8101 20.5866 27.8583 20.3767 27.8448 20.1662C27.8312 19.9557 27.7565 19.7538 27.6299 19.5851C26.5538 18.1973 25.6388 16.6918 24.9024 15.0976C24.1636 13.3276 24.0611 10.5876 24.0486 9.26135C24.0486 8.7526 23.8961 8.2551 23.5774 7.8601L19.3074 2.44385C19.3074 2.68635 19.2574 2.9276 19.2061 3.1701C19.0424 3.85694 18.803 4.52351 18.4924 5.1576L17.9049 6.3826L17.4849 7.2226C16.7003 8.71209 16.1909 10.3309 15.9811 12.0013C15.8094 14.0586 16.1832 16.1247 17.0649 17.9913C18.893 18.1276 20.6278 18.8521 22.0099 20.0563C23.43 21.3416 24.5337 22.9377 25.2349 24.7201H25.2336Z" fill="#A88BFA"/>
</svg>