<!--
   - This Source Code Form is subject to the terms of the Mozilla Public
   - License, v. 2.0. If a copy of the MPL was not distributed with this
   - file, You can obtain one at http://mozilla.org/MPL/2.0/.
   -->
<svg width="32" height="32" viewBox="0 0 32 32" fill="none" xmlns="http://www.w3.org/2000/svg">
<path d="M6.73015 20.1649C6.73015 22.0188 5.23174 23.5173 3.37777 23.5173C1.5238 23.5173 0.0253906 22.0188 0.0253906 20.1649C0.0253906 18.3109 1.5238 16.8125 3.37777 16.8125H6.73015V20.1649ZM8.40634 20.1649C8.40634 18.3109 9.90475 16.8125 11.7587 16.8125C13.6127 16.8125 15.1111 18.3109 15.1111 20.1649V28.5458C15.1111 30.3998 13.6127 31.8982 11.7587 31.8982C9.90475 31.8982 8.40634 30.3998 8.40634 28.5458V20.1649Z" fill="#E01E5A"/>
<path d="M11.7587 6.70476C9.90476 6.70476 8.40635 5.20635 8.40635 3.35238C8.40635 1.49841 9.90476 0 11.7587 0C13.6127 0 15.1111 1.49841 15.1111 3.35238V6.70476H11.7587ZM11.7587 8.40635C13.6127 8.40635 15.1111 9.90476 15.1111 11.7587C15.1111 13.6127 13.6127 15.1111 11.7587 15.1111H3.35238C1.49841 15.1111 0 13.6127 0 11.7587C0 9.90476 1.49841 8.40635 3.35238 8.40635H11.7587Z" fill="#36C5F0"/>
<path d="M25.1935 11.7587C25.1935 9.90476 26.6919 8.40635 28.5458 8.40635C30.3998 8.40635 31.8982 9.90476 31.8982 11.7587C31.8982 13.6127 30.3998 15.1111 28.5458 15.1111H25.1935V11.7587ZM23.5173 11.7587C23.5173 13.6127 22.0188 15.1111 20.1649 15.1111C18.3109 15.1111 16.8125 13.6127 16.8125 11.7587V3.35238C16.8125 1.49841 18.3109 0 20.1649 0C22.0188 0 23.5173 1.49841 23.5173 3.35238V11.7587Z" fill="#2EB67D"/>
<path d="M20.1649 25.1935C22.0188 25.1935 23.5173 26.6919 23.5173 28.5458C23.5173 30.3998 22.0188 31.8982 20.1649 31.8982C18.3109 31.8982 16.8125 30.3998 16.8125 28.5458V25.1935H20.1649ZM20.1649 23.5173C18.3109 23.5173 16.8125 22.0188 16.8125 20.1649C16.8125 18.3109 18.3109 16.8125 20.1649 16.8125H28.5712C30.4252 16.8125 31.9236 18.3109 31.9236 20.1649C31.9236 22.0188 30.4252 23.5173 28.5712 23.5173H20.1649Z" fill="#ECB22E"/>
</svg>